M48
; DRILL file {KiCad 9.0.2-9.0.2-0~ubuntu24.04.1} date 2025-09-23T14:37:50-0300
; FORMAT={-:-/ absolute / metric / decimal}
; #@! TF.CreationDate,2025-09-23T14:37:50-03:00
; #@! TF.GenerationSoftware,Kicad,Pcbnew,9.0.2-9.0.2-0~ubuntu24.04.1
; #@! TF.FileFunction,Plated,1,2,PTH
FMAT,2
METRIC
; #@! TA.AperFunction,Plated,PTH,ViaDrill
T1C0.400
; #@! TA.AperFunction,Plated,PTH,ComponentDrill
T2C0.800
; #@! TA.AperFunction,Plated,PTH,ComponentDrill
T3C0.900
; #@! TA.AperFunction,Plated,PTH,ComponentDrill
T4C1.000
; #@! TA.AperFunction,Plated,PTH,ComponentDrill
T5C1.075
; #@! TA.AperFunction,Plated,PTH,ComponentDrill
T6C1.100
; #@! TA.AperFunction,Plated,PTH,ComponentDrill
T7C1.600
%
G90
G05
T1
X160.825Y-43.125
X171.675Y-87.6
X171.675Y-96.425
T2
X143.412Y-101.755
X143.412Y-109.375
X145.952Y-101.755
X145.952Y-109.375
X148.493Y-101.755
X148.493Y-109.375
X151.032Y-101.755
X151.032Y-109.375
X153.572Y-101.755
X153.572Y-109.375
X156.112Y-101.755
X156.112Y-109.375
X158.653Y-101.755
X158.653Y-109.375
X169.31Y-86.25
X169.31Y-88.79
X169.31Y-91.33
X169.31Y-93.87
X169.31Y-96.41
X169.31Y-98.95
X169.31Y-101.49
X169.31Y-104.03
X169.31Y-106.57
X169.31Y-109.11
X169.31Y-111.65
X169.31Y-114.19
X169.31Y-116.73
X169.31Y-119.27
X176.93Y-86.25
X176.93Y-88.79
X176.93Y-91.33
X176.93Y-93.87
X176.93Y-96.41
X176.93Y-98.95
X176.93Y-101.49
X176.93Y-104.03
X176.93Y-106.57
X176.93Y-109.11
X176.93Y-111.65
X176.93Y-114.19
X176.93Y-116.73
X176.93Y-119.27
X184.16Y-94.22
X184.16Y-99.1
X184.23Y-72.54
X184.23Y-77.42
T3
X147.775Y-38.098
X149.045Y-35.558
X150.315Y-38.098
X151.585Y-35.558
X152.855Y-38.098
X154.125Y-35.558
X155.395Y-38.098
X156.665Y-35.558
X169.18Y-38.08
X170.45Y-35.54
X171.72Y-38.08
X172.99Y-35.54
X174.26Y-38.08
X175.53Y-35.54
X176.8Y-38.08
X178.07Y-35.54
T4
X135.975Y-97.665
X135.975Y-100.205
X135.975Y-102.745
X135.975Y-105.285
X188.68Y-111.63
X188.68Y-114.17
X188.68Y-116.71
X188.68Y-119.25
T5
X141.43Y-93.275
X143.97Y-93.275
X146.51Y-93.275
X149.05Y-93.275
X156.392Y-93.272
X158.933Y-93.272
X161.472Y-93.272
X164.012Y-93.272
T6
X139.12Y-56.825
X139.12Y-59.365
X139.12Y-61.905
X139.12Y-76.96
X139.12Y-79.5
X139.12Y-82.04
T7
X144.47Y-32.258
X159.97Y-32.258
X165.875Y-32.24
X181.375Y-32.24
M30
