%TF.GenerationSoftware,KiCad,Pcbnew,9.0.2-9.0.2-0~ubuntu24.04.1*%
%TF.CreationDate,2025-09-23T14:37:55-03:00*%
%TF.ProjectId,MSC25,4d534332-352e-46b6-9963-61645f706362,rev?*%
%TF.SameCoordinates,Original*%
%TF.FileFunction,Soldermask,Bot*%
%TF.FilePolarity,Negative*%
%FSLAX46Y46*%
G04 Gerber Fmt 4.6, Leading zero omitted, Abs format (unit mm)*
G04 Created by KiCad (PCBNEW 9.0.2-9.0.2-0~ubuntu24.04.1) date 2025-09-23 14:37:55*
%MOMM*%
%LPD*%
G01*
G04 APERTURE LIST*
G04 Aperture macros list*
%AMRoundRect*
0 Rectangle with rounded corners*
0 $1 Rounding radius*
0 $2 $3 $4 $5 $6 $7 $8 $9 X,Y pos of 4 corners*
0 Add a 4 corners polygon primitive as box body*
4,1,4,$2,$3,$4,$5,$6,$7,$8,$9,$2,$3,0*
0 Add four circle primitives for the rounded corners*
1,1,$1+$1,$2,$3*
1,1,$1+$1,$4,$5*
1,1,$1+$1,$6,$7*
1,1,$1+$1,$8,$9*
0 Add four rect primitives between the rounded corners*
20,1,$1+$1,$2,$3,$4,$5,0*
20,1,$1+$1,$4,$5,$6,$7,0*
20,1,$1+$1,$6,$7,$8,$9,0*
20,1,$1+$1,$8,$9,$2,$3,0*%
G04 Aperture macros list end*
%ADD10C,1.500000*%
%ADD11C,3.500000*%
%ADD12R,2.000000X1.905000*%
%ADD13O,2.000000X1.905000*%
%ADD14R,1.750000X2.250000*%
%ADD15O,1.750000X2.250000*%
%ADD16C,3.650000*%
%ADD17R,1.500000X1.500000*%
%ADD18C,2.500000*%
%ADD19RoundRect,0.250000X-0.550000X0.550000X-0.550000X-0.550000X0.550000X-0.550000X0.550000X0.550000X0*%
%ADD20C,1.600000*%
%ADD21RoundRect,0.250000X0.550000X0.550000X-0.550000X0.550000X-0.550000X-0.550000X0.550000X-0.550000X0*%
%ADD22R,1.700000X1.700000*%
%ADD23C,1.700000*%
%ADD24RoundRect,0.250000X-0.350000X-0.450000X0.350000X-0.450000X0.350000X0.450000X-0.350000X0.450000X0*%
%ADD25RoundRect,0.200000X0.200000X-0.750000X0.200000X0.750000X-0.200000X0.750000X-0.200000X-0.750000X0*%
%ADD26RoundRect,0.250000X0.450000X-0.350000X0.450000X0.350000X-0.450000X0.350000X-0.450000X-0.350000X0*%
%ADD27RoundRect,0.250000X-0.337500X-0.475000X0.337500X-0.475000X0.337500X0.475000X-0.337500X0.475000X0*%
%ADD28RoundRect,0.250000X0.350000X0.450000X-0.350000X0.450000X-0.350000X-0.450000X0.350000X-0.450000X0*%
%ADD29RoundRect,0.150000X0.875000X0.150000X-0.875000X0.150000X-0.875000X-0.150000X0.875000X-0.150000X0*%
%ADD30RoundRect,0.250000X0.337500X0.475000X-0.337500X0.475000X-0.337500X-0.475000X0.337500X-0.475000X0*%
%ADD31RoundRect,0.250000X1.400000X0.600000X-1.400000X0.600000X-1.400000X-0.600000X1.400000X-0.600000X0*%
%ADD32RoundRect,0.150000X0.825000X0.150000X-0.825000X0.150000X-0.825000X-0.150000X0.825000X-0.150000X0*%
%ADD33RoundRect,0.250000X-0.475000X0.337500X-0.475000X-0.337500X0.475000X-0.337500X0.475000X0.337500X0*%
G04 APERTURE END LIST*
D10*
%TO.C,Y401*%
X184160000Y-94220000D03*
X184160000Y-99100000D03*
%TD*%
D11*
%TO.C,U3*%
X155780000Y-59365000D03*
D12*
X139120000Y-56825000D03*
D13*
X139120000Y-59365000D03*
X139120000Y-61905000D03*
%TD*%
D14*
%TO.C,PS501*%
X156392500Y-93272500D03*
D15*
X158932500Y-93272500D03*
X161472500Y-93272500D03*
X164012500Y-93272500D03*
%TD*%
D16*
%TO.C,J602*%
X157935000Y-29208000D03*
X146505000Y-29208000D03*
D17*
X156665000Y-35558000D03*
D10*
X155395000Y-38098000D03*
X154125000Y-35558000D03*
X152855000Y-38098000D03*
X151585000Y-35558000D03*
X150315000Y-38098000D03*
X149045000Y-35558000D03*
X147775000Y-38098000D03*
D18*
X159970000Y-32258000D03*
X144470000Y-32258000D03*
%TD*%
D10*
%TO.C,Y201*%
X184230000Y-72540000D03*
X184230000Y-77420000D03*
%TD*%
D16*
%TO.C,J601*%
X179340000Y-29190000D03*
X167910000Y-29190000D03*
D17*
X178070000Y-35540000D03*
D10*
X176800000Y-38080000D03*
X175530000Y-35540000D03*
X174260000Y-38080000D03*
X172990000Y-35540000D03*
X171720000Y-38080000D03*
X170450000Y-35540000D03*
X169180000Y-38080000D03*
D18*
X181375000Y-32240000D03*
X165875000Y-32240000D03*
%TD*%
D19*
%TO.C,U2*%
X158652500Y-101755000D03*
D20*
X156112500Y-101755000D03*
X153572500Y-101755000D03*
X151032500Y-101755000D03*
X148492500Y-101755000D03*
X145952500Y-101755000D03*
X143412500Y-101755000D03*
X143412500Y-109375000D03*
X145952500Y-109375000D03*
X148492500Y-109375000D03*
X151032500Y-109375000D03*
X153572500Y-109375000D03*
X156112500Y-109375000D03*
X158652500Y-109375000D03*
%TD*%
D14*
%TO.C,PS1*%
X141430000Y-93275000D03*
D15*
X143970000Y-93275000D03*
X146510000Y-93275000D03*
X149050000Y-93275000D03*
%TD*%
D21*
%TO.C,U4*%
X176930000Y-119270000D03*
D20*
X176930000Y-116730000D03*
X176930000Y-114190000D03*
X176930000Y-111650000D03*
X176930000Y-109110000D03*
X176930000Y-106570000D03*
X176930000Y-104030000D03*
X176930000Y-101490000D03*
X176930000Y-98950000D03*
X176930000Y-96410000D03*
X176930000Y-93870000D03*
X176930000Y-91330000D03*
X176930000Y-88790000D03*
X176930000Y-86250000D03*
X169310000Y-86250000D03*
X169310000Y-88790000D03*
X169310000Y-91330000D03*
X169310000Y-93870000D03*
X169310000Y-96410000D03*
X169310000Y-98950000D03*
X169310000Y-101490000D03*
X169310000Y-104030000D03*
X169310000Y-106570000D03*
X169310000Y-109110000D03*
X169310000Y-111650000D03*
X169310000Y-114190000D03*
X169310000Y-116730000D03*
X169310000Y-119270000D03*
%TD*%
D11*
%TO.C,U1*%
X155780000Y-79500000D03*
D12*
X139120000Y-76960000D03*
D13*
X139120000Y-79500000D03*
X139120000Y-82040000D03*
%TD*%
D22*
%TO.C,J401*%
X188680000Y-111630000D03*
D23*
X188680000Y-114170000D03*
X188680000Y-116710000D03*
X188680000Y-119250000D03*
%TD*%
D22*
%TO.C,J1*%
X135975000Y-97665000D03*
D23*
X135975000Y-100205000D03*
X135975000Y-102745000D03*
X135975000Y-105285000D03*
%TD*%
D10*
%TO.C,TP204*%
X182920000Y-64310000D03*
%TD*%
%TO.C,TP208*%
X166200000Y-57810000D03*
%TD*%
D24*
%TO.C,R201*%
X161977500Y-51070000D03*
X163977500Y-51070000D03*
%TD*%
D25*
%TO.C,D201*%
X163497500Y-48170000D03*
X161597500Y-48170000D03*
X162547500Y-45170000D03*
%TD*%
D26*
%TO.C,R4*%
X165966250Y-107665000D03*
X165966250Y-105665000D03*
%TD*%
D27*
%TO.C,C203*%
X184225000Y-74870000D03*
X186300000Y-74870000D03*
%TD*%
%TO.C,C406*%
X176852500Y-123370000D03*
X178927500Y-123370000D03*
%TD*%
D10*
%TO.C,TP206*%
X160880000Y-74810000D03*
%TD*%
D28*
%TO.C,R203*%
X165690000Y-64500000D03*
X163690000Y-64500000D03*
%TD*%
D10*
%TO.C,TP209*%
X166340000Y-83000000D03*
%TD*%
D26*
%TO.C,R3*%
X165936250Y-103405000D03*
X165936250Y-101405000D03*
%TD*%
D24*
%TO.C,R407*%
X180930000Y-117540000D03*
X182930000Y-117540000D03*
%TD*%
%TO.C,R402*%
X180930000Y-114670000D03*
X182930000Y-114670000D03*
%TD*%
D10*
%TO.C,TP201*%
X160940000Y-71850000D03*
%TD*%
%TO.C,TP207*%
X166940000Y-54070000D03*
%TD*%
D24*
%TO.C,R1*%
X151600000Y-104850000D03*
X153600000Y-104850000D03*
%TD*%
D10*
%TO.C,TP203*%
X182880000Y-60920000D03*
%TD*%
D29*
%TO.C,U202*%
X177960000Y-64510000D03*
X177960000Y-65780000D03*
X177960000Y-67050000D03*
X177960000Y-68320000D03*
X177960000Y-69590000D03*
X177960000Y-70860000D03*
X177960000Y-72130000D03*
X177960000Y-73400000D03*
X177960000Y-74670000D03*
X168660000Y-74670000D03*
X168660000Y-73400000D03*
X168660000Y-72130000D03*
X168660000Y-70860000D03*
X168660000Y-69590000D03*
X168660000Y-68320000D03*
X168660000Y-67050000D03*
X168660000Y-65780000D03*
X168660000Y-64510000D03*
%TD*%
D24*
%TO.C,R403*%
X180930000Y-111810000D03*
X182930000Y-111810000D03*
%TD*%
D27*
%TO.C,C205*%
X172192500Y-51840000D03*
X174267500Y-51840000D03*
%TD*%
D30*
%TO.C,C201*%
X172262500Y-61350000D03*
X170187500Y-61350000D03*
%TD*%
D10*
%TO.C,TP202*%
X160990000Y-68830000D03*
%TD*%
D30*
%TO.C,C202*%
X165737500Y-62450000D03*
X163662500Y-62450000D03*
%TD*%
D28*
%TO.C,R401*%
X182870000Y-120310000D03*
X180870000Y-120310000D03*
%TD*%
D24*
%TO.C,R202*%
X172200000Y-49630000D03*
X174200000Y-49630000D03*
%TD*%
D31*
%TO.C,D401*%
X188880000Y-124420000D03*
X183380000Y-124420000D03*
%TD*%
D27*
%TO.C,C403*%
X184142500Y-96550000D03*
X186217500Y-96550000D03*
%TD*%
D32*
%TO.C,U201*%
X175815000Y-54795000D03*
X175815000Y-56065000D03*
X175815000Y-57335000D03*
X175815000Y-58605000D03*
X170865000Y-58605000D03*
X170865000Y-57335000D03*
X170865000Y-56065000D03*
X170865000Y-54795000D03*
%TD*%
D10*
%TO.C,TP205*%
X160970000Y-65590000D03*
%TD*%
D33*
%TO.C,C7*%
X162506250Y-105687500D03*
X162506250Y-107762500D03*
%TD*%
D30*
%TO.C,C204*%
X181697500Y-77440000D03*
X179622500Y-77440000D03*
%TD*%
%TO.C,C404*%
X184187500Y-101300000D03*
X182112500Y-101300000D03*
%TD*%
M02*
