%TF.GenerationSoftware,KiCad,Pcbnew,9.0.2-9.0.2-0~ubuntu24.04.1*%
%TF.CreationDate,2025-09-23T14:37:53-03:00*%
%TF.ProjectId,MSC25,4d534332-352e-46b6-9963-61645f706362,rev?*%
%TF.SameCoordinates,Original*%
%TF.FileFunction,Paste,Bot*%
%TF.FilePolarity,Positive*%
%FSLAX46Y46*%
G04 Gerber Fmt 4.6, Leading zero omitted, Abs format (unit mm)*
G04 Created by KiCad (PCBNEW 9.0.2-9.0.2-0~ubuntu24.04.1) date 2025-09-23 14:37:53*
%MOMM*%
%LPD*%
G01*
G04 APERTURE LIST*
G04 Aperture macros list*
%AMRoundRect*
0 Rectangle with rounded corners*
0 $1 Rounding radius*
0 $2 $3 $4 $5 $6 $7 $8 $9 X,Y pos of 4 corners*
0 Add a 4 corners polygon primitive as box body*
4,1,4,$2,$3,$4,$5,$6,$7,$8,$9,$2,$3,0*
0 Add four circle primitives for the rounded corners*
1,1,$1+$1,$2,$3*
1,1,$1+$1,$4,$5*
1,1,$1+$1,$6,$7*
1,1,$1+$1,$8,$9*
0 Add four rect primitives between the rounded corners*
20,1,$1+$1,$2,$3,$4,$5,0*
20,1,$1+$1,$4,$5,$6,$7,0*
20,1,$1+$1,$6,$7,$8,$9,0*
20,1,$1+$1,$8,$9,$2,$3,0*%
G04 Aperture macros list end*
%ADD10RoundRect,0.250000X-0.350000X-0.450000X0.350000X-0.450000X0.350000X0.450000X-0.350000X0.450000X0*%
%ADD11RoundRect,0.200000X0.200000X-0.750000X0.200000X0.750000X-0.200000X0.750000X-0.200000X-0.750000X0*%
%ADD12RoundRect,0.250000X0.450000X-0.350000X0.450000X0.350000X-0.450000X0.350000X-0.450000X-0.350000X0*%
%ADD13RoundRect,0.250000X-0.337500X-0.475000X0.337500X-0.475000X0.337500X0.475000X-0.337500X0.475000X0*%
%ADD14RoundRect,0.250000X0.350000X0.450000X-0.350000X0.450000X-0.350000X-0.450000X0.350000X-0.450000X0*%
%ADD15RoundRect,0.150000X0.875000X0.150000X-0.875000X0.150000X-0.875000X-0.150000X0.875000X-0.150000X0*%
%ADD16RoundRect,0.250000X0.337500X0.475000X-0.337500X0.475000X-0.337500X-0.475000X0.337500X-0.475000X0*%
%ADD17RoundRect,0.250000X1.400000X0.600000X-1.400000X0.600000X-1.400000X-0.600000X1.400000X-0.600000X0*%
%ADD18RoundRect,0.150000X0.825000X0.150000X-0.825000X0.150000X-0.825000X-0.150000X0.825000X-0.150000X0*%
%ADD19RoundRect,0.250000X-0.475000X0.337500X-0.475000X-0.337500X0.475000X-0.337500X0.475000X0.337500X0*%
G04 APERTURE END LIST*
D10*
%TO.C,R201*%
X161977500Y-51070000D03*
X163977500Y-51070000D03*
%TD*%
D11*
%TO.C,D201*%
X163497500Y-48170000D03*
X161597500Y-48170000D03*
X162547500Y-45170000D03*
%TD*%
D12*
%TO.C,R4*%
X165966250Y-107665000D03*
X165966250Y-105665000D03*
%TD*%
D13*
%TO.C,C203*%
X184225000Y-74870000D03*
X186300000Y-74870000D03*
%TD*%
%TO.C,C406*%
X176852500Y-123370000D03*
X178927500Y-123370000D03*
%TD*%
D14*
%TO.C,R203*%
X165690000Y-64500000D03*
X163690000Y-64500000D03*
%TD*%
D12*
%TO.C,R3*%
X165936250Y-103405000D03*
X165936250Y-101405000D03*
%TD*%
D10*
%TO.C,R407*%
X180930000Y-117540000D03*
X182930000Y-117540000D03*
%TD*%
%TO.C,R402*%
X180930000Y-114670000D03*
X182930000Y-114670000D03*
%TD*%
%TO.C,R1*%
X151600000Y-104850000D03*
X153600000Y-104850000D03*
%TD*%
D15*
%TO.C,U202*%
X177960000Y-64510000D03*
X177960000Y-65780000D03*
X177960000Y-67050000D03*
X177960000Y-68320000D03*
X177960000Y-69590000D03*
X177960000Y-70860000D03*
X177960000Y-72130000D03*
X177960000Y-73400000D03*
X177960000Y-74670000D03*
X168660000Y-74670000D03*
X168660000Y-73400000D03*
X168660000Y-72130000D03*
X168660000Y-70860000D03*
X168660000Y-69590000D03*
X168660000Y-68320000D03*
X168660000Y-67050000D03*
X168660000Y-65780000D03*
X168660000Y-64510000D03*
%TD*%
D10*
%TO.C,R403*%
X180930000Y-111810000D03*
X182930000Y-111810000D03*
%TD*%
D13*
%TO.C,C205*%
X172192500Y-51840000D03*
X174267500Y-51840000D03*
%TD*%
D16*
%TO.C,C201*%
X172262500Y-61350000D03*
X170187500Y-61350000D03*
%TD*%
%TO.C,C202*%
X165737500Y-62450000D03*
X163662500Y-62450000D03*
%TD*%
D14*
%TO.C,R401*%
X182870000Y-120310000D03*
X180870000Y-120310000D03*
%TD*%
D10*
%TO.C,R202*%
X172200000Y-49630000D03*
X174200000Y-49630000D03*
%TD*%
D17*
%TO.C,D401*%
X188880000Y-124420000D03*
X183380000Y-124420000D03*
%TD*%
D13*
%TO.C,C403*%
X184142500Y-96550000D03*
X186217500Y-96550000D03*
%TD*%
D18*
%TO.C,U201*%
X175815000Y-54795000D03*
X175815000Y-56065000D03*
X175815000Y-57335000D03*
X175815000Y-58605000D03*
X170865000Y-58605000D03*
X170865000Y-57335000D03*
X170865000Y-56065000D03*
X170865000Y-54795000D03*
%TD*%
D19*
%TO.C,C7*%
X162506250Y-105687500D03*
X162506250Y-107762500D03*
%TD*%
D16*
%TO.C,C204*%
X181697500Y-77440000D03*
X179622500Y-77440000D03*
%TD*%
%TO.C,C404*%
X184187500Y-101300000D03*
X182112500Y-101300000D03*
%TD*%
M02*
