%TF.GenerationSoftware,KiCad,Pcbnew,9.0.2-9.0.2-0~ubuntu24.04.1*%
%TF.CreationDate,2025-09-23T14:37:54-03:00*%
%TF.ProjectId,MSC25,4d534332-352e-46b6-9963-61645f706362,rev?*%
%TF.SameCoordinates,Original*%
%TF.FileFunction,Legend,Top*%
%TF.FilePolarity,Positive*%
%FSLAX46Y46*%
G04 Gerber Fmt 4.6, Leading zero omitted, Abs format (unit mm)*
G04 Created by KiCad (PCBNEW 9.0.2-9.0.2-0~ubuntu24.04.1) date 2025-09-23 14:37:54*
%MOMM*%
%LPD*%
G01*
G04 APERTURE LIST*
%ADD10C,0.150000*%
%ADD11C,0.100000*%
%ADD12C,0.120000*%
%ADD13C,3.650000*%
G04 APERTURE END LIST*
D10*
X130150000Y-106665000D02*
X130175000Y-96300000D01*
X134600000Y-104075000D02*
X129955000Y-104075000D01*
X137355000Y-98935000D02*
X137355000Y-96300000D01*
X134595000Y-98935000D02*
X134595000Y-97665000D01*
X134595000Y-106665000D02*
X129950000Y-106665000D01*
X135975000Y-96285000D02*
X137355000Y-96300000D01*
X134595000Y-98935000D02*
X129950000Y-98935000D01*
X134595000Y-101475000D02*
X129950000Y-101475000D01*
X134595000Y-96285000D02*
X129950000Y-96285000D01*
X187658628Y-98088571D02*
X188134819Y-98088571D01*
X187134819Y-98421904D02*
X187658628Y-98088571D01*
X187658628Y-98088571D02*
X187134819Y-97755238D01*
X187468152Y-96993333D02*
X188134819Y-96993333D01*
X187087200Y-97231428D02*
X187801485Y-97469523D01*
X187801485Y-97469523D02*
X187801485Y-96850476D01*
X187134819Y-96279047D02*
X187134819Y-96183809D01*
X187134819Y-96183809D02*
X187182438Y-96088571D01*
X187182438Y-96088571D02*
X187230057Y-96040952D01*
X187230057Y-96040952D02*
X187325295Y-95993333D01*
X187325295Y-95993333D02*
X187515771Y-95945714D01*
X187515771Y-95945714D02*
X187753866Y-95945714D01*
X187753866Y-95945714D02*
X187944342Y-95993333D01*
X187944342Y-95993333D02*
X188039580Y-96040952D01*
X188039580Y-96040952D02*
X188087200Y-96088571D01*
X188087200Y-96088571D02*
X188134819Y-96183809D01*
X188134819Y-96183809D02*
X188134819Y-96279047D01*
X188134819Y-96279047D02*
X188087200Y-96374285D01*
X188087200Y-96374285D02*
X188039580Y-96421904D01*
X188039580Y-96421904D02*
X187944342Y-96469523D01*
X187944342Y-96469523D02*
X187753866Y-96517142D01*
X187753866Y-96517142D02*
X187515771Y-96517142D01*
X187515771Y-96517142D02*
X187325295Y-96469523D01*
X187325295Y-96469523D02*
X187230057Y-96421904D01*
X187230057Y-96421904D02*
X187182438Y-96374285D01*
X187182438Y-96374285D02*
X187134819Y-96279047D01*
X188134819Y-94993333D02*
X188134819Y-95564761D01*
X188134819Y-95279047D02*
X187134819Y-95279047D01*
X187134819Y-95279047D02*
X187277676Y-95374285D01*
X187277676Y-95374285D02*
X187372914Y-95469523D01*
X187372914Y-95469523D02*
X187420533Y-95564761D01*
X158984819Y-60126904D02*
X159794342Y-60126904D01*
X159794342Y-60126904D02*
X159889580Y-60079285D01*
X159889580Y-60079285D02*
X159937200Y-60031666D01*
X159937200Y-60031666D02*
X159984819Y-59936428D01*
X159984819Y-59936428D02*
X159984819Y-59745952D01*
X159984819Y-59745952D02*
X159937200Y-59650714D01*
X159937200Y-59650714D02*
X159889580Y-59603095D01*
X159889580Y-59603095D02*
X159794342Y-59555476D01*
X159794342Y-59555476D02*
X158984819Y-59555476D01*
X158984819Y-59174523D02*
X158984819Y-58555476D01*
X158984819Y-58555476D02*
X159365771Y-58888809D01*
X159365771Y-58888809D02*
X159365771Y-58745952D01*
X159365771Y-58745952D02*
X159413390Y-58650714D01*
X159413390Y-58650714D02*
X159461009Y-58603095D01*
X159461009Y-58603095D02*
X159556247Y-58555476D01*
X159556247Y-58555476D02*
X159794342Y-58555476D01*
X159794342Y-58555476D02*
X159889580Y-58603095D01*
X159889580Y-58603095D02*
X159937200Y-58650714D01*
X159937200Y-58650714D02*
X159984819Y-58745952D01*
X159984819Y-58745952D02*
X159984819Y-59031666D01*
X159984819Y-59031666D02*
X159937200Y-59126904D01*
X159937200Y-59126904D02*
X159889580Y-59174523D01*
X164730952Y-99989580D02*
X164683333Y-100037200D01*
X164683333Y-100037200D02*
X164540476Y-100084819D01*
X164540476Y-100084819D02*
X164445238Y-100084819D01*
X164445238Y-100084819D02*
X164302381Y-100037200D01*
X164302381Y-100037200D02*
X164207143Y-99941961D01*
X164207143Y-99941961D02*
X164159524Y-99846723D01*
X164159524Y-99846723D02*
X164111905Y-99656247D01*
X164111905Y-99656247D02*
X164111905Y-99513390D01*
X164111905Y-99513390D02*
X164159524Y-99322914D01*
X164159524Y-99322914D02*
X164207143Y-99227676D01*
X164207143Y-99227676D02*
X164302381Y-99132438D01*
X164302381Y-99132438D02*
X164445238Y-99084819D01*
X164445238Y-99084819D02*
X164540476Y-99084819D01*
X164540476Y-99084819D02*
X164683333Y-99132438D01*
X164683333Y-99132438D02*
X164730952Y-99180057D01*
X165588095Y-99418152D02*
X165588095Y-100084819D01*
X165350000Y-99037200D02*
X165111905Y-99751485D01*
X165111905Y-99751485D02*
X165730952Y-99751485D01*
X166302381Y-99084819D02*
X166397619Y-99084819D01*
X166397619Y-99084819D02*
X166492857Y-99132438D01*
X166492857Y-99132438D02*
X166540476Y-99180057D01*
X166540476Y-99180057D02*
X166588095Y-99275295D01*
X166588095Y-99275295D02*
X166635714Y-99465771D01*
X166635714Y-99465771D02*
X166635714Y-99703866D01*
X166635714Y-99703866D02*
X166588095Y-99894342D01*
X166588095Y-99894342D02*
X166540476Y-99989580D01*
X166540476Y-99989580D02*
X166492857Y-100037200D01*
X166492857Y-100037200D02*
X166397619Y-100084819D01*
X166397619Y-100084819D02*
X166302381Y-100084819D01*
X166302381Y-100084819D02*
X166207143Y-100037200D01*
X166207143Y-100037200D02*
X166159524Y-99989580D01*
X166159524Y-99989580D02*
X166111905Y-99894342D01*
X166111905Y-99894342D02*
X166064286Y-99703866D01*
X166064286Y-99703866D02*
X166064286Y-99465771D01*
X166064286Y-99465771D02*
X166111905Y-99275295D01*
X166111905Y-99275295D02*
X166159524Y-99180057D01*
X166159524Y-99180057D02*
X166207143Y-99132438D01*
X166207143Y-99132438D02*
X166302381Y-99084819D01*
X167588095Y-100084819D02*
X167016667Y-100084819D01*
X167302381Y-100084819D02*
X167302381Y-99084819D01*
X167302381Y-99084819D02*
X167207143Y-99227676D01*
X167207143Y-99227676D02*
X167111905Y-99322914D01*
X167111905Y-99322914D02*
X167016667Y-99370533D01*
X152117319Y-94969166D02*
X151117319Y-94969166D01*
X151117319Y-94969166D02*
X151117319Y-94588214D01*
X151117319Y-94588214D02*
X151164938Y-94492976D01*
X151164938Y-94492976D02*
X151212557Y-94445357D01*
X151212557Y-94445357D02*
X151307795Y-94397738D01*
X151307795Y-94397738D02*
X151450652Y-94397738D01*
X151450652Y-94397738D02*
X151545890Y-94445357D01*
X151545890Y-94445357D02*
X151593509Y-94492976D01*
X151593509Y-94492976D02*
X151641128Y-94588214D01*
X151641128Y-94588214D02*
X151641128Y-94969166D01*
X152069700Y-94016785D02*
X152117319Y-93873928D01*
X152117319Y-93873928D02*
X152117319Y-93635833D01*
X152117319Y-93635833D02*
X152069700Y-93540595D01*
X152069700Y-93540595D02*
X152022080Y-93492976D01*
X152022080Y-93492976D02*
X151926842Y-93445357D01*
X151926842Y-93445357D02*
X151831604Y-93445357D01*
X151831604Y-93445357D02*
X151736366Y-93492976D01*
X151736366Y-93492976D02*
X151688747Y-93540595D01*
X151688747Y-93540595D02*
X151641128Y-93635833D01*
X151641128Y-93635833D02*
X151593509Y-93826309D01*
X151593509Y-93826309D02*
X151545890Y-93921547D01*
X151545890Y-93921547D02*
X151498271Y-93969166D01*
X151498271Y-93969166D02*
X151403033Y-94016785D01*
X151403033Y-94016785D02*
X151307795Y-94016785D01*
X151307795Y-94016785D02*
X151212557Y-93969166D01*
X151212557Y-93969166D02*
X151164938Y-93921547D01*
X151164938Y-93921547D02*
X151117319Y-93826309D01*
X151117319Y-93826309D02*
X151117319Y-93588214D01*
X151117319Y-93588214D02*
X151164938Y-93445357D01*
X151117319Y-92540595D02*
X151117319Y-93016785D01*
X151117319Y-93016785D02*
X151593509Y-93064404D01*
X151593509Y-93064404D02*
X151545890Y-93016785D01*
X151545890Y-93016785D02*
X151498271Y-92921547D01*
X151498271Y-92921547D02*
X151498271Y-92683452D01*
X151498271Y-92683452D02*
X151545890Y-92588214D01*
X151545890Y-92588214D02*
X151593509Y-92540595D01*
X151593509Y-92540595D02*
X151688747Y-92492976D01*
X151688747Y-92492976D02*
X151926842Y-92492976D01*
X151926842Y-92492976D02*
X152022080Y-92540595D01*
X152022080Y-92540595D02*
X152069700Y-92588214D01*
X152069700Y-92588214D02*
X152117319Y-92683452D01*
X152117319Y-92683452D02*
X152117319Y-92921547D01*
X152117319Y-92921547D02*
X152069700Y-93016785D01*
X152069700Y-93016785D02*
X152022080Y-93064404D01*
X151117319Y-91873928D02*
X151117319Y-91778690D01*
X151117319Y-91778690D02*
X151164938Y-91683452D01*
X151164938Y-91683452D02*
X151212557Y-91635833D01*
X151212557Y-91635833D02*
X151307795Y-91588214D01*
X151307795Y-91588214D02*
X151498271Y-91540595D01*
X151498271Y-91540595D02*
X151736366Y-91540595D01*
X151736366Y-91540595D02*
X151926842Y-91588214D01*
X151926842Y-91588214D02*
X152022080Y-91635833D01*
X152022080Y-91635833D02*
X152069700Y-91683452D01*
X152069700Y-91683452D02*
X152117319Y-91778690D01*
X152117319Y-91778690D02*
X152117319Y-91873928D01*
X152117319Y-91873928D02*
X152069700Y-91969166D01*
X152069700Y-91969166D02*
X152022080Y-92016785D01*
X152022080Y-92016785D02*
X151926842Y-92064404D01*
X151926842Y-92064404D02*
X151736366Y-92112023D01*
X151736366Y-92112023D02*
X151498271Y-92112023D01*
X151498271Y-92112023D02*
X151307795Y-92064404D01*
X151307795Y-92064404D02*
X151212557Y-92016785D01*
X151212557Y-92016785D02*
X151164938Y-91969166D01*
X151164938Y-91969166D02*
X151117319Y-91873928D01*
X152117319Y-90588214D02*
X152117319Y-91159642D01*
X152117319Y-90873928D02*
X151117319Y-90873928D01*
X151117319Y-90873928D02*
X151260176Y-90969166D01*
X151260176Y-90969166D02*
X151355414Y-91064404D01*
X151355414Y-91064404D02*
X151403033Y-91159642D01*
D11*
X160760405Y-39106552D02*
X161117548Y-39106552D01*
X161117548Y-39106552D02*
X161188976Y-39130361D01*
X161188976Y-39130361D02*
X161236596Y-39177980D01*
X161236596Y-39177980D02*
X161260405Y-39249409D01*
X161260405Y-39249409D02*
X161260405Y-39297028D01*
X160760405Y-38654171D02*
X160760405Y-38749409D01*
X160760405Y-38749409D02*
X160784215Y-38797028D01*
X160784215Y-38797028D02*
X160808024Y-38820838D01*
X160808024Y-38820838D02*
X160879453Y-38868457D01*
X160879453Y-38868457D02*
X160974691Y-38892266D01*
X160974691Y-38892266D02*
X161165167Y-38892266D01*
X161165167Y-38892266D02*
X161212786Y-38868457D01*
X161212786Y-38868457D02*
X161236596Y-38844647D01*
X161236596Y-38844647D02*
X161260405Y-38797028D01*
X161260405Y-38797028D02*
X161260405Y-38701790D01*
X161260405Y-38701790D02*
X161236596Y-38654171D01*
X161236596Y-38654171D02*
X161212786Y-38630362D01*
X161212786Y-38630362D02*
X161165167Y-38606552D01*
X161165167Y-38606552D02*
X161046119Y-38606552D01*
X161046119Y-38606552D02*
X160998500Y-38630362D01*
X160998500Y-38630362D02*
X160974691Y-38654171D01*
X160974691Y-38654171D02*
X160950881Y-38701790D01*
X160950881Y-38701790D02*
X160950881Y-38797028D01*
X160950881Y-38797028D02*
X160974691Y-38844647D01*
X160974691Y-38844647D02*
X160998500Y-38868457D01*
X160998500Y-38868457D02*
X161046119Y-38892266D01*
X160760405Y-38297029D02*
X160760405Y-38249410D01*
X160760405Y-38249410D02*
X160784215Y-38201791D01*
X160784215Y-38201791D02*
X160808024Y-38177981D01*
X160808024Y-38177981D02*
X160855643Y-38154172D01*
X160855643Y-38154172D02*
X160950881Y-38130362D01*
X160950881Y-38130362D02*
X161069929Y-38130362D01*
X161069929Y-38130362D02*
X161165167Y-38154172D01*
X161165167Y-38154172D02*
X161212786Y-38177981D01*
X161212786Y-38177981D02*
X161236596Y-38201791D01*
X161236596Y-38201791D02*
X161260405Y-38249410D01*
X161260405Y-38249410D02*
X161260405Y-38297029D01*
X161260405Y-38297029D02*
X161236596Y-38344648D01*
X161236596Y-38344648D02*
X161212786Y-38368457D01*
X161212786Y-38368457D02*
X161165167Y-38392267D01*
X161165167Y-38392267D02*
X161069929Y-38416076D01*
X161069929Y-38416076D02*
X160950881Y-38416076D01*
X160950881Y-38416076D02*
X160855643Y-38392267D01*
X160855643Y-38392267D02*
X160808024Y-38368457D01*
X160808024Y-38368457D02*
X160784215Y-38344648D01*
X160784215Y-38344648D02*
X160760405Y-38297029D01*
X160808024Y-37939886D02*
X160784215Y-37916077D01*
X160784215Y-37916077D02*
X160760405Y-37868458D01*
X160760405Y-37868458D02*
X160760405Y-37749410D01*
X160760405Y-37749410D02*
X160784215Y-37701791D01*
X160784215Y-37701791D02*
X160808024Y-37677982D01*
X160808024Y-37677982D02*
X160855643Y-37654172D01*
X160855643Y-37654172D02*
X160903262Y-37654172D01*
X160903262Y-37654172D02*
X160974691Y-37677982D01*
X160974691Y-37677982D02*
X161260405Y-37963696D01*
X161260405Y-37963696D02*
X161260405Y-37654172D01*
D10*
X187728628Y-76408571D02*
X188204819Y-76408571D01*
X187204819Y-76741904D02*
X187728628Y-76408571D01*
X187728628Y-76408571D02*
X187204819Y-76075238D01*
X187300057Y-75789523D02*
X187252438Y-75741904D01*
X187252438Y-75741904D02*
X187204819Y-75646666D01*
X187204819Y-75646666D02*
X187204819Y-75408571D01*
X187204819Y-75408571D02*
X187252438Y-75313333D01*
X187252438Y-75313333D02*
X187300057Y-75265714D01*
X187300057Y-75265714D02*
X187395295Y-75218095D01*
X187395295Y-75218095D02*
X187490533Y-75218095D01*
X187490533Y-75218095D02*
X187633390Y-75265714D01*
X187633390Y-75265714D02*
X188204819Y-75837142D01*
X188204819Y-75837142D02*
X188204819Y-75218095D01*
X187204819Y-74599047D02*
X187204819Y-74503809D01*
X187204819Y-74503809D02*
X187252438Y-74408571D01*
X187252438Y-74408571D02*
X187300057Y-74360952D01*
X187300057Y-74360952D02*
X187395295Y-74313333D01*
X187395295Y-74313333D02*
X187585771Y-74265714D01*
X187585771Y-74265714D02*
X187823866Y-74265714D01*
X187823866Y-74265714D02*
X188014342Y-74313333D01*
X188014342Y-74313333D02*
X188109580Y-74360952D01*
X188109580Y-74360952D02*
X188157200Y-74408571D01*
X188157200Y-74408571D02*
X188204819Y-74503809D01*
X188204819Y-74503809D02*
X188204819Y-74599047D01*
X188204819Y-74599047D02*
X188157200Y-74694285D01*
X188157200Y-74694285D02*
X188109580Y-74741904D01*
X188109580Y-74741904D02*
X188014342Y-74789523D01*
X188014342Y-74789523D02*
X187823866Y-74837142D01*
X187823866Y-74837142D02*
X187585771Y-74837142D01*
X187585771Y-74837142D02*
X187395295Y-74789523D01*
X187395295Y-74789523D02*
X187300057Y-74741904D01*
X187300057Y-74741904D02*
X187252438Y-74694285D01*
X187252438Y-74694285D02*
X187204819Y-74599047D01*
X188204819Y-73313333D02*
X188204819Y-73884761D01*
X188204819Y-73599047D02*
X187204819Y-73599047D01*
X187204819Y-73599047D02*
X187347676Y-73694285D01*
X187347676Y-73694285D02*
X187442914Y-73789523D01*
X187442914Y-73789523D02*
X187490533Y-73884761D01*
X134654819Y-112592857D02*
X134178628Y-112926190D01*
X134654819Y-113164285D02*
X133654819Y-113164285D01*
X133654819Y-113164285D02*
X133654819Y-112783333D01*
X133654819Y-112783333D02*
X133702438Y-112688095D01*
X133702438Y-112688095D02*
X133750057Y-112640476D01*
X133750057Y-112640476D02*
X133845295Y-112592857D01*
X133845295Y-112592857D02*
X133988152Y-112592857D01*
X133988152Y-112592857D02*
X134083390Y-112640476D01*
X134083390Y-112640476D02*
X134131009Y-112688095D01*
X134131009Y-112688095D02*
X134178628Y-112783333D01*
X134178628Y-112783333D02*
X134178628Y-113164285D01*
X134654819Y-111640476D02*
X134654819Y-112211904D01*
X134654819Y-111926190D02*
X133654819Y-111926190D01*
X133654819Y-111926190D02*
X133797676Y-112021428D01*
X133797676Y-112021428D02*
X133892914Y-112116666D01*
X133892914Y-112116666D02*
X133940533Y-112211904D01*
X133654819Y-110783333D02*
X133654819Y-110973809D01*
X133654819Y-110973809D02*
X133702438Y-111069047D01*
X133702438Y-111069047D02*
X133750057Y-111116666D01*
X133750057Y-111116666D02*
X133892914Y-111211904D01*
X133892914Y-111211904D02*
X134083390Y-111259523D01*
X134083390Y-111259523D02*
X134464342Y-111259523D01*
X134464342Y-111259523D02*
X134559580Y-111211904D01*
X134559580Y-111211904D02*
X134607200Y-111164285D01*
X134607200Y-111164285D02*
X134654819Y-111069047D01*
X134654819Y-111069047D02*
X134654819Y-110878571D01*
X134654819Y-110878571D02*
X134607200Y-110783333D01*
X134607200Y-110783333D02*
X134559580Y-110735714D01*
X134559580Y-110735714D02*
X134464342Y-110688095D01*
X134464342Y-110688095D02*
X134226247Y-110688095D01*
X134226247Y-110688095D02*
X134131009Y-110735714D01*
X134131009Y-110735714D02*
X134083390Y-110783333D01*
X134083390Y-110783333D02*
X134035771Y-110878571D01*
X134035771Y-110878571D02*
X134035771Y-111069047D01*
X134035771Y-111069047D02*
X134083390Y-111164285D01*
X134083390Y-111164285D02*
X134131009Y-111211904D01*
X134131009Y-111211904D02*
X134226247Y-111259523D01*
X151407142Y-99439580D02*
X151359523Y-99487200D01*
X151359523Y-99487200D02*
X151216666Y-99534819D01*
X151216666Y-99534819D02*
X151121428Y-99534819D01*
X151121428Y-99534819D02*
X150978571Y-99487200D01*
X150978571Y-99487200D02*
X150883333Y-99391961D01*
X150883333Y-99391961D02*
X150835714Y-99296723D01*
X150835714Y-99296723D02*
X150788095Y-99106247D01*
X150788095Y-99106247D02*
X150788095Y-98963390D01*
X150788095Y-98963390D02*
X150835714Y-98772914D01*
X150835714Y-98772914D02*
X150883333Y-98677676D01*
X150883333Y-98677676D02*
X150978571Y-98582438D01*
X150978571Y-98582438D02*
X151121428Y-98534819D01*
X151121428Y-98534819D02*
X151216666Y-98534819D01*
X151216666Y-98534819D02*
X151359523Y-98582438D01*
X151359523Y-98582438D02*
X151407142Y-98630057D01*
X151788095Y-98630057D02*
X151835714Y-98582438D01*
X151835714Y-98582438D02*
X151930952Y-98534819D01*
X151930952Y-98534819D02*
X152169047Y-98534819D01*
X152169047Y-98534819D02*
X152264285Y-98582438D01*
X152264285Y-98582438D02*
X152311904Y-98630057D01*
X152311904Y-98630057D02*
X152359523Y-98725295D01*
X152359523Y-98725295D02*
X152359523Y-98820533D01*
X152359523Y-98820533D02*
X152311904Y-98963390D01*
X152311904Y-98963390D02*
X151740476Y-99534819D01*
X151740476Y-99534819D02*
X152359523Y-99534819D01*
X153311904Y-99534819D02*
X152740476Y-99534819D01*
X153026190Y-99534819D02*
X153026190Y-98534819D01*
X153026190Y-98534819D02*
X152930952Y-98677676D01*
X152930952Y-98677676D02*
X152835714Y-98772914D01*
X152835714Y-98772914D02*
X152740476Y-98820533D01*
X131554819Y-112688094D02*
X130554819Y-112688094D01*
X130554819Y-112688094D02*
X130554819Y-112449999D01*
X130554819Y-112449999D02*
X130602438Y-112307142D01*
X130602438Y-112307142D02*
X130697676Y-112211904D01*
X130697676Y-112211904D02*
X130792914Y-112164285D01*
X130792914Y-112164285D02*
X130983390Y-112116666D01*
X130983390Y-112116666D02*
X131126247Y-112116666D01*
X131126247Y-112116666D02*
X131316723Y-112164285D01*
X131316723Y-112164285D02*
X131411961Y-112211904D01*
X131411961Y-112211904D02*
X131507200Y-112307142D01*
X131507200Y-112307142D02*
X131554819Y-112449999D01*
X131554819Y-112449999D02*
X131554819Y-112688094D01*
X130983390Y-111545237D02*
X130935771Y-111640475D01*
X130935771Y-111640475D02*
X130888152Y-111688094D01*
X130888152Y-111688094D02*
X130792914Y-111735713D01*
X130792914Y-111735713D02*
X130745295Y-111735713D01*
X130745295Y-111735713D02*
X130650057Y-111688094D01*
X130650057Y-111688094D02*
X130602438Y-111640475D01*
X130602438Y-111640475D02*
X130554819Y-111545237D01*
X130554819Y-111545237D02*
X130554819Y-111354761D01*
X130554819Y-111354761D02*
X130602438Y-111259523D01*
X130602438Y-111259523D02*
X130650057Y-111211904D01*
X130650057Y-111211904D02*
X130745295Y-111164285D01*
X130745295Y-111164285D02*
X130792914Y-111164285D01*
X130792914Y-111164285D02*
X130888152Y-111211904D01*
X130888152Y-111211904D02*
X130935771Y-111259523D01*
X130935771Y-111259523D02*
X130983390Y-111354761D01*
X130983390Y-111354761D02*
X130983390Y-111545237D01*
X130983390Y-111545237D02*
X131031009Y-111640475D01*
X131031009Y-111640475D02*
X131078628Y-111688094D01*
X131078628Y-111688094D02*
X131173866Y-111735713D01*
X131173866Y-111735713D02*
X131364342Y-111735713D01*
X131364342Y-111735713D02*
X131459580Y-111688094D01*
X131459580Y-111688094D02*
X131507200Y-111640475D01*
X131507200Y-111640475D02*
X131554819Y-111545237D01*
X131554819Y-111545237D02*
X131554819Y-111354761D01*
X131554819Y-111354761D02*
X131507200Y-111259523D01*
X131507200Y-111259523D02*
X131459580Y-111211904D01*
X131459580Y-111211904D02*
X131364342Y-111164285D01*
X131364342Y-111164285D02*
X131173866Y-111164285D01*
X131173866Y-111164285D02*
X131078628Y-111211904D01*
X131078628Y-111211904D02*
X131031009Y-111259523D01*
X131031009Y-111259523D02*
X130983390Y-111354761D01*
X138734642Y-74344580D02*
X138687023Y-74392200D01*
X138687023Y-74392200D02*
X138544166Y-74439819D01*
X138544166Y-74439819D02*
X138448928Y-74439819D01*
X138448928Y-74439819D02*
X138306071Y-74392200D01*
X138306071Y-74392200D02*
X138210833Y-74296961D01*
X138210833Y-74296961D02*
X138163214Y-74201723D01*
X138163214Y-74201723D02*
X138115595Y-74011247D01*
X138115595Y-74011247D02*
X138115595Y-73868390D01*
X138115595Y-73868390D02*
X138163214Y-73677914D01*
X138163214Y-73677914D02*
X138210833Y-73582676D01*
X138210833Y-73582676D02*
X138306071Y-73487438D01*
X138306071Y-73487438D02*
X138448928Y-73439819D01*
X138448928Y-73439819D02*
X138544166Y-73439819D01*
X138544166Y-73439819D02*
X138687023Y-73487438D01*
X138687023Y-73487438D02*
X138734642Y-73535057D01*
X139115595Y-73535057D02*
X139163214Y-73487438D01*
X139163214Y-73487438D02*
X139258452Y-73439819D01*
X139258452Y-73439819D02*
X139496547Y-73439819D01*
X139496547Y-73439819D02*
X139591785Y-73487438D01*
X139591785Y-73487438D02*
X139639404Y-73535057D01*
X139639404Y-73535057D02*
X139687023Y-73630295D01*
X139687023Y-73630295D02*
X139687023Y-73725533D01*
X139687023Y-73725533D02*
X139639404Y-73868390D01*
X139639404Y-73868390D02*
X139067976Y-74439819D01*
X139067976Y-74439819D02*
X139687023Y-74439819D01*
X140591785Y-73439819D02*
X140115595Y-73439819D01*
X140115595Y-73439819D02*
X140067976Y-73916009D01*
X140067976Y-73916009D02*
X140115595Y-73868390D01*
X140115595Y-73868390D02*
X140210833Y-73820771D01*
X140210833Y-73820771D02*
X140448928Y-73820771D01*
X140448928Y-73820771D02*
X140544166Y-73868390D01*
X140544166Y-73868390D02*
X140591785Y-73916009D01*
X140591785Y-73916009D02*
X140639404Y-74011247D01*
X140639404Y-74011247D02*
X140639404Y-74249342D01*
X140639404Y-74249342D02*
X140591785Y-74344580D01*
X140591785Y-74344580D02*
X140544166Y-74392200D01*
X140544166Y-74392200D02*
X140448928Y-74439819D01*
X140448928Y-74439819D02*
X140210833Y-74439819D01*
X140210833Y-74439819D02*
X140115595Y-74392200D01*
X140115595Y-74392200D02*
X140067976Y-74344580D01*
X150623333Y-44519580D02*
X150575714Y-44567200D01*
X150575714Y-44567200D02*
X150432857Y-44614819D01*
X150432857Y-44614819D02*
X150337619Y-44614819D01*
X150337619Y-44614819D02*
X150194762Y-44567200D01*
X150194762Y-44567200D02*
X150099524Y-44471961D01*
X150099524Y-44471961D02*
X150051905Y-44376723D01*
X150051905Y-44376723D02*
X150004286Y-44186247D01*
X150004286Y-44186247D02*
X150004286Y-44043390D01*
X150004286Y-44043390D02*
X150051905Y-43852914D01*
X150051905Y-43852914D02*
X150099524Y-43757676D01*
X150099524Y-43757676D02*
X150194762Y-43662438D01*
X150194762Y-43662438D02*
X150337619Y-43614819D01*
X150337619Y-43614819D02*
X150432857Y-43614819D01*
X150432857Y-43614819D02*
X150575714Y-43662438D01*
X150575714Y-43662438D02*
X150623333Y-43710057D01*
X151004286Y-43710057D02*
X151051905Y-43662438D01*
X151051905Y-43662438D02*
X151147143Y-43614819D01*
X151147143Y-43614819D02*
X151385238Y-43614819D01*
X151385238Y-43614819D02*
X151480476Y-43662438D01*
X151480476Y-43662438D02*
X151528095Y-43710057D01*
X151528095Y-43710057D02*
X151575714Y-43805295D01*
X151575714Y-43805295D02*
X151575714Y-43900533D01*
X151575714Y-43900533D02*
X151528095Y-44043390D01*
X151528095Y-44043390D02*
X150956667Y-44614819D01*
X150956667Y-44614819D02*
X151575714Y-44614819D01*
X149361905Y-41084819D02*
X149361905Y-40084819D01*
X149361905Y-40084819D02*
X149600000Y-40084819D01*
X149600000Y-40084819D02*
X149742857Y-40132438D01*
X149742857Y-40132438D02*
X149838095Y-40227676D01*
X149838095Y-40227676D02*
X149885714Y-40322914D01*
X149885714Y-40322914D02*
X149933333Y-40513390D01*
X149933333Y-40513390D02*
X149933333Y-40656247D01*
X149933333Y-40656247D02*
X149885714Y-40846723D01*
X149885714Y-40846723D02*
X149838095Y-40941961D01*
X149838095Y-40941961D02*
X149742857Y-41037200D01*
X149742857Y-41037200D02*
X149600000Y-41084819D01*
X149600000Y-41084819D02*
X149361905Y-41084819D01*
X150314286Y-40180057D02*
X150361905Y-40132438D01*
X150361905Y-40132438D02*
X150457143Y-40084819D01*
X150457143Y-40084819D02*
X150695238Y-40084819D01*
X150695238Y-40084819D02*
X150790476Y-40132438D01*
X150790476Y-40132438D02*
X150838095Y-40180057D01*
X150838095Y-40180057D02*
X150885714Y-40275295D01*
X150885714Y-40275295D02*
X150885714Y-40370533D01*
X150885714Y-40370533D02*
X150838095Y-40513390D01*
X150838095Y-40513390D02*
X150266667Y-41084819D01*
X150266667Y-41084819D02*
X150885714Y-41084819D01*
D11*
X182165405Y-39088552D02*
X182522548Y-39088552D01*
X182522548Y-39088552D02*
X182593976Y-39112361D01*
X182593976Y-39112361D02*
X182641596Y-39159980D01*
X182641596Y-39159980D02*
X182665405Y-39231409D01*
X182665405Y-39231409D02*
X182665405Y-39279028D01*
X182165405Y-38636171D02*
X182165405Y-38731409D01*
X182165405Y-38731409D02*
X182189215Y-38779028D01*
X182189215Y-38779028D02*
X182213024Y-38802838D01*
X182213024Y-38802838D02*
X182284453Y-38850457D01*
X182284453Y-38850457D02*
X182379691Y-38874266D01*
X182379691Y-38874266D02*
X182570167Y-38874266D01*
X182570167Y-38874266D02*
X182617786Y-38850457D01*
X182617786Y-38850457D02*
X182641596Y-38826647D01*
X182641596Y-38826647D02*
X182665405Y-38779028D01*
X182665405Y-38779028D02*
X182665405Y-38683790D01*
X182665405Y-38683790D02*
X182641596Y-38636171D01*
X182641596Y-38636171D02*
X182617786Y-38612362D01*
X182617786Y-38612362D02*
X182570167Y-38588552D01*
X182570167Y-38588552D02*
X182451119Y-38588552D01*
X182451119Y-38588552D02*
X182403500Y-38612362D01*
X182403500Y-38612362D02*
X182379691Y-38636171D01*
X182379691Y-38636171D02*
X182355881Y-38683790D01*
X182355881Y-38683790D02*
X182355881Y-38779028D01*
X182355881Y-38779028D02*
X182379691Y-38826647D01*
X182379691Y-38826647D02*
X182403500Y-38850457D01*
X182403500Y-38850457D02*
X182451119Y-38874266D01*
X182165405Y-38279029D02*
X182165405Y-38231410D01*
X182165405Y-38231410D02*
X182189215Y-38183791D01*
X182189215Y-38183791D02*
X182213024Y-38159981D01*
X182213024Y-38159981D02*
X182260643Y-38136172D01*
X182260643Y-38136172D02*
X182355881Y-38112362D01*
X182355881Y-38112362D02*
X182474929Y-38112362D01*
X182474929Y-38112362D02*
X182570167Y-38136172D01*
X182570167Y-38136172D02*
X182617786Y-38159981D01*
X182617786Y-38159981D02*
X182641596Y-38183791D01*
X182641596Y-38183791D02*
X182665405Y-38231410D01*
X182665405Y-38231410D02*
X182665405Y-38279029D01*
X182665405Y-38279029D02*
X182641596Y-38326648D01*
X182641596Y-38326648D02*
X182617786Y-38350457D01*
X182617786Y-38350457D02*
X182570167Y-38374267D01*
X182570167Y-38374267D02*
X182474929Y-38398076D01*
X182474929Y-38398076D02*
X182355881Y-38398076D01*
X182355881Y-38398076D02*
X182260643Y-38374267D01*
X182260643Y-38374267D02*
X182213024Y-38350457D01*
X182213024Y-38350457D02*
X182189215Y-38326648D01*
X182189215Y-38326648D02*
X182165405Y-38279029D01*
X182665405Y-37636172D02*
X182665405Y-37921886D01*
X182665405Y-37779029D02*
X182165405Y-37779029D01*
X182165405Y-37779029D02*
X182236834Y-37826648D01*
X182236834Y-37826648D02*
X182284453Y-37874267D01*
X182284453Y-37874267D02*
X182308262Y-37921886D01*
D10*
X133530833Y-64014580D02*
X133483214Y-64062200D01*
X133483214Y-64062200D02*
X133340357Y-64109819D01*
X133340357Y-64109819D02*
X133245119Y-64109819D01*
X133245119Y-64109819D02*
X133102262Y-64062200D01*
X133102262Y-64062200D02*
X133007024Y-63966961D01*
X133007024Y-63966961D02*
X132959405Y-63871723D01*
X132959405Y-63871723D02*
X132911786Y-63681247D01*
X132911786Y-63681247D02*
X132911786Y-63538390D01*
X132911786Y-63538390D02*
X132959405Y-63347914D01*
X132959405Y-63347914D02*
X133007024Y-63252676D01*
X133007024Y-63252676D02*
X133102262Y-63157438D01*
X133102262Y-63157438D02*
X133245119Y-63109819D01*
X133245119Y-63109819D02*
X133340357Y-63109819D01*
X133340357Y-63109819D02*
X133483214Y-63157438D01*
X133483214Y-63157438D02*
X133530833Y-63205057D01*
X133864167Y-63109819D02*
X134483214Y-63109819D01*
X134483214Y-63109819D02*
X134149881Y-63490771D01*
X134149881Y-63490771D02*
X134292738Y-63490771D01*
X134292738Y-63490771D02*
X134387976Y-63538390D01*
X134387976Y-63538390D02*
X134435595Y-63586009D01*
X134435595Y-63586009D02*
X134483214Y-63681247D01*
X134483214Y-63681247D02*
X134483214Y-63919342D01*
X134483214Y-63919342D02*
X134435595Y-64014580D01*
X134435595Y-64014580D02*
X134387976Y-64062200D01*
X134387976Y-64062200D02*
X134292738Y-64109819D01*
X134292738Y-64109819D02*
X134007024Y-64109819D01*
X134007024Y-64109819D02*
X133911786Y-64062200D01*
X133911786Y-64062200D02*
X133864167Y-64014580D01*
X160437319Y-106326904D02*
X161246842Y-106326904D01*
X161246842Y-106326904D02*
X161342080Y-106279285D01*
X161342080Y-106279285D02*
X161389700Y-106231666D01*
X161389700Y-106231666D02*
X161437319Y-106136428D01*
X161437319Y-106136428D02*
X161437319Y-105945952D01*
X161437319Y-105945952D02*
X161389700Y-105850714D01*
X161389700Y-105850714D02*
X161342080Y-105803095D01*
X161342080Y-105803095D02*
X161246842Y-105755476D01*
X161246842Y-105755476D02*
X160437319Y-105755476D01*
X160532557Y-105326904D02*
X160484938Y-105279285D01*
X160484938Y-105279285D02*
X160437319Y-105184047D01*
X160437319Y-105184047D02*
X160437319Y-104945952D01*
X160437319Y-104945952D02*
X160484938Y-104850714D01*
X160484938Y-104850714D02*
X160532557Y-104803095D01*
X160532557Y-104803095D02*
X160627795Y-104755476D01*
X160627795Y-104755476D02*
X160723033Y-104755476D01*
X160723033Y-104755476D02*
X160865890Y-104803095D01*
X160865890Y-104803095D02*
X161437319Y-105374523D01*
X161437319Y-105374523D02*
X161437319Y-104755476D01*
X155955833Y-97139819D02*
X155622500Y-96663628D01*
X155384405Y-97139819D02*
X155384405Y-96139819D01*
X155384405Y-96139819D02*
X155765357Y-96139819D01*
X155765357Y-96139819D02*
X155860595Y-96187438D01*
X155860595Y-96187438D02*
X155908214Y-96235057D01*
X155908214Y-96235057D02*
X155955833Y-96330295D01*
X155955833Y-96330295D02*
X155955833Y-96473152D01*
X155955833Y-96473152D02*
X155908214Y-96568390D01*
X155908214Y-96568390D02*
X155860595Y-96616009D01*
X155860595Y-96616009D02*
X155765357Y-96663628D01*
X155765357Y-96663628D02*
X155384405Y-96663628D01*
X156336786Y-96235057D02*
X156384405Y-96187438D01*
X156384405Y-96187438D02*
X156479643Y-96139819D01*
X156479643Y-96139819D02*
X156717738Y-96139819D01*
X156717738Y-96139819D02*
X156812976Y-96187438D01*
X156812976Y-96187438D02*
X156860595Y-96235057D01*
X156860595Y-96235057D02*
X156908214Y-96330295D01*
X156908214Y-96330295D02*
X156908214Y-96425533D01*
X156908214Y-96425533D02*
X156860595Y-96568390D01*
X156860595Y-96568390D02*
X156289167Y-97139819D01*
X156289167Y-97139819D02*
X156908214Y-97139819D01*
X137154819Y-94019285D02*
X136154819Y-94019285D01*
X136154819Y-94019285D02*
X136154819Y-93638333D01*
X136154819Y-93638333D02*
X136202438Y-93543095D01*
X136202438Y-93543095D02*
X136250057Y-93495476D01*
X136250057Y-93495476D02*
X136345295Y-93447857D01*
X136345295Y-93447857D02*
X136488152Y-93447857D01*
X136488152Y-93447857D02*
X136583390Y-93495476D01*
X136583390Y-93495476D02*
X136631009Y-93543095D01*
X136631009Y-93543095D02*
X136678628Y-93638333D01*
X136678628Y-93638333D02*
X136678628Y-94019285D01*
X137107200Y-93066904D02*
X137154819Y-92924047D01*
X137154819Y-92924047D02*
X137154819Y-92685952D01*
X137154819Y-92685952D02*
X137107200Y-92590714D01*
X137107200Y-92590714D02*
X137059580Y-92543095D01*
X137059580Y-92543095D02*
X136964342Y-92495476D01*
X136964342Y-92495476D02*
X136869104Y-92495476D01*
X136869104Y-92495476D02*
X136773866Y-92543095D01*
X136773866Y-92543095D02*
X136726247Y-92590714D01*
X136726247Y-92590714D02*
X136678628Y-92685952D01*
X136678628Y-92685952D02*
X136631009Y-92876428D01*
X136631009Y-92876428D02*
X136583390Y-92971666D01*
X136583390Y-92971666D02*
X136535771Y-93019285D01*
X136535771Y-93019285D02*
X136440533Y-93066904D01*
X136440533Y-93066904D02*
X136345295Y-93066904D01*
X136345295Y-93066904D02*
X136250057Y-93019285D01*
X136250057Y-93019285D02*
X136202438Y-92971666D01*
X136202438Y-92971666D02*
X136154819Y-92876428D01*
X136154819Y-92876428D02*
X136154819Y-92638333D01*
X136154819Y-92638333D02*
X136202438Y-92495476D01*
X137154819Y-91543095D02*
X137154819Y-92114523D01*
X137154819Y-91828809D02*
X136154819Y-91828809D01*
X136154819Y-91828809D02*
X136297676Y-91924047D01*
X136297676Y-91924047D02*
X136392914Y-92019285D01*
X136392914Y-92019285D02*
X136440533Y-92114523D01*
X152133333Y-48159580D02*
X152085714Y-48207200D01*
X152085714Y-48207200D02*
X151942857Y-48254819D01*
X151942857Y-48254819D02*
X151847619Y-48254819D01*
X151847619Y-48254819D02*
X151704762Y-48207200D01*
X151704762Y-48207200D02*
X151609524Y-48111961D01*
X151609524Y-48111961D02*
X151561905Y-48016723D01*
X151561905Y-48016723D02*
X151514286Y-47826247D01*
X151514286Y-47826247D02*
X151514286Y-47683390D01*
X151514286Y-47683390D02*
X151561905Y-47492914D01*
X151561905Y-47492914D02*
X151609524Y-47397676D01*
X151609524Y-47397676D02*
X151704762Y-47302438D01*
X151704762Y-47302438D02*
X151847619Y-47254819D01*
X151847619Y-47254819D02*
X151942857Y-47254819D01*
X151942857Y-47254819D02*
X152085714Y-47302438D01*
X152085714Y-47302438D02*
X152133333Y-47350057D01*
X153085714Y-48254819D02*
X152514286Y-48254819D01*
X152800000Y-48254819D02*
X152800000Y-47254819D01*
X152800000Y-47254819D02*
X152704762Y-47397676D01*
X152704762Y-47397676D02*
X152609524Y-47492914D01*
X152609524Y-47492914D02*
X152514286Y-47540533D01*
X145463333Y-69124580D02*
X145415714Y-69172200D01*
X145415714Y-69172200D02*
X145272857Y-69219819D01*
X145272857Y-69219819D02*
X145177619Y-69219819D01*
X145177619Y-69219819D02*
X145034762Y-69172200D01*
X145034762Y-69172200D02*
X144939524Y-69076961D01*
X144939524Y-69076961D02*
X144891905Y-68981723D01*
X144891905Y-68981723D02*
X144844286Y-68791247D01*
X144844286Y-68791247D02*
X144844286Y-68648390D01*
X144844286Y-68648390D02*
X144891905Y-68457914D01*
X144891905Y-68457914D02*
X144939524Y-68362676D01*
X144939524Y-68362676D02*
X145034762Y-68267438D01*
X145034762Y-68267438D02*
X145177619Y-68219819D01*
X145177619Y-68219819D02*
X145272857Y-68219819D01*
X145272857Y-68219819D02*
X145415714Y-68267438D01*
X145415714Y-68267438D02*
X145463333Y-68315057D01*
X146368095Y-68219819D02*
X145891905Y-68219819D01*
X145891905Y-68219819D02*
X145844286Y-68696009D01*
X145844286Y-68696009D02*
X145891905Y-68648390D01*
X145891905Y-68648390D02*
X145987143Y-68600771D01*
X145987143Y-68600771D02*
X146225238Y-68600771D01*
X146225238Y-68600771D02*
X146320476Y-68648390D01*
X146320476Y-68648390D02*
X146368095Y-68696009D01*
X146368095Y-68696009D02*
X146415714Y-68791247D01*
X146415714Y-68791247D02*
X146415714Y-69029342D01*
X146415714Y-69029342D02*
X146368095Y-69124580D01*
X146368095Y-69124580D02*
X146320476Y-69172200D01*
X146320476Y-69172200D02*
X146225238Y-69219819D01*
X146225238Y-69219819D02*
X145987143Y-69219819D01*
X145987143Y-69219819D02*
X145891905Y-69172200D01*
X145891905Y-69172200D02*
X145844286Y-69124580D01*
X172358095Y-121054819D02*
X172358095Y-121864342D01*
X172358095Y-121864342D02*
X172405714Y-121959580D01*
X172405714Y-121959580D02*
X172453333Y-122007200D01*
X172453333Y-122007200D02*
X172548571Y-122054819D01*
X172548571Y-122054819D02*
X172739047Y-122054819D01*
X172739047Y-122054819D02*
X172834285Y-122007200D01*
X172834285Y-122007200D02*
X172881904Y-121959580D01*
X172881904Y-121959580D02*
X172929523Y-121864342D01*
X172929523Y-121864342D02*
X172929523Y-121054819D01*
X173834285Y-121388152D02*
X173834285Y-122054819D01*
X173596190Y-121007200D02*
X173358095Y-121721485D01*
X173358095Y-121721485D02*
X173977142Y-121721485D01*
X158984819Y-80261904D02*
X159794342Y-80261904D01*
X159794342Y-80261904D02*
X159889580Y-80214285D01*
X159889580Y-80214285D02*
X159937200Y-80166666D01*
X159937200Y-80166666D02*
X159984819Y-80071428D01*
X159984819Y-80071428D02*
X159984819Y-79880952D01*
X159984819Y-79880952D02*
X159937200Y-79785714D01*
X159937200Y-79785714D02*
X159889580Y-79738095D01*
X159889580Y-79738095D02*
X159794342Y-79690476D01*
X159794342Y-79690476D02*
X158984819Y-79690476D01*
X159984819Y-78690476D02*
X159984819Y-79261904D01*
X159984819Y-78976190D02*
X158984819Y-78976190D01*
X158984819Y-78976190D02*
X159127676Y-79071428D01*
X159127676Y-79071428D02*
X159222914Y-79166666D01*
X159222914Y-79166666D02*
X159270533Y-79261904D01*
X138149580Y-88982857D02*
X138197200Y-89030476D01*
X138197200Y-89030476D02*
X138244819Y-89173333D01*
X138244819Y-89173333D02*
X138244819Y-89268571D01*
X138244819Y-89268571D02*
X138197200Y-89411428D01*
X138197200Y-89411428D02*
X138101961Y-89506666D01*
X138101961Y-89506666D02*
X138006723Y-89554285D01*
X138006723Y-89554285D02*
X137816247Y-89601904D01*
X137816247Y-89601904D02*
X137673390Y-89601904D01*
X137673390Y-89601904D02*
X137482914Y-89554285D01*
X137482914Y-89554285D02*
X137387676Y-89506666D01*
X137387676Y-89506666D02*
X137292438Y-89411428D01*
X137292438Y-89411428D02*
X137244819Y-89268571D01*
X137244819Y-89268571D02*
X137244819Y-89173333D01*
X137244819Y-89173333D02*
X137292438Y-89030476D01*
X137292438Y-89030476D02*
X137340057Y-88982857D01*
X137340057Y-88601904D02*
X137292438Y-88554285D01*
X137292438Y-88554285D02*
X137244819Y-88459047D01*
X137244819Y-88459047D02*
X137244819Y-88220952D01*
X137244819Y-88220952D02*
X137292438Y-88125714D01*
X137292438Y-88125714D02*
X137340057Y-88078095D01*
X137340057Y-88078095D02*
X137435295Y-88030476D01*
X137435295Y-88030476D02*
X137530533Y-88030476D01*
X137530533Y-88030476D02*
X137673390Y-88078095D01*
X137673390Y-88078095D02*
X138244819Y-88649523D01*
X138244819Y-88649523D02*
X138244819Y-88030476D01*
X137578152Y-87173333D02*
X138244819Y-87173333D01*
X137197200Y-87411428D02*
X137911485Y-87649523D01*
X137911485Y-87649523D02*
X137911485Y-87030476D01*
X134083333Y-84089580D02*
X134035714Y-84137200D01*
X134035714Y-84137200D02*
X133892857Y-84184819D01*
X133892857Y-84184819D02*
X133797619Y-84184819D01*
X133797619Y-84184819D02*
X133654762Y-84137200D01*
X133654762Y-84137200D02*
X133559524Y-84041961D01*
X133559524Y-84041961D02*
X133511905Y-83946723D01*
X133511905Y-83946723D02*
X133464286Y-83756247D01*
X133464286Y-83756247D02*
X133464286Y-83613390D01*
X133464286Y-83613390D02*
X133511905Y-83422914D01*
X133511905Y-83422914D02*
X133559524Y-83327676D01*
X133559524Y-83327676D02*
X133654762Y-83232438D01*
X133654762Y-83232438D02*
X133797619Y-83184819D01*
X133797619Y-83184819D02*
X133892857Y-83184819D01*
X133892857Y-83184819D02*
X134035714Y-83232438D01*
X134035714Y-83232438D02*
X134083333Y-83280057D01*
X134940476Y-83184819D02*
X134750000Y-83184819D01*
X134750000Y-83184819D02*
X134654762Y-83232438D01*
X134654762Y-83232438D02*
X134607143Y-83280057D01*
X134607143Y-83280057D02*
X134511905Y-83422914D01*
X134511905Y-83422914D02*
X134464286Y-83613390D01*
X134464286Y-83613390D02*
X134464286Y-83994342D01*
X134464286Y-83994342D02*
X134511905Y-84089580D01*
X134511905Y-84089580D02*
X134559524Y-84137200D01*
X134559524Y-84137200D02*
X134654762Y-84184819D01*
X134654762Y-84184819D02*
X134845238Y-84184819D01*
X134845238Y-84184819D02*
X134940476Y-84137200D01*
X134940476Y-84137200D02*
X134988095Y-84089580D01*
X134988095Y-84089580D02*
X135035714Y-83994342D01*
X135035714Y-83994342D02*
X135035714Y-83756247D01*
X135035714Y-83756247D02*
X134988095Y-83661009D01*
X134988095Y-83661009D02*
X134940476Y-83613390D01*
X134940476Y-83613390D02*
X134845238Y-83565771D01*
X134845238Y-83565771D02*
X134654762Y-83565771D01*
X134654762Y-83565771D02*
X134559524Y-83613390D01*
X134559524Y-83613390D02*
X134511905Y-83661009D01*
X134511905Y-83661009D02*
X134464286Y-83756247D01*
X187394285Y-108704819D02*
X187394285Y-109419104D01*
X187394285Y-109419104D02*
X187346666Y-109561961D01*
X187346666Y-109561961D02*
X187251428Y-109657200D01*
X187251428Y-109657200D02*
X187108571Y-109704819D01*
X187108571Y-109704819D02*
X187013333Y-109704819D01*
X188299047Y-109038152D02*
X188299047Y-109704819D01*
X188060952Y-108657200D02*
X187822857Y-109371485D01*
X187822857Y-109371485D02*
X188441904Y-109371485D01*
X189013333Y-108704819D02*
X189108571Y-108704819D01*
X189108571Y-108704819D02*
X189203809Y-108752438D01*
X189203809Y-108752438D02*
X189251428Y-108800057D01*
X189251428Y-108800057D02*
X189299047Y-108895295D01*
X189299047Y-108895295D02*
X189346666Y-109085771D01*
X189346666Y-109085771D02*
X189346666Y-109323866D01*
X189346666Y-109323866D02*
X189299047Y-109514342D01*
X189299047Y-109514342D02*
X189251428Y-109609580D01*
X189251428Y-109609580D02*
X189203809Y-109657200D01*
X189203809Y-109657200D02*
X189108571Y-109704819D01*
X189108571Y-109704819D02*
X189013333Y-109704819D01*
X189013333Y-109704819D02*
X188918095Y-109657200D01*
X188918095Y-109657200D02*
X188870476Y-109609580D01*
X188870476Y-109609580D02*
X188822857Y-109514342D01*
X188822857Y-109514342D02*
X188775238Y-109323866D01*
X188775238Y-109323866D02*
X188775238Y-109085771D01*
X188775238Y-109085771D02*
X188822857Y-108895295D01*
X188822857Y-108895295D02*
X188870476Y-108800057D01*
X188870476Y-108800057D02*
X188918095Y-108752438D01*
X188918095Y-108752438D02*
X189013333Y-108704819D01*
X190299047Y-109704819D02*
X189727619Y-109704819D01*
X190013333Y-109704819D02*
X190013333Y-108704819D01*
X190013333Y-108704819D02*
X189918095Y-108847676D01*
X189918095Y-108847676D02*
X189822857Y-108942914D01*
X189822857Y-108942914D02*
X189727619Y-108990533D01*
X135641666Y-94739819D02*
X135641666Y-95454104D01*
X135641666Y-95454104D02*
X135594047Y-95596961D01*
X135594047Y-95596961D02*
X135498809Y-95692200D01*
X135498809Y-95692200D02*
X135355952Y-95739819D01*
X135355952Y-95739819D02*
X135260714Y-95739819D01*
X136641666Y-95739819D02*
X136070238Y-95739819D01*
X136355952Y-95739819D02*
X136355952Y-94739819D01*
X136355952Y-94739819D02*
X136260714Y-94882676D01*
X136260714Y-94882676D02*
X136165476Y-94977914D01*
X136165476Y-94977914D02*
X136070238Y-95025533D01*
X164750952Y-97519580D02*
X164703333Y-97567200D01*
X164703333Y-97567200D02*
X164560476Y-97614819D01*
X164560476Y-97614819D02*
X164465238Y-97614819D01*
X164465238Y-97614819D02*
X164322381Y-97567200D01*
X164322381Y-97567200D02*
X164227143Y-97471961D01*
X164227143Y-97471961D02*
X164179524Y-97376723D01*
X164179524Y-97376723D02*
X164131905Y-97186247D01*
X164131905Y-97186247D02*
X164131905Y-97043390D01*
X164131905Y-97043390D02*
X164179524Y-96852914D01*
X164179524Y-96852914D02*
X164227143Y-96757676D01*
X164227143Y-96757676D02*
X164322381Y-96662438D01*
X164322381Y-96662438D02*
X164465238Y-96614819D01*
X164465238Y-96614819D02*
X164560476Y-96614819D01*
X164560476Y-96614819D02*
X164703333Y-96662438D01*
X164703333Y-96662438D02*
X164750952Y-96710057D01*
X165608095Y-96948152D02*
X165608095Y-97614819D01*
X165370000Y-96567200D02*
X165131905Y-97281485D01*
X165131905Y-97281485D02*
X165750952Y-97281485D01*
X166322381Y-96614819D02*
X166417619Y-96614819D01*
X166417619Y-96614819D02*
X166512857Y-96662438D01*
X166512857Y-96662438D02*
X166560476Y-96710057D01*
X166560476Y-96710057D02*
X166608095Y-96805295D01*
X166608095Y-96805295D02*
X166655714Y-96995771D01*
X166655714Y-96995771D02*
X166655714Y-97233866D01*
X166655714Y-97233866D02*
X166608095Y-97424342D01*
X166608095Y-97424342D02*
X166560476Y-97519580D01*
X166560476Y-97519580D02*
X166512857Y-97567200D01*
X166512857Y-97567200D02*
X166417619Y-97614819D01*
X166417619Y-97614819D02*
X166322381Y-97614819D01*
X166322381Y-97614819D02*
X166227143Y-97567200D01*
X166227143Y-97567200D02*
X166179524Y-97519580D01*
X166179524Y-97519580D02*
X166131905Y-97424342D01*
X166131905Y-97424342D02*
X166084286Y-97233866D01*
X166084286Y-97233866D02*
X166084286Y-96995771D01*
X166084286Y-96995771D02*
X166131905Y-96805295D01*
X166131905Y-96805295D02*
X166179524Y-96710057D01*
X166179524Y-96710057D02*
X166227143Y-96662438D01*
X166227143Y-96662438D02*
X166322381Y-96614819D01*
X167036667Y-96710057D02*
X167084286Y-96662438D01*
X167084286Y-96662438D02*
X167179524Y-96614819D01*
X167179524Y-96614819D02*
X167417619Y-96614819D01*
X167417619Y-96614819D02*
X167512857Y-96662438D01*
X167512857Y-96662438D02*
X167560476Y-96710057D01*
X167560476Y-96710057D02*
X167608095Y-96805295D01*
X167608095Y-96805295D02*
X167608095Y-96900533D01*
X167608095Y-96900533D02*
X167560476Y-97043390D01*
X167560476Y-97043390D02*
X166989048Y-97614819D01*
X166989048Y-97614819D02*
X167608095Y-97614819D01*
X141129405Y-69349819D02*
X141129405Y-68349819D01*
X141129405Y-68349819D02*
X141367500Y-68349819D01*
X141367500Y-68349819D02*
X141510357Y-68397438D01*
X141510357Y-68397438D02*
X141605595Y-68492676D01*
X141605595Y-68492676D02*
X141653214Y-68587914D01*
X141653214Y-68587914D02*
X141700833Y-68778390D01*
X141700833Y-68778390D02*
X141700833Y-68921247D01*
X141700833Y-68921247D02*
X141653214Y-69111723D01*
X141653214Y-69111723D02*
X141605595Y-69206961D01*
X141605595Y-69206961D02*
X141510357Y-69302200D01*
X141510357Y-69302200D02*
X141367500Y-69349819D01*
X141367500Y-69349819D02*
X141129405Y-69349819D01*
X142653214Y-69349819D02*
X142081786Y-69349819D01*
X142367500Y-69349819D02*
X142367500Y-68349819D01*
X142367500Y-68349819D02*
X142272262Y-68492676D01*
X142272262Y-68492676D02*
X142177024Y-68587914D01*
X142177024Y-68587914D02*
X142081786Y-68635533D01*
X131289580Y-71661666D02*
X131337200Y-71709285D01*
X131337200Y-71709285D02*
X131384819Y-71852142D01*
X131384819Y-71852142D02*
X131384819Y-71947380D01*
X131384819Y-71947380D02*
X131337200Y-72090237D01*
X131337200Y-72090237D02*
X131241961Y-72185475D01*
X131241961Y-72185475D02*
X131146723Y-72233094D01*
X131146723Y-72233094D02*
X130956247Y-72280713D01*
X130956247Y-72280713D02*
X130813390Y-72280713D01*
X130813390Y-72280713D02*
X130622914Y-72233094D01*
X130622914Y-72233094D02*
X130527676Y-72185475D01*
X130527676Y-72185475D02*
X130432438Y-72090237D01*
X130432438Y-72090237D02*
X130384819Y-71947380D01*
X130384819Y-71947380D02*
X130384819Y-71852142D01*
X130384819Y-71852142D02*
X130432438Y-71709285D01*
X130432438Y-71709285D02*
X130480057Y-71661666D01*
X130718152Y-70804523D02*
X131384819Y-70804523D01*
X130337200Y-71042618D02*
X131051485Y-71280713D01*
X131051485Y-71280713D02*
X131051485Y-70661666D01*
D12*
%TO.C,Y401*%
X181725000Y-93535000D02*
X181725000Y-99785000D01*
X186595000Y-93535000D02*
X186595000Y-99785000D01*
X181725000Y-93535000D02*
G75*
G02*
X186595000Y-93535000I2435000J0D01*
G01*
X186595000Y-99785000D02*
G75*
G02*
X181725000Y-99785000I-2435000J0D01*
G01*
%TO.C,U3*%
X142820000Y-54255000D02*
X142820000Y-64475000D01*
X142820000Y-54255000D02*
X158690000Y-54255000D01*
X142820000Y-56340000D02*
X140380000Y-56340000D01*
X142820000Y-57310000D02*
X140380000Y-57310000D01*
X142820000Y-58880000D02*
X140380000Y-58880000D01*
X142820000Y-59850000D02*
X140380000Y-59850000D01*
X142820000Y-61420000D02*
X140380000Y-61420000D01*
X142820000Y-62390000D02*
X140380000Y-62390000D01*
X142820000Y-64475000D02*
X158690000Y-64475000D01*
X158690000Y-54255000D02*
X158690000Y-64475000D01*
%TO.C,C401*%
X166111252Y-100665000D02*
X165588748Y-100665000D01*
X166111252Y-102135000D02*
X165588748Y-102135000D01*
%TO.C,PS501*%
X152752500Y-93872500D02*
X152752500Y-94872500D01*
X152752500Y-94872500D02*
X153752500Y-94872500D01*
X153007500Y-86227500D02*
X153007500Y-94617500D01*
X153007500Y-86227500D02*
X167397500Y-86227500D01*
X153007500Y-94617500D02*
X167397500Y-94617500D01*
X167397500Y-86227500D02*
X167397500Y-94617500D01*
%TO.C,J602*%
X144470000Y-28038000D02*
X144470000Y-18409000D01*
X144470000Y-39368000D02*
X144470000Y-30378000D01*
X144470000Y-39368000D02*
X159970000Y-39368000D01*
X159970000Y-18418000D02*
X144470000Y-18418000D01*
X159970000Y-28048000D02*
X159972000Y-18409000D01*
X159970000Y-39368000D02*
X159970000Y-30368000D01*
%TO.C,Y201*%
X181795000Y-71855000D02*
X181795000Y-78105000D01*
X186665000Y-71855000D02*
X186665000Y-78105000D01*
X181795000Y-71855000D02*
G75*
G02*
X186665000Y-71855000I2435000J0D01*
G01*
X186665000Y-78105000D02*
G75*
G02*
X181795000Y-78105000I-2435000J0D01*
G01*
%TO.C,R16*%
X135115000Y-112177064D02*
X135115000Y-111722936D01*
X136585000Y-112177064D02*
X136585000Y-111722936D01*
%TO.C,C21*%
X152311252Y-96665000D02*
X151788748Y-96665000D01*
X152311252Y-98135000D02*
X151788748Y-98135000D01*
%TO.C,D8*%
X131790000Y-110950000D02*
X131790000Y-113810000D01*
X131790000Y-113810000D02*
X133710000Y-113810000D01*
X133710000Y-113810000D02*
X133710000Y-110950000D01*
%TO.C,C25*%
X136377500Y-73145000D02*
X143317500Y-73145000D01*
X143317500Y-69725000D02*
X136377500Y-69725000D01*
X143317500Y-73145000D02*
X143317500Y-69725000D01*
%TO.C,C2*%
X150528748Y-45105000D02*
X151051252Y-45105000D01*
X150528748Y-46575000D02*
X151051252Y-46575000D01*
%TO.C,D2*%
X145440000Y-41520000D02*
X145440000Y-43740000D01*
X145440000Y-43740000D02*
X152850000Y-43740000D01*
X152850000Y-41520000D02*
X145440000Y-41520000D01*
%TO.C,J601*%
X165875000Y-28020000D02*
X165875000Y-18391000D01*
X165875000Y-39350000D02*
X165875000Y-30360000D01*
X165875000Y-39350000D02*
X181375000Y-39350000D01*
X181375000Y-18400000D02*
X165875000Y-18400000D01*
X181375000Y-28030000D02*
X181377000Y-18391000D01*
X181375000Y-39350000D02*
X181375000Y-30350000D01*
%TO.C,C3*%
X133958752Y-61240000D02*
X133436248Y-61240000D01*
X133958752Y-62710000D02*
X133436248Y-62710000D01*
%TO.C,U2*%
X142082500Y-102915000D02*
X142082500Y-108215000D01*
X142082500Y-108215000D02*
X159982500Y-108215000D01*
X159982500Y-102915000D02*
X142082500Y-102915000D01*
X159982500Y-104565000D02*
X159982500Y-102915000D01*
X159982500Y-108215000D02*
X159982500Y-106565000D01*
X159982500Y-106565000D02*
G75*
G02*
X159982500Y-104565000I0J1000000D01*
G01*
%TO.C,R2*%
X155895436Y-97600000D02*
X156349564Y-97600000D01*
X155895436Y-99070000D02*
X156349564Y-99070000D01*
%TO.C,PS1*%
X137790000Y-93875000D02*
X137790000Y-94875000D01*
X137790000Y-94875000D02*
X138790000Y-94875000D01*
X138045000Y-86230000D02*
X138045000Y-94620000D01*
X138045000Y-86230000D02*
X152435000Y-86230000D01*
X138045000Y-94620000D02*
X152435000Y-94620000D01*
X152435000Y-86230000D02*
X152435000Y-94620000D01*
%TO.C,C1*%
X148360000Y-48640000D02*
X148360000Y-52060000D01*
X148360000Y-52060000D02*
X155300000Y-52060000D01*
X155300000Y-48640000D02*
X148360000Y-48640000D01*
%TO.C,C5*%
X145368748Y-69710000D02*
X145891252Y-69710000D01*
X145368748Y-71180000D02*
X145891252Y-71180000D01*
%TO.C,U4*%
X170470000Y-84920000D02*
X170470000Y-120600000D01*
X170470000Y-120600000D02*
X172120000Y-120600000D01*
X174120000Y-120600000D02*
X175770000Y-120600000D01*
X175770000Y-84920000D02*
X170470000Y-84920000D01*
X175770000Y-120600000D02*
X175770000Y-84920000D01*
X172120000Y-120600000D02*
G75*
G02*
X174120000Y-120600000I1000000J0D01*
G01*
%TO.C,U1*%
X142820000Y-74390000D02*
X142820000Y-84610000D01*
X142820000Y-74390000D02*
X158690000Y-74390000D01*
X142820000Y-76475000D02*
X140380000Y-76475000D01*
X142820000Y-77445000D02*
X140380000Y-77445000D01*
X142820000Y-79015000D02*
X140380000Y-79015000D01*
X142820000Y-79985000D02*
X140380000Y-79985000D01*
X142820000Y-81555000D02*
X140380000Y-81555000D01*
X142820000Y-82525000D02*
X140380000Y-82525000D01*
X142820000Y-84610000D02*
X158690000Y-84610000D01*
X158690000Y-74390000D02*
X158690000Y-84610000D01*
%TO.C,C24*%
X133530000Y-84400000D02*
X133530000Y-91340000D01*
X136950000Y-84400000D02*
X133530000Y-84400000D01*
X136950000Y-91340000D02*
X136950000Y-84400000D01*
%TO.C,C6*%
X134511252Y-81315000D02*
X133988748Y-81315000D01*
X134511252Y-82785000D02*
X133988748Y-82785000D01*
%TO.C,J401*%
X187300000Y-110250000D02*
X188680000Y-110250000D01*
X187300000Y-111630000D02*
X187300000Y-110250000D01*
X187300000Y-112900000D02*
X187300000Y-120630000D01*
X187300000Y-112900000D02*
X190060000Y-112900000D01*
X187300000Y-120630000D02*
X190060000Y-120630000D01*
X190060000Y-112900000D02*
X190060000Y-120630000D01*
%TO.C,J1*%
X134595000Y-96285000D02*
X135975000Y-96285000D01*
X134595000Y-97665000D02*
X134595000Y-96285000D01*
X134595000Y-98935000D02*
X134595000Y-106665000D01*
X134595000Y-98935000D02*
X137355000Y-98935000D01*
X134595000Y-106665000D02*
X137355000Y-106665000D01*
X137355000Y-98935000D02*
X137355000Y-106665000D01*
%TO.C,C402*%
X165608748Y-98105000D02*
X166131252Y-98105000D01*
X165608748Y-99575000D02*
X166131252Y-99575000D01*
%TO.C,D1*%
X139117500Y-68005000D02*
X146527500Y-68005000D01*
X146527500Y-65785000D02*
X139117500Y-65785000D01*
X146527500Y-68005000D02*
X146527500Y-65785000D01*
%TO.C,C4*%
X131810000Y-65165000D02*
X131810000Y-72105000D01*
X135230000Y-65165000D02*
X131810000Y-65165000D01*
X135230000Y-72105000D02*
X135230000Y-65165000D01*
%TD*%
D13*
%TO.C,J602*%
X157935000Y-29208000D03*
X146505000Y-29208000D03*
%TD*%
%TO.C,J601*%
X179340000Y-29190000D03*
X167910000Y-29190000D03*
%TD*%
M02*
