%TF.GenerationSoftware,KiCad,Pcbnew,9.0.2-9.0.2-0~ubuntu24.04.1*%
%TF.CreationDate,2025-09-23T14:37:53-03:00*%
%TF.ProjectId,MSC25,4d534332-352e-46b6-9963-61645f706362,rev?*%
%TF.SameCoordinates,Original*%
%TF.FileFunction,Copper,L2,Bot*%
%TF.FilePolarity,Positive*%
%FSLAX46Y46*%
G04 Gerber Fmt 4.6, Leading zero omitted, Abs format (unit mm)*
G04 Created by KiCad (PCBNEW 9.0.2-9.0.2-0~ubuntu24.04.1) date 2025-09-23 14:37:53*
%MOMM*%
%LPD*%
G01*
G04 APERTURE LIST*
G04 Aperture macros list*
%AMRoundRect*
0 Rectangle with rounded corners*
0 $1 Rounding radius*
0 $2 $3 $4 $5 $6 $7 $8 $9 X,Y pos of 4 corners*
0 Add a 4 corners polygon primitive as box body*
4,1,4,$2,$3,$4,$5,$6,$7,$8,$9,$2,$3,0*
0 Add four circle primitives for the rounded corners*
1,1,$1+$1,$2,$3*
1,1,$1+$1,$4,$5*
1,1,$1+$1,$6,$7*
1,1,$1+$1,$8,$9*
0 Add four rect primitives between the rounded corners*
20,1,$1+$1,$2,$3,$4,$5,0*
20,1,$1+$1,$4,$5,$6,$7,0*
20,1,$1+$1,$6,$7,$8,$9,0*
20,1,$1+$1,$8,$9,$2,$3,0*%
G04 Aperture macros list end*
%TA.AperFunction,ComponentPad*%
%ADD10C,1.500000*%
%TD*%
%TA.AperFunction,ComponentPad*%
%ADD11R,2.000000X1.905000*%
%TD*%
%TA.AperFunction,ComponentPad*%
%ADD12O,2.000000X1.905000*%
%TD*%
%TA.AperFunction,ComponentPad*%
%ADD13R,1.750000X2.250000*%
%TD*%
%TA.AperFunction,ComponentPad*%
%ADD14O,1.750000X2.250000*%
%TD*%
%TA.AperFunction,WasherPad*%
%ADD15C,3.650000*%
%TD*%
%TA.AperFunction,ComponentPad*%
%ADD16R,1.500000X1.500000*%
%TD*%
%TA.AperFunction,ComponentPad*%
%ADD17C,2.500000*%
%TD*%
%TA.AperFunction,ComponentPad*%
%ADD18RoundRect,0.250000X-0.550000X0.550000X-0.550000X-0.550000X0.550000X-0.550000X0.550000X0.550000X0*%
%TD*%
%TA.AperFunction,ComponentPad*%
%ADD19C,1.600000*%
%TD*%
%TA.AperFunction,ComponentPad*%
%ADD20RoundRect,0.250000X0.550000X0.550000X-0.550000X0.550000X-0.550000X-0.550000X0.550000X-0.550000X0*%
%TD*%
%TA.AperFunction,ComponentPad*%
%ADD21R,1.700000X1.700000*%
%TD*%
%TA.AperFunction,ComponentPad*%
%ADD22C,1.700000*%
%TD*%
%TA.AperFunction,SMDPad,CuDef*%
%ADD23C,1.500000*%
%TD*%
%TA.AperFunction,SMDPad,CuDef*%
%ADD24RoundRect,0.250000X-0.350000X-0.450000X0.350000X-0.450000X0.350000X0.450000X-0.350000X0.450000X0*%
%TD*%
%TA.AperFunction,SMDPad,CuDef*%
%ADD25RoundRect,0.200000X0.200000X-0.750000X0.200000X0.750000X-0.200000X0.750000X-0.200000X-0.750000X0*%
%TD*%
%TA.AperFunction,SMDPad,CuDef*%
%ADD26RoundRect,0.250000X0.450000X-0.350000X0.450000X0.350000X-0.450000X0.350000X-0.450000X-0.350000X0*%
%TD*%
%TA.AperFunction,SMDPad,CuDef*%
%ADD27RoundRect,0.250000X-0.337500X-0.475000X0.337500X-0.475000X0.337500X0.475000X-0.337500X0.475000X0*%
%TD*%
%TA.AperFunction,SMDPad,CuDef*%
%ADD28RoundRect,0.250000X0.350000X0.450000X-0.350000X0.450000X-0.350000X-0.450000X0.350000X-0.450000X0*%
%TD*%
%TA.AperFunction,SMDPad,CuDef*%
%ADD29RoundRect,0.150000X0.875000X0.150000X-0.875000X0.150000X-0.875000X-0.150000X0.875000X-0.150000X0*%
%TD*%
%TA.AperFunction,SMDPad,CuDef*%
%ADD30RoundRect,0.250000X0.337500X0.475000X-0.337500X0.475000X-0.337500X-0.475000X0.337500X-0.475000X0*%
%TD*%
%TA.AperFunction,SMDPad,CuDef*%
%ADD31RoundRect,0.250000X1.400000X0.600000X-1.400000X0.600000X-1.400000X-0.600000X1.400000X-0.600000X0*%
%TD*%
%TA.AperFunction,SMDPad,CuDef*%
%ADD32RoundRect,0.150000X0.825000X0.150000X-0.825000X0.150000X-0.825000X-0.150000X0.825000X-0.150000X0*%
%TD*%
%TA.AperFunction,SMDPad,CuDef*%
%ADD33RoundRect,0.250000X-0.475000X0.337500X-0.475000X-0.337500X0.475000X-0.337500X0.475000X0.337500X0*%
%TD*%
%TA.AperFunction,ViaPad*%
%ADD34C,0.800000*%
%TD*%
%TA.AperFunction,Conductor*%
%ADD35C,0.750000*%
%TD*%
%TA.AperFunction,Conductor*%
%ADD36C,0.500000*%
%TD*%
G04 APERTURE END LIST*
D10*
%TO.P,Y401,1,1*%
%TO.N,Net-(U4-XTAL2{slash}PB7)*%
X184160000Y-94220000D03*
%TO.P,Y401,2,2*%
%TO.N,Net-(U4-XTAL1{slash}PB6)*%
X184160000Y-99100000D03*
%TD*%
D11*
%TO.P,U3,1,VI*%
%TO.N,Net-(D2-K)*%
X139120000Y-56825000D03*
D12*
%TO.P,U3,2,GND*%
%TO.N,GND*%
X139120000Y-59365000D03*
%TO.P,U3,3,VO*%
%TO.N,+12V*%
X139120000Y-61905000D03*
%TD*%
D13*
%TO.P,PS501,1,-Vin*%
%TO.N,GND*%
X156392500Y-93272500D03*
D14*
%TO.P,PS501,2,+Vin*%
%TO.N,+5V*%
X158932500Y-93272500D03*
%TO.P,PS501,3,-Vout*%
%TO.N,GND*%
X161472500Y-93272500D03*
%TO.P,PS501,4,+Vout*%
%TO.N,-15V*%
X164012500Y-93272500D03*
%TD*%
D15*
%TO.P,J602,*%
%TO.N,*%
X157935000Y-29208000D03*
X146505000Y-29208000D03*
D16*
%TO.P,J602,1*%
%TO.N,/CANBUS CONN/CAN_H*%
X156665000Y-35558000D03*
D10*
%TO.P,J602,2*%
%TO.N,/CANBUS CONN/CAN_L*%
X155395000Y-38098000D03*
%TO.P,J602,3*%
%TO.N,GND*%
X154125000Y-35558000D03*
%TO.P,J602,4*%
%TO.N,/CANBUS CONN/CAN_18V*%
X152855000Y-38098000D03*
%TO.P,J602,5*%
X151585000Y-35558000D03*
%TO.P,J602,6*%
%TO.N,GND*%
X150315000Y-38098000D03*
%TO.P,J602,7*%
X149045000Y-35558000D03*
%TO.P,J602,8*%
X147775000Y-38098000D03*
D17*
%TO.P,J602,9*%
%TO.N,N/C*%
X159970000Y-32258000D03*
X144470000Y-32258000D03*
%TD*%
D10*
%TO.P,Y201,1,1*%
%TO.N,Net-(U202-OSC2)*%
X184230000Y-72540000D03*
%TO.P,Y201,2,2*%
%TO.N,Net-(U202-OSC1)*%
X184230000Y-77420000D03*
%TD*%
D15*
%TO.P,J601,*%
%TO.N,*%
X179340000Y-29190000D03*
X167910000Y-29190000D03*
D16*
%TO.P,J601,1*%
%TO.N,/CANBUS CONN/CAN_H*%
X178070000Y-35540000D03*
D10*
%TO.P,J601,2*%
%TO.N,/CANBUS CONN/CAN_L*%
X176800000Y-38080000D03*
%TO.P,J601,3*%
%TO.N,GND*%
X175530000Y-35540000D03*
%TO.P,J601,4*%
%TO.N,/CANBUS CONN/CAN_18V*%
X174260000Y-38080000D03*
%TO.P,J601,5*%
X172990000Y-35540000D03*
%TO.P,J601,6*%
%TO.N,GND*%
X171720000Y-38080000D03*
%TO.P,J601,7*%
X170450000Y-35540000D03*
%TO.P,J601,8*%
X169180000Y-38080000D03*
D17*
%TO.P,J601,9*%
%TO.N,N/C*%
X181375000Y-32240000D03*
X165875000Y-32240000D03*
%TD*%
D18*
%TO.P,U2,1*%
%TO.N,Net-(U2B--)*%
X158652500Y-101755000D03*
D19*
%TO.P,U2,2,-*%
%TO.N,+1\u002C67V*%
X156112500Y-101755000D03*
%TO.P,U2,3,+*%
%TO.N,Net-(U2A-+)*%
X153572500Y-101755000D03*
%TO.P,U2,4,V+*%
%TO.N,+12V*%
X151032500Y-101755000D03*
%TO.P,U2,5,+*%
%TO.N,/Analog/S*%
X148492500Y-101755000D03*
%TO.P,U2,6,-*%
%TO.N,Net-(U2B--)*%
X145952500Y-101755000D03*
%TO.P,U2,7*%
%TO.N,/Analog/S*%
X143412500Y-101755000D03*
%TO.P,U2,8*%
%TO.N,N/C*%
X143412500Y-109375000D03*
%TO.P,U2,9*%
X145952500Y-109375000D03*
%TO.P,U2,10*%
X148492500Y-109375000D03*
%TO.P,U2,11,V-*%
%TO.N,GND*%
X151032500Y-109375000D03*
%TO.P,U2,12*%
%TO.N,N/C*%
X153572500Y-109375000D03*
%TO.P,U2,13*%
X156112500Y-109375000D03*
%TO.P,U2,14*%
X158652500Y-109375000D03*
%TD*%
D13*
%TO.P,PS1,1,-Vin*%
%TO.N,GND*%
X141430000Y-93275000D03*
D14*
%TO.P,PS1,2,+Vin*%
%TO.N,+5V*%
X143970000Y-93275000D03*
%TO.P,PS1,3,-Vout*%
%TO.N,+15V*%
X146510000Y-93275000D03*
%TO.P,PS1,4,+Vout*%
%TO.N,GND*%
X149050000Y-93275000D03*
%TD*%
D20*
%TO.P,U4,1,~{RESET}/PC6*%
%TO.N,Net-(U4-~{RESET}{slash}PC6)*%
X176930000Y-119270000D03*
D19*
%TO.P,U4,2,PD0*%
%TO.N,/MCU/USART_RX*%
X176930000Y-116730000D03*
%TO.P,U4,3,PD1*%
%TO.N,/MCU/USART_TX*%
X176930000Y-114190000D03*
%TO.P,U4,4,PD2*%
%TO.N,unconnected-(U4-PD2-Pad4)*%
X176930000Y-111650000D03*
%TO.P,U4,5,PD3*%
%TO.N,unconnected-(U4-PD3-Pad5)*%
X176930000Y-109110000D03*
%TO.P,U4,6,PD4*%
%TO.N,unconnected-(U4-PD4-Pad6)*%
X176930000Y-106570000D03*
%TO.P,U4,7,VCC*%
%TO.N,+5V*%
X176930000Y-104030000D03*
%TO.P,U4,8,GND*%
%TO.N,GND*%
X176930000Y-101490000D03*
%TO.P,U4,9,XTAL1/PB6*%
%TO.N,Net-(U4-XTAL1{slash}PB6)*%
X176930000Y-98950000D03*
%TO.P,U4,10,XTAL2/PB7*%
%TO.N,Net-(U4-XTAL2{slash}PB7)*%
X176930000Y-96410000D03*
%TO.P,U4,11,PD5*%
%TO.N,unconnected-(U4-PD5-Pad11)*%
X176930000Y-93870000D03*
%TO.P,U4,12,PD6*%
%TO.N,unconnected-(U4-PD6-Pad12)*%
X176930000Y-91330000D03*
%TO.P,U4,13,PD7*%
%TO.N,unconnected-(U4-PD7-Pad13)*%
X176930000Y-88790000D03*
%TO.P,U4,14,PB0*%
%TO.N,/MCU/MCP_SS*%
X176930000Y-86250000D03*
%TO.P,U4,15,PB1*%
%TO.N,/MCU/MCP_INT*%
X169310000Y-86250000D03*
%TO.P,U4,16,PB2*%
%TO.N,unconnected-(U4-PB2-Pad16)*%
X169310000Y-88790000D03*
%TO.P,U4,17,PB3*%
%TO.N,/MCU/SPI_MOSI*%
X169310000Y-91330000D03*
%TO.P,U4,18,PB4*%
%TO.N,/MCU/SPI_MISO*%
X169310000Y-93870000D03*
%TO.P,U4,19,PB5*%
%TO.N,/MCU/SPI_SCK*%
X169310000Y-96410000D03*
%TO.P,U4,20,AVCC*%
%TO.N,+5V*%
X169310000Y-98950000D03*
%TO.P,U4,21,AREF*%
X169310000Y-101490000D03*
%TO.P,U4,22,GND*%
%TO.N,GND*%
X169310000Y-104030000D03*
%TO.P,U4,23,PC0*%
%TO.N,/Analog/S*%
X169310000Y-106570000D03*
%TO.P,U4,24,PC1*%
%TO.N,unconnected-(U4-PC1-Pad24)*%
X169310000Y-109110000D03*
%TO.P,U4,25,PC2*%
%TO.N,unconnected-(U4-PC2-Pad25)*%
X169310000Y-111650000D03*
%TO.P,U4,26,PC3*%
%TO.N,unconnected-(U4-PC3-Pad26)*%
X169310000Y-114190000D03*
%TO.P,U4,27,PC4*%
%TO.N,unconnected-(U4-PC4-Pad27)*%
X169310000Y-116730000D03*
%TO.P,U4,28,PC5*%
%TO.N,Net-(U4-PC5)*%
X169310000Y-119270000D03*
%TD*%
D11*
%TO.P,U1,1,VI*%
%TO.N,Net-(D1-K)*%
X139120000Y-76960000D03*
D12*
%TO.P,U1,2,GND*%
%TO.N,GND*%
X139120000Y-79500000D03*
%TO.P,U1,3,VO*%
%TO.N,+5V*%
X139120000Y-82040000D03*
%TD*%
D21*
%TO.P,J401,1,Pin_1*%
%TO.N,GND*%
X188680000Y-111630000D03*
D22*
%TO.P,J401,2,Pin_2*%
%TO.N,Net-(J401-Pin_2)*%
X188680000Y-114170000D03*
%TO.P,J401,3,Pin_3*%
%TO.N,Net-(J401-Pin_3)*%
X188680000Y-116710000D03*
%TO.P,J401,4,Pin_4*%
%TO.N,/MCU/RESET*%
X188680000Y-119250000D03*
%TD*%
D21*
%TO.P,J1,1,Pin_1*%
%TO.N,GND*%
X135975000Y-97665000D03*
D22*
%TO.P,J1,2,Pin_2*%
%TO.N,/Analog/OUT*%
X135975000Y-100205000D03*
%TO.P,J1,3,Pin_3*%
%TO.N,-15V*%
X135975000Y-102745000D03*
%TO.P,J1,4,Pin_4*%
%TO.N,+15V*%
X135975000Y-105285000D03*
%TD*%
D23*
%TO.P,TP204,1,1*%
%TO.N,/CANBUS/RXCAN*%
X182920000Y-64310000D03*
%TD*%
%TO.P,TP208,1,1*%
%TO.N,/CANBUS CONN/CAN_L*%
X166200000Y-57810000D03*
%TD*%
D24*
%TO.P,R201,1*%
%TO.N,/CANBUS CONN/CAN_L*%
X161977500Y-51070000D03*
%TO.P,R201,2*%
%TO.N,/CANBUS CONN/CAN_H*%
X163977500Y-51070000D03*
%TD*%
D25*
%TO.P,D201,1,A1*%
%TO.N,/CANBUS CONN/CAN_H*%
X163497500Y-48170000D03*
%TO.P,D201,2,A2*%
%TO.N,/CANBUS CONN/CAN_L*%
X161597500Y-48170000D03*
%TO.P,D201,3,common*%
%TO.N,GND*%
X162547500Y-45170000D03*
%TD*%
D26*
%TO.P,R4,1*%
%TO.N,GND*%
X165966250Y-107665000D03*
%TO.P,R4,2*%
%TO.N,+1\u002C67V*%
X165966250Y-105665000D03*
%TD*%
D27*
%TO.P,C203,1*%
%TO.N,Net-(U202-OSC2)*%
X184225000Y-74870000D03*
%TO.P,C203,2*%
%TO.N,GND*%
X186300000Y-74870000D03*
%TD*%
%TO.P,C406,1*%
%TO.N,GND*%
X176852500Y-123370000D03*
%TO.P,C406,2*%
%TO.N,/MCU/RESET*%
X178927500Y-123370000D03*
%TD*%
D23*
%TO.P,TP206,1,1*%
%TO.N,/MCU/SPI_SCK*%
X160880000Y-74810000D03*
%TD*%
D28*
%TO.P,R203,1*%
%TO.N,+5V*%
X165690000Y-64500000D03*
%TO.P,R203,2*%
%TO.N,Net-(U202-~{RESET})*%
X163690000Y-64500000D03*
%TD*%
D23*
%TO.P,TP209,1,1*%
%TO.N,/MCU/MCP_INT*%
X166340000Y-83000000D03*
%TD*%
D26*
%TO.P,R3,1*%
%TO.N,+1\u002C67V*%
X165936250Y-103405000D03*
%TO.P,R3,2*%
%TO.N,+5V*%
X165936250Y-101405000D03*
%TD*%
D24*
%TO.P,R407,1*%
%TO.N,Net-(U4-~{RESET}{slash}PC6)*%
X180930000Y-117540000D03*
%TO.P,R407,2*%
%TO.N,/MCU/RESET*%
X182930000Y-117540000D03*
%TD*%
%TO.P,R402,1*%
%TO.N,/MCU/USART_RX*%
X180930000Y-114670000D03*
%TO.P,R402,2*%
%TO.N,Net-(J401-Pin_3)*%
X182930000Y-114670000D03*
%TD*%
D23*
%TO.P,TP201,1,1*%
%TO.N,/MCU/SPI_MOSI*%
X160940000Y-71850000D03*
%TD*%
%TO.P,TP207,1,1*%
%TO.N,/CANBUS CONN/CAN_H*%
X166940000Y-54070000D03*
%TD*%
D24*
%TO.P,R1,1*%
%TO.N,/Analog/OUT*%
X151600000Y-104850000D03*
%TO.P,R1,2*%
%TO.N,Net-(U2A-+)*%
X153600000Y-104850000D03*
%TD*%
D23*
%TO.P,TP203,1,1*%
%TO.N,/CANBUS/TXCAN*%
X182880000Y-60920000D03*
%TD*%
D29*
%TO.P,U202,1,TXCAN*%
%TO.N,/CANBUS/TXCAN*%
X177960000Y-64510000D03*
%TO.P,U202,2,RXCAN*%
%TO.N,/CANBUS/RXCAN*%
X177960000Y-65780000D03*
%TO.P,U202,3,CLKOUT/SOF*%
%TO.N,unconnected-(U202-CLKOUT{slash}SOF-Pad3)*%
X177960000Y-67050000D03*
%TO.P,U202,4,~{TX0RTS}*%
%TO.N,unconnected-(U202-~{TX0RTS}-Pad4)*%
X177960000Y-68320000D03*
%TO.P,U202,5,~{TX1RTS}*%
%TO.N,unconnected-(U202-~{TX1RTS}-Pad5)*%
X177960000Y-69590000D03*
%TO.P,U202,6,~{TX2RTS}*%
%TO.N,unconnected-(U202-~{TX2RTS}-Pad6)*%
X177960000Y-70860000D03*
%TO.P,U202,7,OSC2*%
%TO.N,Net-(U202-OSC2)*%
X177960000Y-72130000D03*
%TO.P,U202,8,OSC1*%
%TO.N,Net-(U202-OSC1)*%
X177960000Y-73400000D03*
%TO.P,U202,9,VSS*%
%TO.N,GND*%
X177960000Y-74670000D03*
%TO.P,U202,10,~{RX1BF}*%
%TO.N,unconnected-(U202-~{RX1BF}-Pad10)*%
X168660000Y-74670000D03*
%TO.P,U202,11,~{RX0BF}*%
%TO.N,unconnected-(U202-~{RX0BF}-Pad11)*%
X168660000Y-73400000D03*
%TO.P,U202,12,~{INT}*%
%TO.N,/MCU/MCP_INT*%
X168660000Y-72130000D03*
%TO.P,U202,13,SCK*%
%TO.N,/MCU/SPI_SCK*%
X168660000Y-70860000D03*
%TO.P,U202,14,SI*%
%TO.N,/MCU/SPI_MOSI*%
X168660000Y-69590000D03*
%TO.P,U202,15,SO*%
%TO.N,/MCU/SPI_MISO*%
X168660000Y-68320000D03*
%TO.P,U202,16,~{CS}*%
%TO.N,/MCU/MCP_SS*%
X168660000Y-67050000D03*
%TO.P,U202,17,~{RESET}*%
%TO.N,Net-(U202-~{RESET})*%
X168660000Y-65780000D03*
%TO.P,U202,18,VDD*%
%TO.N,+5V*%
X168660000Y-64510000D03*
%TD*%
D24*
%TO.P,R403,1*%
%TO.N,/MCU/USART_TX*%
X180930000Y-111810000D03*
%TO.P,R403,2*%
%TO.N,Net-(J401-Pin_2)*%
X182930000Y-111810000D03*
%TD*%
D27*
%TO.P,C205,1*%
%TO.N,+5V*%
X172192500Y-51840000D03*
%TO.P,C205,2*%
%TO.N,GND*%
X174267500Y-51840000D03*
%TD*%
D30*
%TO.P,C201,1*%
%TO.N,+5V*%
X172262500Y-61350000D03*
%TO.P,C201,2*%
%TO.N,GND*%
X170187500Y-61350000D03*
%TD*%
D23*
%TO.P,TP202,1,1*%
%TO.N,/MCU/SPI_MISO*%
X160990000Y-68830000D03*
%TD*%
D30*
%TO.P,C202,1*%
%TO.N,+5V*%
X165737500Y-62450000D03*
%TO.P,C202,2*%
%TO.N,GND*%
X163662500Y-62450000D03*
%TD*%
D28*
%TO.P,R401,1*%
%TO.N,+5V*%
X182870000Y-120310000D03*
%TO.P,R401,2*%
%TO.N,/MCU/RESET*%
X180870000Y-120310000D03*
%TD*%
D24*
%TO.P,R202,1*%
%TO.N,Net-(U201-STBY)*%
X172200000Y-49630000D03*
%TO.P,R202,2*%
%TO.N,GND*%
X174200000Y-49630000D03*
%TD*%
D31*
%TO.P,D401,1,K*%
%TO.N,+5V*%
X188880000Y-124420000D03*
%TO.P,D401,2,A*%
%TO.N,/MCU/RESET*%
X183380000Y-124420000D03*
%TD*%
D27*
%TO.P,C403,1*%
%TO.N,Net-(U4-XTAL2{slash}PB7)*%
X184142500Y-96550000D03*
%TO.P,C403,2*%
%TO.N,GND*%
X186217500Y-96550000D03*
%TD*%
D32*
%TO.P,U201,1,TXD*%
%TO.N,/CANBUS/TXCAN*%
X175815000Y-54795000D03*
%TO.P,U201,2,VSS*%
%TO.N,GND*%
X175815000Y-56065000D03*
%TO.P,U201,3,VDD*%
%TO.N,+5V*%
X175815000Y-57335000D03*
%TO.P,U201,4,RXD*%
%TO.N,/CANBUS/RXCAN*%
X175815000Y-58605000D03*
%TO.P,U201,5,SPLIT*%
%TO.N,unconnected-(U201-SPLIT-Pad5)*%
X170865000Y-58605000D03*
%TO.P,U201,6,CANL*%
%TO.N,/CANBUS CONN/CAN_L*%
X170865000Y-57335000D03*
%TO.P,U201,7,CANH*%
%TO.N,/CANBUS CONN/CAN_H*%
X170865000Y-56065000D03*
%TO.P,U201,8,STBY*%
%TO.N,Net-(U201-STBY)*%
X170865000Y-54795000D03*
%TD*%
D23*
%TO.P,TP205,1,1*%
%TO.N,/MCU/MCP_SS*%
X160970000Y-65590000D03*
%TD*%
D33*
%TO.P,C7,1*%
%TO.N,+1\u002C67V*%
X162506250Y-105687500D03*
%TO.P,C7,2*%
%TO.N,GND*%
X162506250Y-107762500D03*
%TD*%
D30*
%TO.P,C204,1*%
%TO.N,Net-(U202-OSC1)*%
X181697500Y-77440000D03*
%TO.P,C204,2*%
%TO.N,GND*%
X179622500Y-77440000D03*
%TD*%
%TO.P,C404,1*%
%TO.N,Net-(U4-XTAL1{slash}PB6)*%
X184187500Y-101300000D03*
%TO.P,C404,2*%
%TO.N,GND*%
X182112500Y-101300000D03*
%TD*%
D34*
%TO.N,GND*%
X160825000Y-43125000D03*
%TO.N,/MCU/SPI_SCK*%
X171675000Y-87600000D03*
X171675000Y-96425000D03*
%TD*%
D35*
%TO.N,GND*%
X160825000Y-43447500D02*
X160825000Y-43125000D01*
X162547500Y-45170000D02*
X160825000Y-43447500D01*
D36*
X175255900Y-56065000D02*
X174267500Y-55076600D01*
X175815000Y-56065000D02*
X175255900Y-56065000D01*
X174267500Y-55076600D02*
X174267500Y-51840000D01*
D35*
%TO.N,+12V*%
X151075000Y-101797500D02*
X151032500Y-101755000D01*
%TO.N,+5V*%
X168660000Y-64510000D02*
X165700000Y-64510000D01*
X139120000Y-82040000D02*
X139735000Y-82040000D01*
X143970000Y-92230000D02*
X143970000Y-93275000D01*
X186500000Y-121975000D02*
X184835000Y-120310000D01*
X176930000Y-104030000D02*
X186255000Y-104030000D01*
D36*
X172232500Y-59292500D02*
X174190000Y-57335000D01*
X172192500Y-51840000D02*
X172192500Y-52167500D01*
X172232500Y-63192500D02*
X170915000Y-64510000D01*
D35*
X158150000Y-63625000D02*
X158150000Y-62300000D01*
X164550000Y-59700000D02*
X165737500Y-60887500D01*
X191625000Y-123550000D02*
X191475000Y-123550000D01*
X190605000Y-124420000D02*
X188880000Y-124420000D01*
X191625000Y-109400000D02*
X191625000Y-123550000D01*
X165700000Y-64510000D02*
X165690000Y-64500000D01*
X160750000Y-59700000D02*
X164550000Y-59700000D01*
X176930000Y-104030000D02*
X171850000Y-104030000D01*
X158150000Y-62300000D02*
X160750000Y-59700000D01*
D36*
X174190000Y-57335000D02*
X175815000Y-57335000D01*
D35*
X165737500Y-60887500D02*
X165737500Y-62450000D01*
X169225000Y-101405000D02*
X169310000Y-101490000D01*
X171850000Y-104030000D02*
X169310000Y-101490000D01*
D36*
X165737500Y-64452500D02*
X165690000Y-64500000D01*
X172192500Y-52167500D02*
X173125000Y-53100000D01*
D35*
X146600000Y-89600000D02*
X143970000Y-92230000D01*
X186500000Y-122040000D02*
X186500000Y-121975000D01*
X186255000Y-104030000D02*
X191625000Y-109400000D01*
X191475000Y-123550000D02*
X190605000Y-124420000D01*
D36*
X165737500Y-62450000D02*
X165737500Y-64452500D01*
D35*
X158932500Y-93272500D02*
X158932500Y-91397500D01*
X157135000Y-89600000D02*
X146600000Y-89600000D01*
X165936250Y-100276250D02*
X165936250Y-101405000D01*
D36*
X172232500Y-61680000D02*
X172232500Y-63192500D01*
D35*
X188880000Y-124420000D02*
X186500000Y-122040000D01*
D36*
X172232500Y-61680000D02*
X172232500Y-59292500D01*
D35*
X184835000Y-120310000D02*
X182870000Y-120310000D01*
X158932500Y-93272500D02*
X165936250Y-100276250D01*
X158932500Y-91397500D02*
X157135000Y-89600000D01*
D36*
X170915000Y-64510000D02*
X168660000Y-64510000D01*
X173125000Y-53100000D02*
X173125000Y-56270000D01*
X173125000Y-56270000D02*
X174190000Y-57335000D01*
D35*
X139735000Y-82040000D02*
X158150000Y-63625000D01*
X165936250Y-101405000D02*
X169225000Y-101405000D01*
%TO.N,+1\u002C67V*%
X165966250Y-105665000D02*
X165966250Y-103435000D01*
X165966250Y-103435000D02*
X165936250Y-103405000D01*
X162506250Y-105687500D02*
X160045000Y-105687500D01*
X165943750Y-105687500D02*
X165966250Y-105665000D01*
X160045000Y-105687500D02*
X156112500Y-101755000D01*
X162506250Y-105687500D02*
X165943750Y-105687500D01*
%TO.N,Net-(U202-OSC2)*%
X184230000Y-72540000D02*
X183820000Y-72130000D01*
D36*
X183820000Y-72130000D02*
X177960000Y-72130000D01*
D35*
X184225000Y-74870000D02*
X184225000Y-72545000D01*
X184225000Y-72545000D02*
X184230000Y-72540000D01*
%TO.N,Net-(U202-OSC1)*%
X184210000Y-77440000D02*
X184230000Y-77420000D01*
X181697500Y-77440000D02*
X181697500Y-75147500D01*
X181697500Y-75147500D02*
X179950000Y-73400000D01*
D36*
X179950000Y-73400000D02*
X177960000Y-73400000D01*
D35*
X181697500Y-77440000D02*
X184210000Y-77440000D01*
%TO.N,Net-(U4-XTAL2{slash}PB7)*%
X184142500Y-94237500D02*
X184160000Y-94220000D01*
X184142500Y-96550000D02*
X184142500Y-94237500D01*
X181080000Y-94220000D02*
X178890000Y-96410000D01*
X184160000Y-94220000D02*
X181080000Y-94220000D01*
X178890000Y-96410000D02*
X176930000Y-96410000D01*
%TO.N,Net-(U4-XTAL1{slash}PB6)*%
X184160000Y-99100000D02*
X184160000Y-101272500D01*
X184160000Y-101272500D02*
X184187500Y-101300000D01*
X177080000Y-99100000D02*
X176930000Y-98950000D01*
X184160000Y-99100000D02*
X177080000Y-99100000D01*
%TO.N,/MCU/RESET*%
X186550000Y-119250000D02*
X188680000Y-119250000D01*
X182930000Y-117770000D02*
X180870000Y-119830000D01*
X184840000Y-117540000D02*
X186550000Y-119250000D01*
X182930000Y-117540000D02*
X182930000Y-117770000D01*
X178927500Y-123370000D02*
X178927500Y-122252500D01*
X182930000Y-117540000D02*
X184840000Y-117540000D01*
X180870000Y-120310000D02*
X180870000Y-121910000D01*
X178927500Y-122252500D02*
X180870000Y-120310000D01*
X180870000Y-119830000D02*
X180870000Y-120310000D01*
X180870000Y-121910000D02*
X183380000Y-124420000D01*
%TO.N,/CANBUS CONN/CAN_18V*%
X151585000Y-26610000D02*
X151585000Y-35558000D01*
D36*
X172990000Y-35540000D02*
X173000000Y-35530000D01*
D35*
X151585000Y-35558000D02*
X151585000Y-36828000D01*
X151585000Y-36828000D02*
X152855000Y-38098000D01*
X173000000Y-35530000D02*
X173000000Y-27125000D01*
D36*
X172990000Y-35540000D02*
X172990000Y-36810000D01*
D35*
X169450000Y-23575000D02*
X154625000Y-23575000D01*
X154625000Y-23575000D02*
X151587500Y-26612500D01*
X173000000Y-27125000D02*
X169450000Y-23575000D01*
D36*
X151587500Y-26612500D02*
X151585000Y-26610000D01*
X172990000Y-36810000D02*
X174260000Y-38080000D01*
%TO.N,/CANBUS CONN/CAN_L*%
X170865000Y-57335000D02*
X166675000Y-57335000D01*
X161977500Y-48550000D02*
X161597500Y-48170000D01*
X163650000Y-55260000D02*
X163650000Y-54725000D01*
X166675000Y-57335000D02*
X166200000Y-57810000D01*
X161977500Y-53052500D02*
X161977500Y-51070000D01*
X161597500Y-47147500D02*
X155395000Y-40945000D01*
X166200000Y-57810000D02*
X163650000Y-55260000D01*
X163650000Y-54725000D02*
X161977500Y-53052500D01*
X155395000Y-40945000D02*
X155395000Y-38098000D01*
X161597500Y-48170000D02*
X161597500Y-47147500D01*
X161977500Y-51070000D02*
X161977500Y-48550000D01*
%TO.N,/CANBUS CONN/CAN_H*%
X179450000Y-36000000D02*
X178990000Y-35540000D01*
X166940000Y-54070000D02*
X166940000Y-54032500D01*
X163497500Y-48170000D02*
X163497500Y-47252500D01*
X164750000Y-46000000D02*
X164750000Y-43875000D01*
X163977500Y-51070000D02*
X163977500Y-48650000D01*
X163497500Y-47252500D02*
X164750000Y-46000000D01*
X163977500Y-48650000D02*
X163497500Y-48170000D01*
X166940000Y-54032500D02*
X163977500Y-51070000D01*
X175350000Y-43875000D02*
X179450000Y-39775000D01*
X168935000Y-56065000D02*
X166940000Y-54070000D01*
X170865000Y-56065000D02*
X168935000Y-56065000D01*
X179450000Y-39775000D02*
X179450000Y-36000000D01*
X164750000Y-43875000D02*
X156665000Y-35790000D01*
X164750000Y-43875000D02*
X175350000Y-43875000D01*
X178990000Y-35540000D02*
X178070000Y-35540000D01*
X156665000Y-35790000D02*
X156665000Y-35558000D01*
D35*
%TO.N,Net-(J401-Pin_2)*%
X188680000Y-114170000D02*
X187170000Y-114170000D01*
X187170000Y-114170000D02*
X184810000Y-111810000D01*
X184810000Y-111810000D02*
X182930000Y-111810000D01*
%TO.N,Net-(J401-Pin_3)*%
X182930000Y-114670000D02*
X184295000Y-114670000D01*
X184295000Y-114670000D02*
X186335000Y-116710000D01*
X186335000Y-116710000D02*
X188680000Y-116710000D01*
%TO.N,+15V*%
X134185000Y-105285000D02*
X135975000Y-105285000D01*
X164012500Y-92562500D02*
X159749000Y-88299000D01*
X159749000Y-88299000D02*
X141101000Y-88299000D01*
X141101000Y-88299000D02*
X132375000Y-97025000D01*
X164012500Y-93272500D02*
X164012500Y-92562500D01*
X132375000Y-97025000D02*
X132375000Y-103475000D01*
X132375000Y-103475000D02*
X134185000Y-105285000D01*
%TO.N,Net-(U2A-+)*%
X153572500Y-101755000D02*
X153572500Y-104822500D01*
X153572500Y-104822500D02*
X153600000Y-104850000D01*
%TO.N,/Analog/OUT*%
X140550000Y-103200000D02*
X142200000Y-104850000D01*
X142200000Y-104850000D02*
X151600000Y-104850000D01*
X139955000Y-100205000D02*
X140550000Y-100800000D01*
X135975000Y-100205000D02*
X139955000Y-100205000D01*
X140550000Y-100800000D02*
X140550000Y-103200000D01*
D36*
%TO.N,Net-(U201-STBY)*%
X170995000Y-49630000D02*
X170500000Y-50125000D01*
X172200000Y-49630000D02*
X170995000Y-49630000D01*
X170500000Y-50125000D02*
X170550000Y-50175000D01*
X170550000Y-50175000D02*
X170550000Y-54480000D01*
X170550000Y-54480000D02*
X170865000Y-54795000D01*
D35*
%TO.N,Net-(U202-~{RESET})*%
X163690000Y-64790000D02*
X163690000Y-64500000D01*
X166970000Y-65780000D02*
X166750000Y-66000000D01*
X166750000Y-66000000D02*
X164900000Y-66000000D01*
X168660000Y-65780000D02*
X166970000Y-65780000D01*
X164900000Y-66000000D02*
X163690000Y-64790000D01*
%TO.N,/MCU/USART_RX*%
X176930000Y-116730000D02*
X178985000Y-114675000D01*
X179530000Y-114670000D02*
X180930000Y-114670000D01*
X178985000Y-114675000D02*
X179525000Y-114675000D01*
X179525000Y-114675000D02*
X179530000Y-114670000D01*
%TO.N,/MCU/USART_TX*%
X176930000Y-114190000D02*
X178295000Y-112825000D01*
X180240000Y-111810000D02*
X180930000Y-111810000D01*
X178295000Y-112825000D02*
X179225000Y-112825000D01*
X179225000Y-112825000D02*
X180240000Y-111810000D01*
%TO.N,Net-(U4-~{RESET}{slash}PC6)*%
X177705000Y-119270000D02*
X179435000Y-117540000D01*
X176930000Y-119270000D02*
X177705000Y-119270000D01*
X179435000Y-117540000D02*
X180930000Y-117540000D01*
D36*
%TO.N,/MCU/SPI_MOSI*%
X168660000Y-69590000D02*
X164735000Y-69590000D01*
X172750000Y-71700000D02*
X172750000Y-88625000D01*
X168660000Y-69590000D02*
X170640000Y-69590000D01*
X162475000Y-71850000D02*
X160940000Y-71850000D01*
X164735000Y-69590000D02*
X162475000Y-71850000D01*
X172750000Y-88625000D02*
X171525000Y-89850000D01*
X171075000Y-90325000D02*
X170315000Y-90325000D01*
X171525000Y-89850000D02*
X171525000Y-89875000D01*
X170640000Y-69590000D02*
X172750000Y-71700000D01*
X171525000Y-89875000D02*
X171075000Y-90325000D01*
X170315000Y-90325000D02*
X169310000Y-91330000D01*
%TO.N,/MCU/SPI_MISO*%
X173850000Y-71025000D02*
X173850000Y-89330000D01*
X158575000Y-71245000D02*
X160990000Y-68830000D01*
X168660000Y-68320000D02*
X171145000Y-68320000D01*
X166805000Y-68320000D02*
X166800000Y-68325000D01*
X169310000Y-93870000D02*
X168195000Y-93870000D01*
X158575000Y-84250000D02*
X158575000Y-71245000D01*
X166805000Y-68320000D02*
X163480000Y-68320000D01*
X173850000Y-89330000D02*
X169310000Y-93870000D01*
X168195000Y-93870000D02*
X158575000Y-84250000D01*
X162970000Y-68830000D02*
X160990000Y-68830000D01*
X168660000Y-68320000D02*
X166805000Y-68320000D01*
X171145000Y-68320000D02*
X173850000Y-71025000D01*
X163480000Y-68320000D02*
X162970000Y-68830000D01*
%TO.N,/CANBUS/TXCAN*%
X177720000Y-54795000D02*
X175815000Y-54795000D01*
X180625000Y-63175000D02*
X180625000Y-57700000D01*
X179295000Y-63175000D02*
X180625000Y-63175000D01*
X180625000Y-63175000D02*
X182880000Y-60920000D01*
X177960000Y-64510000D02*
X179295000Y-63175000D01*
X180625000Y-57700000D02*
X177720000Y-54795000D01*
%TO.N,/CANBUS/RXCAN*%
X181450000Y-65780000D02*
X182920000Y-64310000D01*
X175815000Y-64659999D02*
X175815000Y-58605000D01*
X177960000Y-65780000D02*
X181450000Y-65780000D01*
X177960000Y-65780000D02*
X176935001Y-65780000D01*
X176935001Y-65780000D02*
X175815000Y-64659999D01*
%TO.N,/MCU/MCP_SS*%
X175000000Y-70425000D02*
X175000000Y-84320000D01*
X168660000Y-67050000D02*
X171625000Y-67050000D01*
X162430000Y-67050000D02*
X160970000Y-65590000D01*
X171625000Y-67050000D02*
X175000000Y-70425000D01*
X168660000Y-67050000D02*
X162430000Y-67050000D01*
X175000000Y-84320000D02*
X176930000Y-86250000D01*
%TO.N,/MCU/SPI_SCK*%
X171660000Y-96410000D02*
X171675000Y-96425000D01*
X171675000Y-72350000D02*
X170175000Y-70850000D01*
X166050000Y-70850000D02*
X162090000Y-74810000D01*
X166910000Y-70860000D02*
X166900000Y-70850000D01*
X162090000Y-74810000D02*
X160880000Y-74810000D01*
X170165000Y-70860000D02*
X168660000Y-70860000D01*
X169310000Y-96410000D02*
X171660000Y-96410000D01*
X170175000Y-70850000D02*
X170165000Y-70860000D01*
X171675000Y-87600000D02*
X171675000Y-72350000D01*
X168660000Y-70860000D02*
X166910000Y-70860000D01*
X166900000Y-70850000D02*
X166050000Y-70850000D01*
%TO.N,/MCU/MCP_INT*%
X168660000Y-72130000D02*
X166955000Y-72130000D01*
D35*
X167950000Y-86250000D02*
X166340000Y-84640000D01*
D36*
X166955000Y-72130000D02*
X166340000Y-72745000D01*
D35*
X166340000Y-84640000D02*
X166340000Y-83000000D01*
X169310000Y-86250000D02*
X167950000Y-86250000D01*
D36*
X166340000Y-72745000D02*
X166340000Y-83000000D01*
D35*
%TO.N,Net-(U2B--)*%
X156122500Y-99225000D02*
X158652500Y-101755000D01*
X145952500Y-101755000D02*
X148482500Y-99225000D01*
X148482500Y-99225000D02*
X156122500Y-99225000D01*
%TD*%
%TA.AperFunction,Conductor*%
%TO.N,GND*%
G36*
X185908033Y-104925185D02*
G01*
X185928675Y-104941819D01*
X190713181Y-109726325D01*
X190746666Y-109787648D01*
X190749500Y-109814006D01*
X190749500Y-122985992D01*
X190740855Y-123015432D01*
X190734332Y-123045419D01*
X190730577Y-123050434D01*
X190729815Y-123053031D01*
X190713181Y-123073673D01*
X190692726Y-123094128D01*
X190631403Y-123127613D01*
X190566042Y-123124153D01*
X190432799Y-123080001D01*
X190432795Y-123080000D01*
X190330016Y-123069500D01*
X190330009Y-123069500D01*
X188819006Y-123069500D01*
X188751967Y-123049815D01*
X188731325Y-123033181D01*
X187305616Y-121607472D01*
X187278734Y-121567239D01*
X187275858Y-121560296D01*
X187275854Y-121560288D01*
X187180046Y-121416902D01*
X187180045Y-121416901D01*
X187058099Y-121294955D01*
X186898920Y-121135776D01*
X185981927Y-120218782D01*
X185948442Y-120157459D01*
X185953426Y-120087767D01*
X185995298Y-120031834D01*
X186060762Y-120007417D01*
X186129035Y-120022269D01*
X186132454Y-120024339D01*
X186135301Y-120025861D01*
X186294621Y-120091853D01*
X186294626Y-120091855D01*
X186422140Y-120117219D01*
X186463766Y-120125499D01*
X186463769Y-120125500D01*
X186463771Y-120125500D01*
X186636229Y-120125500D01*
X187594242Y-120125500D01*
X187661281Y-120145185D01*
X187681923Y-120161819D01*
X187800213Y-120280109D01*
X187972179Y-120405048D01*
X187972181Y-120405049D01*
X187972184Y-120405051D01*
X188161588Y-120501557D01*
X188363757Y-120567246D01*
X188573713Y-120600500D01*
X188573714Y-120600500D01*
X188786286Y-120600500D01*
X188786287Y-120600500D01*
X188996243Y-120567246D01*
X189198412Y-120501557D01*
X189387816Y-120405051D01*
X189419152Y-120382284D01*
X189559786Y-120280109D01*
X189559788Y-120280106D01*
X189559792Y-120280104D01*
X189710104Y-120129792D01*
X189710106Y-120129788D01*
X189710109Y-120129786D01*
X189835048Y-119957820D01*
X189835047Y-119957820D01*
X189835051Y-119957816D01*
X189931557Y-119768412D01*
X189997246Y-119566243D01*
X190030500Y-119356287D01*
X190030500Y-119143713D01*
X189997246Y-118933757D01*
X189931557Y-118731588D01*
X189835051Y-118542184D01*
X189835049Y-118542181D01*
X189835048Y-118542179D01*
X189710109Y-118370213D01*
X189559786Y-118219890D01*
X189387820Y-118094951D01*
X189387115Y-118094591D01*
X189379054Y-118090485D01*
X189328259Y-118042512D01*
X189311463Y-117974692D01*
X189333999Y-117908556D01*
X189379054Y-117869515D01*
X189387816Y-117865051D01*
X189481232Y-117797181D01*
X189559786Y-117740109D01*
X189559788Y-117740106D01*
X189559792Y-117740104D01*
X189710104Y-117589792D01*
X189710106Y-117589788D01*
X189710109Y-117589786D01*
X189835048Y-117417820D01*
X189835047Y-117417820D01*
X189835051Y-117417816D01*
X189931557Y-117228412D01*
X189997246Y-117026243D01*
X190030500Y-116816287D01*
X190030500Y-116603713D01*
X189997246Y-116393757D01*
X189931557Y-116191588D01*
X189835051Y-116002184D01*
X189835049Y-116002181D01*
X189835048Y-116002179D01*
X189710109Y-115830213D01*
X189559786Y-115679890D01*
X189387820Y-115554951D01*
X189379133Y-115550525D01*
X189379054Y-115550485D01*
X189328259Y-115502512D01*
X189311463Y-115434692D01*
X189333999Y-115368556D01*
X189379054Y-115329515D01*
X189387816Y-115325051D01*
X189419152Y-115302284D01*
X189559786Y-115200109D01*
X189559788Y-115200106D01*
X189559792Y-115200104D01*
X189710104Y-115049792D01*
X189710106Y-115049788D01*
X189710109Y-115049786D01*
X189835048Y-114877820D01*
X189835047Y-114877820D01*
X189835051Y-114877816D01*
X189931557Y-114688412D01*
X189997246Y-114486243D01*
X190030500Y-114276287D01*
X190030500Y-114063713D01*
X189997246Y-113853757D01*
X189931557Y-113651588D01*
X189835051Y-113462184D01*
X189835049Y-113462181D01*
X189835048Y-113462179D01*
X189710109Y-113290213D01*
X189559786Y-113139890D01*
X189387820Y-113014951D01*
X189198414Y-112918444D01*
X189198413Y-112918443D01*
X189198412Y-112918443D01*
X188996243Y-112852754D01*
X188996241Y-112852753D01*
X188996240Y-112852753D01*
X188834957Y-112827208D01*
X188786287Y-112819500D01*
X188573713Y-112819500D01*
X188525042Y-112827208D01*
X188363760Y-112852753D01*
X188363757Y-112852754D01*
X188173139Y-112914690D01*
X188161585Y-112918444D01*
X187972179Y-113014951D01*
X187800213Y-113139890D01*
X187800209Y-113139894D01*
X187681923Y-113258181D01*
X187654995Y-113272884D01*
X187629177Y-113289477D01*
X187622976Y-113290368D01*
X187620600Y-113291666D01*
X187594242Y-113294500D01*
X187584006Y-113294500D01*
X187516967Y-113274815D01*
X187496325Y-113258181D01*
X185368102Y-111129957D01*
X185368098Y-111129954D01*
X185224711Y-111034145D01*
X185224698Y-111034138D01*
X185065378Y-110968146D01*
X185065366Y-110968143D01*
X184896232Y-110934500D01*
X184896229Y-110934500D01*
X183966868Y-110934500D01*
X183899829Y-110914815D01*
X183878653Y-110895616D01*
X183877819Y-110896451D01*
X183748657Y-110767289D01*
X183748656Y-110767288D01*
X183599334Y-110675186D01*
X183432797Y-110620001D01*
X183432795Y-110620000D01*
X183330010Y-110609500D01*
X182529998Y-110609500D01*
X182529980Y-110609501D01*
X182427203Y-110620000D01*
X182427200Y-110620001D01*
X182260668Y-110675185D01*
X182260663Y-110675187D01*
X182111342Y-110767289D01*
X182017681Y-110860951D01*
X181956358Y-110894436D01*
X181886666Y-110889452D01*
X181842319Y-110860951D01*
X181748657Y-110767289D01*
X181748656Y-110767288D01*
X181599334Y-110675186D01*
X181432797Y-110620001D01*
X181432795Y-110620000D01*
X181330010Y-110609500D01*
X180529998Y-110609500D01*
X180529980Y-110609501D01*
X180427203Y-110620000D01*
X180427200Y-110620001D01*
X180260668Y-110675185D01*
X180260663Y-110675187D01*
X180111342Y-110767289D01*
X179987287Y-110891344D01*
X179945619Y-110958898D01*
X179893670Y-111005622D01*
X179887535Y-111008361D01*
X179825294Y-111034142D01*
X179825288Y-111034145D01*
X179681901Y-111129954D01*
X179681897Y-111129957D01*
X178898675Y-111913181D01*
X178837352Y-111946666D01*
X178810994Y-111949500D01*
X178344459Y-111949500D01*
X178277420Y-111929815D01*
X178231665Y-111877011D01*
X178221721Y-111807853D01*
X178221970Y-111806203D01*
X178230500Y-111752352D01*
X178230500Y-111547648D01*
X178198477Y-111345466D01*
X178135220Y-111150781D01*
X178135218Y-111150778D01*
X178135218Y-111150776D01*
X178101503Y-111084607D01*
X178042287Y-110968390D01*
X177990021Y-110896451D01*
X177921971Y-110802786D01*
X177777213Y-110658028D01*
X177611614Y-110537715D01*
X177605006Y-110534348D01*
X177518917Y-110490483D01*
X177468123Y-110442511D01*
X177451328Y-110374690D01*
X177473865Y-110308555D01*
X177518917Y-110269516D01*
X177611610Y-110222287D01*
X177632770Y-110206913D01*
X177777213Y-110101971D01*
X177777215Y-110101968D01*
X177777219Y-110101966D01*
X177921966Y-109957219D01*
X177921968Y-109957215D01*
X177921971Y-109957213D01*
X177982266Y-109874223D01*
X178042287Y-109791610D01*
X178135220Y-109609219D01*
X178198477Y-109414534D01*
X178230500Y-109212352D01*
X178230500Y-109007648D01*
X178203452Y-108836876D01*
X178198477Y-108805465D01*
X178135218Y-108610776D01*
X178092929Y-108527781D01*
X178042287Y-108428390D01*
X178034556Y-108417749D01*
X177921971Y-108262786D01*
X177777213Y-108118028D01*
X177611614Y-107997715D01*
X177605006Y-107994348D01*
X177518917Y-107950483D01*
X177468123Y-107902511D01*
X177451328Y-107834690D01*
X177473865Y-107768555D01*
X177518917Y-107729516D01*
X177611610Y-107682287D01*
X177632770Y-107666913D01*
X177777213Y-107561971D01*
X177777215Y-107561968D01*
X177777219Y-107561966D01*
X177921966Y-107417219D01*
X177921968Y-107417215D01*
X177921971Y-107417213D01*
X177974732Y-107344590D01*
X178042287Y-107251610D01*
X178135220Y-107069219D01*
X178198477Y-106874534D01*
X178230500Y-106672352D01*
X178230500Y-106467648D01*
X178198477Y-106265466D01*
X178135220Y-106070781D01*
X178135218Y-106070778D01*
X178135218Y-106070776D01*
X178095495Y-105992816D01*
X178042287Y-105888390D01*
X178034556Y-105877749D01*
X177921971Y-105722786D01*
X177777213Y-105578028D01*
X177611614Y-105457715D01*
X177601958Y-105452795D01*
X177518917Y-105410483D01*
X177468123Y-105362511D01*
X177451328Y-105294690D01*
X177473865Y-105228555D01*
X177518917Y-105189516D01*
X177611610Y-105142287D01*
X177632770Y-105126913D01*
X177777213Y-105021971D01*
X177777215Y-105021968D01*
X177777219Y-105021966D01*
X177857366Y-104941819D01*
X177918689Y-104908334D01*
X177945047Y-104905500D01*
X185840994Y-104905500D01*
X185908033Y-104925185D01*
G37*
%TD.AperFunction*%
%TA.AperFunction,Conductor*%
G36*
X145555033Y-89194185D02*
G01*
X145600788Y-89246989D01*
X145610732Y-89316147D01*
X145581707Y-89379703D01*
X145575675Y-89386181D01*
X143411901Y-91549955D01*
X143350927Y-91610929D01*
X143289953Y-91671902D01*
X143289951Y-91671905D01*
X143194143Y-91815292D01*
X143194140Y-91815298D01*
X143164156Y-91887683D01*
X143122483Y-91940545D01*
X143073924Y-91975825D01*
X142920830Y-92128919D01*
X142920830Y-92128920D01*
X142920828Y-92128922D01*
X142885738Y-92177219D01*
X142793567Y-92304080D01*
X142695273Y-92496990D01*
X142695272Y-92496993D01*
X142628370Y-92702901D01*
X142594500Y-92916746D01*
X142594500Y-93633253D01*
X142628370Y-93847098D01*
X142695272Y-94053006D01*
X142695273Y-94053009D01*
X142776562Y-94212545D01*
X142793567Y-94245919D01*
X142920828Y-94421078D01*
X143073922Y-94574172D01*
X143249081Y-94701433D01*
X143280059Y-94717217D01*
X143441990Y-94799726D01*
X143441993Y-94799727D01*
X143544947Y-94833178D01*
X143647903Y-94866630D01*
X143861746Y-94900500D01*
X143861747Y-94900500D01*
X144078253Y-94900500D01*
X144078254Y-94900500D01*
X144292097Y-94866630D01*
X144498009Y-94799726D01*
X144690919Y-94701433D01*
X144866078Y-94574172D01*
X145019172Y-94421078D01*
X145139683Y-94255208D01*
X145195012Y-94212545D01*
X145264625Y-94206566D01*
X145326420Y-94239172D01*
X145340313Y-94255205D01*
X145460828Y-94421078D01*
X145613922Y-94574172D01*
X145789081Y-94701433D01*
X145820059Y-94717217D01*
X145981990Y-94799726D01*
X145981993Y-94799727D01*
X146084947Y-94833178D01*
X146187903Y-94866630D01*
X146401746Y-94900500D01*
X146401747Y-94900500D01*
X146618253Y-94900500D01*
X146618254Y-94900500D01*
X146832097Y-94866630D01*
X147038009Y-94799726D01*
X147230919Y-94701433D01*
X147406078Y-94574172D01*
X147559172Y-94421078D01*
X147686433Y-94245919D01*
X147784726Y-94053009D01*
X147851630Y-93847097D01*
X147885500Y-93633254D01*
X147885500Y-92916746D01*
X147851630Y-92702903D01*
X147784726Y-92496991D01*
X147784726Y-92496990D01*
X147686432Y-92304080D01*
X147559172Y-92128922D01*
X147406078Y-91975828D01*
X147230919Y-91848567D01*
X147038009Y-91750273D01*
X147038006Y-91750272D01*
X146832098Y-91683370D01*
X146725175Y-91666435D01*
X146618254Y-91649500D01*
X146401746Y-91649500D01*
X146358977Y-91656274D01*
X146187899Y-91683370D01*
X146037523Y-91732229D01*
X145967682Y-91734224D01*
X145907849Y-91698143D01*
X145877022Y-91635441D01*
X145884987Y-91566027D01*
X145911522Y-91526621D01*
X146926325Y-90511819D01*
X146987648Y-90478334D01*
X147014006Y-90475500D01*
X156720994Y-90475500D01*
X156788033Y-90495185D01*
X156808675Y-90511819D01*
X158020681Y-91723825D01*
X158035384Y-91750752D01*
X158051977Y-91776571D01*
X158052868Y-91782771D01*
X158054166Y-91785148D01*
X158057000Y-91811506D01*
X158057000Y-91901388D01*
X158037315Y-91968427D01*
X158020681Y-91989069D01*
X157883330Y-92126419D01*
X157883330Y-92126420D01*
X157883328Y-92126422D01*
X157881512Y-92128922D01*
X157756067Y-92301580D01*
X157657773Y-92494490D01*
X157657772Y-92494493D01*
X157590870Y-92700401D01*
X157557000Y-92914246D01*
X157557000Y-93630753D01*
X157590870Y-93844598D01*
X157657772Y-94050506D01*
X157657773Y-94050509D01*
X157693988Y-94121583D01*
X157756067Y-94243419D01*
X157883328Y-94418578D01*
X158036422Y-94571672D01*
X158211581Y-94698933D01*
X158306197Y-94747142D01*
X158404490Y-94797226D01*
X158404493Y-94797227D01*
X158507447Y-94830678D01*
X158610403Y-94864130D01*
X158824246Y-94898000D01*
X158824247Y-94898000D01*
X159040753Y-94898000D01*
X159040754Y-94898000D01*
X159219291Y-94869722D01*
X159288584Y-94878676D01*
X159326370Y-94904514D01*
X164867951Y-100446095D01*
X164901436Y-100507418D01*
X164896452Y-100577110D01*
X164885809Y-100598872D01*
X164801440Y-100735659D01*
X164801435Y-100735668D01*
X164777339Y-100808386D01*
X164746251Y-100902203D01*
X164746251Y-100902204D01*
X164746250Y-100902204D01*
X164735750Y-101004983D01*
X164735750Y-101805001D01*
X164735751Y-101805019D01*
X164746250Y-101907796D01*
X164746251Y-101907799D01*
X164801435Y-102074331D01*
X164801437Y-102074336D01*
X164893539Y-102223657D01*
X164987201Y-102317319D01*
X165020686Y-102378642D01*
X165015702Y-102448334D01*
X164987201Y-102492681D01*
X164893539Y-102586342D01*
X164801437Y-102735663D01*
X164801435Y-102735668D01*
X164797690Y-102746971D01*
X164746251Y-102902203D01*
X164746251Y-102902204D01*
X164746250Y-102902204D01*
X164735750Y-103004983D01*
X164735750Y-103805001D01*
X164735751Y-103805019D01*
X164746250Y-103907796D01*
X164746251Y-103907799D01*
X164801435Y-104074331D01*
X164801437Y-104074336D01*
X164893539Y-104223657D01*
X165017595Y-104347713D01*
X165031842Y-104356500D01*
X165038667Y-104364087D01*
X165047953Y-104368328D01*
X165061639Y-104389625D01*
X165078569Y-104408445D01*
X165081214Y-104420083D01*
X165085727Y-104427106D01*
X165090750Y-104462041D01*
X165090750Y-104628132D01*
X165071065Y-104695171D01*
X165051866Y-104716346D01*
X165052701Y-104717181D01*
X164994201Y-104775681D01*
X164932878Y-104809166D01*
X164906520Y-104812000D01*
X163555980Y-104812000D01*
X163488941Y-104792315D01*
X163468299Y-104775681D01*
X163449907Y-104757289D01*
X163449906Y-104757288D01*
X163349198Y-104695171D01*
X163300586Y-104665187D01*
X163300581Y-104665185D01*
X163294189Y-104663067D01*
X163134047Y-104610001D01*
X163134045Y-104610000D01*
X163031260Y-104599500D01*
X161981248Y-104599500D01*
X161981230Y-104599501D01*
X161878453Y-104610000D01*
X161878450Y-104610001D01*
X161711918Y-104665185D01*
X161711913Y-104665187D01*
X161562592Y-104757289D01*
X161544201Y-104775681D01*
X161482878Y-104809166D01*
X161456520Y-104812000D01*
X160459006Y-104812000D01*
X160391967Y-104792315D01*
X160371325Y-104775681D01*
X158862824Y-103267180D01*
X158829339Y-103205857D01*
X158834323Y-103136165D01*
X158876195Y-103080232D01*
X158941659Y-103055815D01*
X158950505Y-103055499D01*
X159252502Y-103055499D01*
X159252508Y-103055499D01*
X159355297Y-103044999D01*
X159521834Y-102989814D01*
X159671156Y-102897712D01*
X159795212Y-102773656D01*
X159887314Y-102624334D01*
X159942499Y-102457797D01*
X159953000Y-102355009D01*
X159952999Y-101154992D01*
X159947322Y-101099422D01*
X159942499Y-101052203D01*
X159942498Y-101052200D01*
X159926852Y-101004983D01*
X159887314Y-100885666D01*
X159795212Y-100736344D01*
X159671156Y-100612288D01*
X159561450Y-100544621D01*
X159521836Y-100520187D01*
X159521831Y-100520185D01*
X159490536Y-100509815D01*
X159355297Y-100465001D01*
X159355295Y-100465000D01*
X159252516Y-100454500D01*
X159252509Y-100454500D01*
X158641506Y-100454500D01*
X158574467Y-100434815D01*
X158553825Y-100418181D01*
X156680602Y-98544957D01*
X156680598Y-98544954D01*
X156537211Y-98449145D01*
X156537198Y-98449138D01*
X156377878Y-98383146D01*
X156377866Y-98383143D01*
X156208732Y-98349500D01*
X156208729Y-98349500D01*
X148568729Y-98349500D01*
X148396271Y-98349500D01*
X148396268Y-98349500D01*
X148227133Y-98383143D01*
X148227121Y-98383146D01*
X148067801Y-98449138D01*
X148067788Y-98449145D01*
X147924401Y-98544954D01*
X147924397Y-98544957D01*
X146051175Y-100418181D01*
X145989852Y-100451666D01*
X145963494Y-100454500D01*
X145850148Y-100454500D01*
X145839194Y-100456235D01*
X145647965Y-100486522D01*
X145453276Y-100549781D01*
X145270886Y-100642715D01*
X145105286Y-100763028D01*
X144960528Y-100907786D01*
X144840215Y-101073386D01*
X144792985Y-101166080D01*
X144745010Y-101216876D01*
X144677189Y-101233671D01*
X144611054Y-101211134D01*
X144572015Y-101166080D01*
X144566360Y-101154981D01*
X144524787Y-101073390D01*
X144464769Y-100990781D01*
X144404471Y-100907786D01*
X144259713Y-100763028D01*
X144094113Y-100642715D01*
X144094112Y-100642714D01*
X144094110Y-100642713D01*
X144034398Y-100612288D01*
X143911723Y-100549781D01*
X143717034Y-100486522D01*
X143525806Y-100456235D01*
X143514852Y-100454500D01*
X143310148Y-100454500D01*
X143299194Y-100456235D01*
X143107965Y-100486522D01*
X142913276Y-100549781D01*
X142730886Y-100642715D01*
X142565286Y-100763028D01*
X142420528Y-100907786D01*
X142300215Y-101073386D01*
X142207281Y-101255776D01*
X142144022Y-101450465D01*
X142112000Y-101652648D01*
X142112000Y-101857351D01*
X142144022Y-102059534D01*
X142207281Y-102254223D01*
X142253827Y-102345573D01*
X142296213Y-102428760D01*
X142300215Y-102436613D01*
X142420528Y-102602213D01*
X142565286Y-102746971D01*
X142675190Y-102826819D01*
X142730890Y-102867287D01*
X142847107Y-102926503D01*
X142913276Y-102960218D01*
X142913278Y-102960218D01*
X142913281Y-102960220D01*
X143004356Y-102989812D01*
X143107965Y-103023477D01*
X143199836Y-103038028D01*
X143310148Y-103055500D01*
X143310149Y-103055500D01*
X143514851Y-103055500D01*
X143514852Y-103055500D01*
X143717034Y-103023477D01*
X143911719Y-102960220D01*
X144094110Y-102867287D01*
X144222982Y-102773657D01*
X144259713Y-102746971D01*
X144259715Y-102746968D01*
X144259719Y-102746966D01*
X144404466Y-102602219D01*
X144404468Y-102602215D01*
X144404471Y-102602213D01*
X144524784Y-102436614D01*
X144524785Y-102436613D01*
X144524787Y-102436610D01*
X144572016Y-102343917D01*
X144619989Y-102293123D01*
X144687810Y-102276328D01*
X144753945Y-102298865D01*
X144792983Y-102343917D01*
X144798639Y-102355016D01*
X144840215Y-102436614D01*
X144960528Y-102602213D01*
X145105286Y-102746971D01*
X145215190Y-102826819D01*
X145270890Y-102867287D01*
X145387107Y-102926503D01*
X145453276Y-102960218D01*
X145453278Y-102960218D01*
X145453281Y-102960220D01*
X145544356Y-102989812D01*
X145647965Y-103023477D01*
X145739836Y-103038028D01*
X145850148Y-103055500D01*
X145850149Y-103055500D01*
X146054851Y-103055500D01*
X146054852Y-103055500D01*
X146257034Y-103023477D01*
X146451719Y-102960220D01*
X146634110Y-102867287D01*
X146762982Y-102773657D01*
X146799713Y-102746971D01*
X146799715Y-102746968D01*
X146799719Y-102746966D01*
X146944466Y-102602219D01*
X146944468Y-102602215D01*
X146944471Y-102602213D01*
X147064784Y-102436614D01*
X147064785Y-102436613D01*
X147064787Y-102436610D01*
X147112016Y-102343917D01*
X147159989Y-102293123D01*
X147227810Y-102276328D01*
X147293945Y-102298865D01*
X147332983Y-102343917D01*
X147338639Y-102355016D01*
X147380215Y-102436614D01*
X147500528Y-102602213D01*
X147645286Y-102746971D01*
X147755190Y-102826819D01*
X147810890Y-102867287D01*
X147927107Y-102926503D01*
X147993276Y-102960218D01*
X147993278Y-102960218D01*
X147993281Y-102960220D01*
X148084356Y-102989812D01*
X148187965Y-103023477D01*
X148279836Y-103038028D01*
X148390148Y-103055500D01*
X148390149Y-103055500D01*
X148594851Y-103055500D01*
X148594852Y-103055500D01*
X148797034Y-103023477D01*
X148991719Y-102960220D01*
X149174110Y-102867287D01*
X149302982Y-102773657D01*
X149339713Y-102746971D01*
X149339715Y-102746968D01*
X149339719Y-102746966D01*
X149484466Y-102602219D01*
X149484468Y-102602215D01*
X149484471Y-102602213D01*
X149604784Y-102436614D01*
X149604785Y-102436613D01*
X149604787Y-102436610D01*
X149652016Y-102343917D01*
X149699989Y-102293123D01*
X149767810Y-102276328D01*
X149833945Y-102298865D01*
X149872983Y-102343917D01*
X149878639Y-102355016D01*
X149920215Y-102436614D01*
X150040528Y-102602213D01*
X150185286Y-102746971D01*
X150295190Y-102826819D01*
X150350890Y-102867287D01*
X150467107Y-102926503D01*
X150533276Y-102960218D01*
X150533278Y-102960218D01*
X150533281Y-102960220D01*
X150624356Y-102989812D01*
X150727965Y-103023477D01*
X150819836Y-103038028D01*
X150930148Y-103055500D01*
X150930149Y-103055500D01*
X151134851Y-103055500D01*
X151134852Y-103055500D01*
X151337034Y-103023477D01*
X151531719Y-102960220D01*
X151714110Y-102867287D01*
X151842982Y-102773657D01*
X151879713Y-102746971D01*
X151879715Y-102746968D01*
X151879719Y-102746966D01*
X152024466Y-102602219D01*
X152024468Y-102602215D01*
X152024471Y-102602213D01*
X152144784Y-102436614D01*
X152144785Y-102436613D01*
X152144787Y-102436610D01*
X152192016Y-102343917D01*
X152239989Y-102293123D01*
X152307810Y-102276328D01*
X152373945Y-102298865D01*
X152412983Y-102343917D01*
X152418639Y-102355016D01*
X152460215Y-102436614D01*
X152580528Y-102602213D01*
X152660681Y-102682366D01*
X152694166Y-102743689D01*
X152697000Y-102770047D01*
X152697000Y-103786270D01*
X152677315Y-103853309D01*
X152624511Y-103899064D01*
X152555353Y-103909008D01*
X152491797Y-103879983D01*
X152485319Y-103873951D01*
X152418657Y-103807289D01*
X152418656Y-103807288D01*
X152325888Y-103750069D01*
X152269336Y-103715187D01*
X152269331Y-103715185D01*
X152267862Y-103714698D01*
X152102797Y-103660001D01*
X152102795Y-103660000D01*
X152000010Y-103649500D01*
X151199998Y-103649500D01*
X151199980Y-103649501D01*
X151097203Y-103660000D01*
X151097200Y-103660001D01*
X150930668Y-103715185D01*
X150930663Y-103715187D01*
X150781342Y-103807289D01*
X150652181Y-103936451D01*
X150650294Y-103934564D01*
X150603375Y-103967788D01*
X150563132Y-103974500D01*
X142614006Y-103974500D01*
X142546967Y-103954815D01*
X142526325Y-103938181D01*
X141461819Y-102873675D01*
X141428334Y-102812352D01*
X141425500Y-102785994D01*
X141425500Y-100713768D01*
X141425499Y-100713766D01*
X141391856Y-100544633D01*
X141391855Y-100544626D01*
X141385388Y-100529013D01*
X141325861Y-100385301D01*
X141325854Y-100385288D01*
X141230046Y-100241902D01*
X141178160Y-100190016D01*
X141108099Y-100119955D01*
X140849682Y-99861538D01*
X140513102Y-99524957D01*
X140513098Y-99524954D01*
X140369711Y-99429145D01*
X140369698Y-99429138D01*
X140210378Y-99363146D01*
X140210366Y-99363143D01*
X140041232Y-99329500D01*
X140041229Y-99329500D01*
X137060758Y-99329500D01*
X136993719Y-99309815D01*
X136973077Y-99293181D01*
X136854786Y-99174890D01*
X136682820Y-99049951D01*
X136493414Y-98953444D01*
X136493413Y-98953443D01*
X136493412Y-98953443D01*
X136291243Y-98887754D01*
X136291241Y-98887753D01*
X136291240Y-98887753D01*
X136129957Y-98862208D01*
X136081287Y-98854500D01*
X135868713Y-98854500D01*
X135820042Y-98862208D01*
X135658760Y-98887753D01*
X135456585Y-98953444D01*
X135267179Y-99049951D01*
X135095213Y-99174890D01*
X134944890Y-99325213D01*
X134819951Y-99497179D01*
X134723444Y-99686585D01*
X134657753Y-99888760D01*
X134624500Y-100098713D01*
X134624500Y-100311287D01*
X134627394Y-100329559D01*
X134657586Y-100520187D01*
X134657754Y-100521243D01*
X134720310Y-100713771D01*
X134723444Y-100723414D01*
X134819951Y-100912820D01*
X134944890Y-101084786D01*
X135095213Y-101235109D01*
X135267182Y-101360050D01*
X135275946Y-101364516D01*
X135326742Y-101412491D01*
X135343536Y-101480312D01*
X135320998Y-101546447D01*
X135275946Y-101585484D01*
X135267182Y-101589949D01*
X135095213Y-101714890D01*
X134944890Y-101865213D01*
X134819951Y-102037179D01*
X134723444Y-102226585D01*
X134657753Y-102428760D01*
X134624500Y-102638713D01*
X134624500Y-102851286D01*
X134657714Y-103060994D01*
X134657754Y-103061243D01*
X134698987Y-103188146D01*
X134723444Y-103263414D01*
X134819951Y-103452820D01*
X134944890Y-103624786D01*
X135095213Y-103775109D01*
X135267182Y-103900050D01*
X135275946Y-103904516D01*
X135326742Y-103952491D01*
X135343536Y-104020312D01*
X135320998Y-104086447D01*
X135275946Y-104125484D01*
X135267182Y-104129949D01*
X135095213Y-104254890D01*
X135095209Y-104254894D01*
X134976923Y-104373181D01*
X134915600Y-104406666D01*
X134889242Y-104409500D01*
X134599006Y-104409500D01*
X134531967Y-104389815D01*
X134511325Y-104373181D01*
X133286819Y-103148675D01*
X133253334Y-103087352D01*
X133250500Y-103060994D01*
X133250500Y-97439006D01*
X133270185Y-97371967D01*
X133286819Y-97351325D01*
X141427325Y-89210819D01*
X141488648Y-89177334D01*
X141515006Y-89174500D01*
X145487994Y-89174500D01*
X145555033Y-89194185D01*
G37*
%TD.AperFunction*%
%TA.AperFunction,Conductor*%
G36*
X159402033Y-89194185D02*
G01*
X159422675Y-89210819D01*
X162676335Y-92464479D01*
X162709820Y-92525802D01*
X162706585Y-92590477D01*
X162670870Y-92700399D01*
X162637000Y-92914246D01*
X162637000Y-93630753D01*
X162670870Y-93844598D01*
X162737772Y-94050506D01*
X162737773Y-94050509D01*
X162773988Y-94121583D01*
X162836067Y-94243419D01*
X162963328Y-94418578D01*
X163116422Y-94571672D01*
X163291581Y-94698933D01*
X163386197Y-94747142D01*
X163484490Y-94797226D01*
X163484493Y-94797227D01*
X163587447Y-94830678D01*
X163690403Y-94864130D01*
X163904246Y-94898000D01*
X163904247Y-94898000D01*
X164120753Y-94898000D01*
X164120754Y-94898000D01*
X164334597Y-94864130D01*
X164540509Y-94797226D01*
X164733419Y-94698933D01*
X164908578Y-94571672D01*
X165061672Y-94418578D01*
X165188933Y-94243419D01*
X165287226Y-94050509D01*
X165354130Y-93844597D01*
X165388000Y-93630754D01*
X165388000Y-92914246D01*
X165354130Y-92700403D01*
X165301197Y-92537490D01*
X165287227Y-92494493D01*
X165287226Y-92494490D01*
X165199322Y-92321971D01*
X165188933Y-92301581D01*
X165115295Y-92200228D01*
X165091816Y-92134422D01*
X165107641Y-92066368D01*
X165157747Y-92017673D01*
X165226225Y-92003798D01*
X165291334Y-92029147D01*
X165303293Y-92039660D01*
X167612048Y-94348415D01*
X167612049Y-94348416D01*
X167682211Y-94418578D01*
X167716585Y-94452952D01*
X167839498Y-94535080D01*
X167839511Y-94535087D01*
X167976082Y-94591656D01*
X167976087Y-94591658D01*
X167976091Y-94591658D01*
X167976092Y-94591659D01*
X168121079Y-94620500D01*
X168121082Y-94620500D01*
X168184582Y-94620500D01*
X168251621Y-94640185D01*
X168284900Y-94671615D01*
X168318028Y-94717212D01*
X168318032Y-94717217D01*
X168462786Y-94861971D01*
X168617749Y-94974556D01*
X168628390Y-94982287D01*
X168719840Y-95028883D01*
X168721080Y-95029515D01*
X168771876Y-95077490D01*
X168788671Y-95145311D01*
X168766134Y-95211446D01*
X168721080Y-95250485D01*
X168628386Y-95297715D01*
X168462786Y-95418028D01*
X168318028Y-95562786D01*
X168197715Y-95728386D01*
X168104781Y-95910776D01*
X168041522Y-96105465D01*
X168009500Y-96307648D01*
X168009500Y-96512352D01*
X168009713Y-96513695D01*
X168041522Y-96714534D01*
X168104781Y-96909223D01*
X168150545Y-96999038D01*
X168196914Y-97090042D01*
X168197715Y-97091613D01*
X168318028Y-97257213D01*
X168462786Y-97401971D01*
X168588982Y-97493656D01*
X168628390Y-97522287D01*
X168719840Y-97568883D01*
X168721080Y-97569515D01*
X168771876Y-97617490D01*
X168788671Y-97685311D01*
X168766134Y-97751446D01*
X168721080Y-97790485D01*
X168628386Y-97837715D01*
X168462786Y-97958028D01*
X168318028Y-98102786D01*
X168197715Y-98268386D01*
X168104781Y-98450776D01*
X168041522Y-98645465D01*
X168009500Y-98847648D01*
X168009500Y-99052351D01*
X168041522Y-99254534D01*
X168104781Y-99449223D01*
X168197715Y-99631613D01*
X168318028Y-99797213D01*
X168462786Y-99941971D01*
X168603682Y-100044336D01*
X168628390Y-100062287D01*
X168699880Y-100098713D01*
X168721080Y-100109515D01*
X168771876Y-100157490D01*
X168788671Y-100225311D01*
X168766134Y-100291446D01*
X168721080Y-100330485D01*
X168628386Y-100377715D01*
X168462788Y-100498027D01*
X168460731Y-100499785D01*
X168459787Y-100500207D01*
X168458839Y-100500897D01*
X168458694Y-100500697D01*
X168396971Y-100528360D01*
X168380193Y-100529500D01*
X166973480Y-100529500D01*
X166944314Y-100520935D01*
X166914578Y-100514617D01*
X166909230Y-100510634D01*
X166906441Y-100509815D01*
X166886222Y-100493603D01*
X166886117Y-100493499D01*
X166854906Y-100462288D01*
X166854104Y-100461793D01*
X166848492Y-100456235D01*
X166834810Y-100431463D01*
X166818462Y-100408375D01*
X166816906Y-100399046D01*
X166814712Y-100395074D01*
X166815149Y-100388514D01*
X166811750Y-100368132D01*
X166811750Y-100190018D01*
X166811749Y-100190016D01*
X166786342Y-100062287D01*
X166778105Y-100020876D01*
X166769119Y-99999182D01*
X166712111Y-99861551D01*
X166712104Y-99861538D01*
X166616296Y-99718152D01*
X166584729Y-99686585D01*
X166494349Y-99596205D01*
X160344319Y-93446175D01*
X160310834Y-93384852D01*
X160308000Y-93358494D01*
X160308000Y-92914246D01*
X160302264Y-92878033D01*
X160274130Y-92700403D01*
X160221197Y-92537490D01*
X160207227Y-92494493D01*
X160207226Y-92494490D01*
X160119322Y-92321971D01*
X160108933Y-92301581D01*
X159981672Y-92126422D01*
X159844319Y-91989069D01*
X159810834Y-91927746D01*
X159808000Y-91901388D01*
X159808000Y-91311268D01*
X159807999Y-91311266D01*
X159774356Y-91142133D01*
X159774355Y-91142126D01*
X159774353Y-91142121D01*
X159708361Y-90982801D01*
X159708354Y-90982788D01*
X159612546Y-90839402D01*
X159603920Y-90830776D01*
X159490599Y-90717455D01*
X158159325Y-89386181D01*
X158125840Y-89324858D01*
X158130824Y-89255166D01*
X158172696Y-89199233D01*
X158238160Y-89174816D01*
X158247006Y-89174500D01*
X159334994Y-89174500D01*
X159402033Y-89194185D01*
G37*
%TD.AperFunction*%
%TA.AperFunction,Conductor*%
G36*
X156637808Y-36828184D02*
G01*
X156658450Y-36844818D01*
X163963181Y-44149548D01*
X163996666Y-44210871D01*
X163999500Y-44237229D01*
X163999500Y-45637769D01*
X163979815Y-45704808D01*
X163963181Y-45725450D01*
X162914550Y-46774080D01*
X162914549Y-46774081D01*
X162865314Y-46847769D01*
X162865312Y-46847772D01*
X162844391Y-46879081D01*
X162828973Y-46897868D01*
X162742028Y-46984815D01*
X162653617Y-47131064D01*
X162652017Y-47132528D01*
X162651393Y-47134607D01*
X162626374Y-47156012D01*
X162602089Y-47178252D01*
X162599950Y-47178619D01*
X162598303Y-47180029D01*
X162565686Y-47184510D01*
X162533229Y-47190090D01*
X162531232Y-47189243D01*
X162529083Y-47189539D01*
X162499207Y-47175668D01*
X162468901Y-47162821D01*
X162467061Y-47160743D01*
X162465711Y-47160116D01*
X162451789Y-47143491D01*
X162442766Y-47133298D01*
X162441028Y-47130557D01*
X162440978Y-47130394D01*
X162352972Y-46984815D01*
X162341176Y-46973019D01*
X162333828Y-46961426D01*
X162329891Y-46947703D01*
X162321745Y-46934111D01*
X162321490Y-46934217D01*
X162320776Y-46932494D01*
X162319900Y-46931032D01*
X162319160Y-46928596D01*
X162319159Y-46928588D01*
X162264908Y-46797617D01*
X162263264Y-46793022D01*
X162180454Y-46669088D01*
X162180453Y-46669087D01*
X162180451Y-46669084D01*
X162075916Y-46564549D01*
X156181819Y-40670451D01*
X156148334Y-40609128D01*
X156145500Y-40582770D01*
X156145500Y-39161613D01*
X156165185Y-39094574D01*
X156196613Y-39061296D01*
X156209646Y-39051828D01*
X156348828Y-38912646D01*
X156464524Y-38753405D01*
X156553884Y-38578025D01*
X156614709Y-38390826D01*
X156617560Y-38372826D01*
X156645500Y-38196422D01*
X156645500Y-37999577D01*
X156614709Y-37805173D01*
X156564942Y-37652009D01*
X156553884Y-37617975D01*
X156553882Y-37617972D01*
X156553882Y-37617970D01*
X156464523Y-37442594D01*
X156451445Y-37424594D01*
X156348828Y-37283354D01*
X156209646Y-37144172D01*
X156056380Y-37032817D01*
X156013715Y-36977486D01*
X156007736Y-36907873D01*
X156040342Y-36846078D01*
X156101181Y-36811721D01*
X156129260Y-36808499D01*
X156570769Y-36808499D01*
X156637808Y-36828184D01*
G37*
%TD.AperFunction*%
%TA.AperFunction,Conductor*%
G36*
X169103033Y-24470185D02*
G01*
X169123675Y-24486819D01*
X172088181Y-27451325D01*
X172121666Y-27512648D01*
X172124500Y-27539006D01*
X172124500Y-34585664D01*
X172104815Y-34652703D01*
X172088181Y-34673345D01*
X172036174Y-34725351D01*
X172036174Y-34725352D01*
X172036172Y-34725354D01*
X172010902Y-34760135D01*
X171920476Y-34884594D01*
X171831117Y-35059970D01*
X171770290Y-35247173D01*
X171739500Y-35441577D01*
X171739500Y-35638422D01*
X171770290Y-35832826D01*
X171831117Y-36020029D01*
X171840289Y-36038029D01*
X171920476Y-36195405D01*
X172036172Y-36354646D01*
X172175354Y-36493828D01*
X172188385Y-36503295D01*
X172231050Y-36558622D01*
X172239500Y-36603613D01*
X172239500Y-36883918D01*
X172239500Y-36883920D01*
X172239499Y-36883920D01*
X172268340Y-37028907D01*
X172268343Y-37028917D01*
X172324913Y-37165490D01*
X172324916Y-37165495D01*
X172337296Y-37184022D01*
X172337297Y-37184027D01*
X172337299Y-37184027D01*
X172403664Y-37283352D01*
X172407051Y-37288420D01*
X172407052Y-37288421D01*
X172977227Y-37858594D01*
X173010712Y-37919917D01*
X173012020Y-37965672D01*
X173009500Y-37981583D01*
X173009500Y-38178422D01*
X173040290Y-38372826D01*
X173101117Y-38560029D01*
X173110289Y-38578029D01*
X173190476Y-38735405D01*
X173306172Y-38894646D01*
X173445354Y-39033828D01*
X173604595Y-39149524D01*
X173687455Y-39191743D01*
X173779970Y-39238882D01*
X173779972Y-39238882D01*
X173779975Y-39238884D01*
X173835367Y-39256882D01*
X173967173Y-39299709D01*
X174161578Y-39330500D01*
X174161583Y-39330500D01*
X174358422Y-39330500D01*
X174552826Y-39299709D01*
X174740025Y-39238884D01*
X174915405Y-39149524D01*
X175074646Y-39033828D01*
X175213828Y-38894646D01*
X175329524Y-38735405D01*
X175409713Y-38578025D01*
X175419515Y-38558787D01*
X175467489Y-38507990D01*
X175535310Y-38491195D01*
X175601445Y-38513732D01*
X175640485Y-38558787D01*
X175730474Y-38735403D01*
X175765234Y-38783246D01*
X175846172Y-38894646D01*
X175985354Y-39033828D01*
X176144595Y-39149524D01*
X176227455Y-39191743D01*
X176319970Y-39238882D01*
X176319972Y-39238882D01*
X176319975Y-39238884D01*
X176375367Y-39256882D01*
X176507173Y-39299709D01*
X176701578Y-39330500D01*
X176701583Y-39330500D01*
X176898422Y-39330500D01*
X177092826Y-39299709D01*
X177280025Y-39238884D01*
X177455405Y-39149524D01*
X177614646Y-39033828D01*
X177753828Y-38894646D01*
X177869524Y-38735405D01*
X177958884Y-38560025D01*
X178019709Y-38372826D01*
X178050500Y-38178422D01*
X178050500Y-37981577D01*
X178019709Y-37787173D01*
X177987097Y-37686804D01*
X177958884Y-37599975D01*
X177958882Y-37599972D01*
X177958882Y-37599970D01*
X177869523Y-37424594D01*
X177753828Y-37265354D01*
X177614646Y-37126172D01*
X177461380Y-37014817D01*
X177418715Y-36959486D01*
X177412736Y-36889873D01*
X177445342Y-36828078D01*
X177506181Y-36793721D01*
X177534258Y-36790499D01*
X178575500Y-36790499D01*
X178642539Y-36810184D01*
X178688294Y-36862988D01*
X178699500Y-36914499D01*
X178699500Y-39412770D01*
X178679815Y-39479809D01*
X178663181Y-39500451D01*
X175075451Y-43088181D01*
X175014128Y-43121666D01*
X174987770Y-43124500D01*
X165112229Y-43124500D01*
X165045190Y-43104815D01*
X165024548Y-43088181D01*
X157951818Y-36015450D01*
X157918333Y-35954127D01*
X157915499Y-35927769D01*
X157915499Y-34760129D01*
X157915498Y-34760123D01*
X157915497Y-34760116D01*
X157909091Y-34700517D01*
X157902377Y-34682517D01*
X157858797Y-34565671D01*
X157858793Y-34565664D01*
X157772547Y-34450455D01*
X157772544Y-34450452D01*
X157657335Y-34364206D01*
X157657328Y-34364202D01*
X157522482Y-34313908D01*
X157522483Y-34313908D01*
X157462883Y-34307501D01*
X157462881Y-34307500D01*
X157462873Y-34307500D01*
X157462864Y-34307500D01*
X155867129Y-34307500D01*
X155867123Y-34307501D01*
X155807516Y-34313908D01*
X155672671Y-34364202D01*
X155672664Y-34364206D01*
X155557455Y-34450452D01*
X155557452Y-34450455D01*
X155471206Y-34565664D01*
X155471202Y-34565671D01*
X155420908Y-34700517D01*
X155416303Y-34743354D01*
X155414501Y-34760123D01*
X155414500Y-34760135D01*
X155414500Y-36355870D01*
X155414501Y-36355876D01*
X155420908Y-36415483D01*
X155471202Y-36550328D01*
X155471204Y-36550331D01*
X155545209Y-36649189D01*
X155569627Y-36714653D01*
X155554776Y-36782926D01*
X155505371Y-36832332D01*
X155445943Y-36847500D01*
X155296578Y-36847500D01*
X155102173Y-36878290D01*
X154914970Y-36939117D01*
X154739594Y-37028476D01*
X154664046Y-37083366D01*
X154580354Y-37144172D01*
X154580352Y-37144174D01*
X154580351Y-37144174D01*
X154441174Y-37283351D01*
X154441174Y-37283352D01*
X154441172Y-37283354D01*
X154437491Y-37288421D01*
X154325476Y-37442594D01*
X154235485Y-37619213D01*
X154187511Y-37670009D01*
X154119690Y-37686804D01*
X154053555Y-37664267D01*
X154014515Y-37619213D01*
X153924523Y-37442594D01*
X153911445Y-37424594D01*
X153808828Y-37283354D01*
X153669646Y-37144172D01*
X153510405Y-37028476D01*
X153475078Y-37010476D01*
X153335029Y-36939117D01*
X153147826Y-36878290D01*
X152953422Y-36847500D01*
X152953417Y-36847500D01*
X152894006Y-36847500D01*
X152826967Y-36827815D01*
X152806325Y-36811181D01*
X152540990Y-36545846D01*
X152507505Y-36484523D01*
X152512489Y-36414831D01*
X152536668Y-36377208D01*
X152535664Y-36376350D01*
X152538813Y-36372660D01*
X152538828Y-36372646D01*
X152654524Y-36213405D01*
X152743884Y-36038025D01*
X152804709Y-35850826D01*
X152815754Y-35781092D01*
X152835500Y-35656422D01*
X152835500Y-35459577D01*
X152804709Y-35265173D01*
X152743882Y-35077970D01*
X152682268Y-34957046D01*
X152654524Y-34902595D01*
X152538828Y-34743354D01*
X152496819Y-34701345D01*
X152463334Y-34640022D01*
X152460500Y-34613664D01*
X152460500Y-29055585D01*
X155609500Y-29055585D01*
X155609500Y-29360414D01*
X155609501Y-29360430D01*
X155649289Y-29662654D01*
X155728189Y-29957113D01*
X155844844Y-30238742D01*
X155844848Y-30238752D01*
X155997267Y-30502750D01*
X156182843Y-30744597D01*
X156182849Y-30744604D01*
X156398395Y-30960150D01*
X156398402Y-30960156D01*
X156640249Y-31145732D01*
X156904247Y-31298151D01*
X156904248Y-31298151D01*
X156904251Y-31298153D01*
X157092009Y-31375925D01*
X157185886Y-31414810D01*
X157185887Y-31414810D01*
X157185889Y-31414811D01*
X157480344Y-31493710D01*
X157782579Y-31533500D01*
X157782586Y-31533500D01*
X158087414Y-31533500D01*
X158087421Y-31533500D01*
X158179040Y-31521438D01*
X158248076Y-31532203D01*
X158300332Y-31578583D01*
X158319217Y-31645852D01*
X158310113Y-31690247D01*
X158310150Y-31690260D01*
X158310050Y-31690552D01*
X158309790Y-31691824D01*
X158308844Y-31694107D01*
X158308842Y-31694113D01*
X158249453Y-31915759D01*
X158249451Y-31915770D01*
X158219500Y-32143258D01*
X158219500Y-32372741D01*
X158244446Y-32562215D01*
X158249452Y-32600238D01*
X158249453Y-32600240D01*
X158308842Y-32821887D01*
X158396650Y-33033876D01*
X158396657Y-33033890D01*
X158511392Y-33232617D01*
X158651081Y-33414661D01*
X158651089Y-33414670D01*
X158813330Y-33576911D01*
X158813338Y-33576918D01*
X158995382Y-33716607D01*
X158995385Y-33716608D01*
X158995388Y-33716611D01*
X159194112Y-33831344D01*
X159194117Y-33831346D01*
X159194123Y-33831349D01*
X159285480Y-33869190D01*
X159406113Y-33919158D01*
X159627762Y-33978548D01*
X159855266Y-34008500D01*
X159855273Y-34008500D01*
X160084727Y-34008500D01*
X160084734Y-34008500D01*
X160312238Y-33978548D01*
X160533887Y-33919158D01*
X160745888Y-33831344D01*
X160944612Y-33716611D01*
X161126661Y-33576919D01*
X161126665Y-33576914D01*
X161126670Y-33576911D01*
X161288911Y-33414670D01*
X161288914Y-33414665D01*
X161288919Y-33414661D01*
X161428611Y-33232612D01*
X161543344Y-33033888D01*
X161631158Y-32821887D01*
X161690548Y-32600238D01*
X161720500Y-32372734D01*
X161720500Y-32143266D01*
X161718130Y-32125266D01*
X161718129Y-32125258D01*
X164124500Y-32125258D01*
X164124500Y-32354741D01*
X164149446Y-32544215D01*
X164154452Y-32582238D01*
X164154453Y-32582240D01*
X164213842Y-32803887D01*
X164301650Y-33015876D01*
X164301657Y-33015890D01*
X164416392Y-33214617D01*
X164556081Y-33396661D01*
X164556089Y-33396670D01*
X164718330Y-33558911D01*
X164718338Y-33558918D01*
X164718339Y-33558919D01*
X164741796Y-33576918D01*
X164900382Y-33698607D01*
X164900385Y-33698608D01*
X164900388Y-33698611D01*
X165099112Y-33813344D01*
X165099117Y-33813346D01*
X165099123Y-33813349D01*
X165190480Y-33851190D01*
X165311113Y-33901158D01*
X165532762Y-33960548D01*
X165760266Y-33990500D01*
X165760273Y-33990500D01*
X165989727Y-33990500D01*
X165989734Y-33990500D01*
X166217238Y-33960548D01*
X166438887Y-33901158D01*
X166650888Y-33813344D01*
X166849612Y-33698611D01*
X167031661Y-33558919D01*
X167031665Y-33558914D01*
X167031670Y-33558911D01*
X167193911Y-33396670D01*
X167193914Y-33396665D01*
X167193919Y-33396661D01*
X167333611Y-33214612D01*
X167448344Y-33015888D01*
X167536158Y-32803887D01*
X167595548Y-32582238D01*
X167625500Y-32354734D01*
X167625500Y-32125266D01*
X167595548Y-31897762D01*
X167536158Y-31676113D01*
X167535208Y-31673821D01*
X167535129Y-31673086D01*
X167534852Y-31672268D01*
X167535035Y-31672205D01*
X167527744Y-31604353D01*
X167559022Y-31541875D01*
X167619113Y-31506226D01*
X167665954Y-31503437D01*
X167757579Y-31515500D01*
X167757586Y-31515500D01*
X168062414Y-31515500D01*
X168062421Y-31515500D01*
X168364656Y-31475710D01*
X168659111Y-31396811D01*
X168940749Y-31280153D01*
X169204751Y-31127732D01*
X169446599Y-30942155D01*
X169662155Y-30726599D01*
X169847732Y-30484751D01*
X170000153Y-30220749D01*
X170116811Y-29939111D01*
X170195710Y-29644656D01*
X170235500Y-29342421D01*
X170235500Y-29037579D01*
X170195710Y-28735344D01*
X170116811Y-28440889D01*
X170000153Y-28159251D01*
X169847732Y-27895249D01*
X169675967Y-27671401D01*
X169662156Y-27653402D01*
X169662150Y-27653395D01*
X169446604Y-27437849D01*
X169446597Y-27437843D01*
X169204750Y-27252267D01*
X168940752Y-27099848D01*
X168940742Y-27099844D01*
X168659113Y-26983189D01*
X168364654Y-26904289D01*
X168062430Y-26864501D01*
X168062427Y-26864500D01*
X168062421Y-26864500D01*
X167757579Y-26864500D01*
X167757573Y-26864500D01*
X167757569Y-26864501D01*
X167455345Y-26904289D01*
X167160886Y-26983189D01*
X166879257Y-27099844D01*
X166879247Y-27099848D01*
X166615249Y-27252267D01*
X166373402Y-27437843D01*
X166373395Y-27437849D01*
X166157849Y-27653395D01*
X166157843Y-27653402D01*
X165972267Y-27895249D01*
X165819848Y-28159247D01*
X165819844Y-28159257D01*
X165703189Y-28440886D01*
X165624289Y-28735345D01*
X165584501Y-29037569D01*
X165584500Y-29037585D01*
X165584500Y-29342414D01*
X165584501Y-29342430D01*
X165624289Y-29644654D01*
X165703189Y-29939113D01*
X165819844Y-30220742D01*
X165819848Y-30220752D01*
X165867623Y-30303500D01*
X165884096Y-30371400D01*
X165861243Y-30437427D01*
X165806322Y-30480618D01*
X165764282Y-30488720D01*
X165764316Y-30489235D01*
X165760258Y-30489500D01*
X165543715Y-30518009D01*
X165532762Y-30519452D01*
X165465581Y-30537453D01*
X165311112Y-30578842D01*
X165099123Y-30666650D01*
X165099109Y-30666657D01*
X164900382Y-30781392D01*
X164718338Y-30921081D01*
X164556081Y-31083338D01*
X164416392Y-31265382D01*
X164301657Y-31464109D01*
X164301650Y-31464123D01*
X164213842Y-31676112D01*
X164154453Y-31897759D01*
X164154451Y-31897770D01*
X164124500Y-32125258D01*
X161718129Y-32125258D01*
X161710695Y-32068796D01*
X161690548Y-31915762D01*
X161631158Y-31694113D01*
X161564629Y-31533498D01*
X161543349Y-31482123D01*
X161543346Y-31482117D01*
X161543344Y-31482112D01*
X161428611Y-31283388D01*
X161428608Y-31283385D01*
X161428607Y-31283382D01*
X161288918Y-31101338D01*
X161288911Y-31101330D01*
X161126670Y-30939089D01*
X161126661Y-30939081D01*
X160944617Y-30799392D01*
X160745890Y-30684657D01*
X160745876Y-30684650D01*
X160533887Y-30596842D01*
X160466709Y-30578842D01*
X160312238Y-30537452D01*
X160274215Y-30532446D01*
X160084741Y-30507500D01*
X160080684Y-30507235D01*
X160080743Y-30506319D01*
X160017725Y-30487815D01*
X159971970Y-30435011D01*
X159962026Y-30365853D01*
X159977377Y-30321500D01*
X160025151Y-30238752D01*
X160025153Y-30238749D01*
X160141811Y-29957111D01*
X160220710Y-29662656D01*
X160260500Y-29360421D01*
X160260500Y-29055579D01*
X160220710Y-28753344D01*
X160141811Y-28458889D01*
X160025153Y-28177251D01*
X160014758Y-28159247D01*
X159872732Y-27913249D01*
X159687156Y-27671402D01*
X159687150Y-27671395D01*
X159471604Y-27455849D01*
X159471597Y-27455843D01*
X159229750Y-27270267D01*
X158965752Y-27117848D01*
X158965742Y-27117844D01*
X158684113Y-27001189D01*
X158389654Y-26922289D01*
X158087430Y-26882501D01*
X158087427Y-26882500D01*
X158087421Y-26882500D01*
X157782579Y-26882500D01*
X157782573Y-26882500D01*
X157782569Y-26882501D01*
X157480345Y-26922289D01*
X157185886Y-27001189D01*
X156904257Y-27117844D01*
X156904247Y-27117848D01*
X156640249Y-27270267D01*
X156398402Y-27455843D01*
X156398395Y-27455849D01*
X156182849Y-27671395D01*
X156182843Y-27671402D01*
X155997267Y-27913249D01*
X155844848Y-28177247D01*
X155844844Y-28177257D01*
X155728189Y-28458886D01*
X155649289Y-28753345D01*
X155609501Y-29055569D01*
X155609500Y-29055585D01*
X152460500Y-29055585D01*
X152460500Y-27029006D01*
X152480185Y-26961967D01*
X152496819Y-26941325D01*
X154951325Y-24486819D01*
X155012648Y-24453334D01*
X155039006Y-24450500D01*
X169035994Y-24450500D01*
X169103033Y-24470185D01*
G37*
%TD.AperFunction*%
%TA.AperFunction,Conductor*%
G36*
X192942539Y-19620185D02*
G01*
X192988294Y-19672989D01*
X192999500Y-19724500D01*
X192999500Y-127500500D01*
X192979815Y-127567539D01*
X192927011Y-127613294D01*
X192875500Y-127624500D01*
X130149500Y-127624500D01*
X130082461Y-127604815D01*
X130036706Y-127552011D01*
X130025500Y-127500500D01*
X130025500Y-125465000D01*
X130029249Y-109272648D01*
X142112000Y-109272648D01*
X142112000Y-109477351D01*
X142144022Y-109679534D01*
X142207281Y-109874223D01*
X142300215Y-110056613D01*
X142420528Y-110222213D01*
X142565286Y-110366971D01*
X142720249Y-110479556D01*
X142730890Y-110487287D01*
X142847107Y-110546503D01*
X142913276Y-110580218D01*
X142913278Y-110580218D01*
X142913281Y-110580220D01*
X143003396Y-110609500D01*
X143107965Y-110643477D01*
X143199836Y-110658028D01*
X143310148Y-110675500D01*
X143310149Y-110675500D01*
X143514851Y-110675500D01*
X143514852Y-110675500D01*
X143717034Y-110643477D01*
X143911719Y-110580220D01*
X144094110Y-110487287D01*
X144187090Y-110419732D01*
X144259713Y-110366971D01*
X144259715Y-110366968D01*
X144259719Y-110366966D01*
X144404466Y-110222219D01*
X144404468Y-110222215D01*
X144404471Y-110222213D01*
X144524784Y-110056614D01*
X144524785Y-110056613D01*
X144524787Y-110056610D01*
X144572016Y-109963917D01*
X144619989Y-109913123D01*
X144687810Y-109896328D01*
X144753945Y-109918865D01*
X144792985Y-109963919D01*
X144840215Y-110056614D01*
X144960528Y-110222213D01*
X145105286Y-110366971D01*
X145260249Y-110479556D01*
X145270890Y-110487287D01*
X145387107Y-110546503D01*
X145453276Y-110580218D01*
X145453278Y-110580218D01*
X145453281Y-110580220D01*
X145543396Y-110609500D01*
X145647965Y-110643477D01*
X145739836Y-110658028D01*
X145850148Y-110675500D01*
X145850149Y-110675500D01*
X146054851Y-110675500D01*
X146054852Y-110675500D01*
X146257034Y-110643477D01*
X146451719Y-110580220D01*
X146634110Y-110487287D01*
X146727090Y-110419732D01*
X146799713Y-110366971D01*
X146799715Y-110366968D01*
X146799719Y-110366966D01*
X146944466Y-110222219D01*
X146944468Y-110222215D01*
X146944471Y-110222213D01*
X147064784Y-110056614D01*
X147064785Y-110056613D01*
X147064787Y-110056610D01*
X147112016Y-109963917D01*
X147159989Y-109913123D01*
X147227810Y-109896328D01*
X147293945Y-109918865D01*
X147332985Y-109963919D01*
X147380215Y-110056614D01*
X147500528Y-110222213D01*
X147645286Y-110366971D01*
X147800249Y-110479556D01*
X147810890Y-110487287D01*
X147927107Y-110546503D01*
X147993276Y-110580218D01*
X147993278Y-110580218D01*
X147993281Y-110580220D01*
X148083396Y-110609500D01*
X148187965Y-110643477D01*
X148279836Y-110658028D01*
X148390148Y-110675500D01*
X148390149Y-110675500D01*
X148594851Y-110675500D01*
X148594852Y-110675500D01*
X148797034Y-110643477D01*
X148991719Y-110580220D01*
X149174110Y-110487287D01*
X149267090Y-110419732D01*
X149339713Y-110366971D01*
X149339715Y-110366968D01*
X149339719Y-110366966D01*
X149484466Y-110222219D01*
X149484468Y-110222215D01*
X149484471Y-110222213D01*
X149537232Y-110149590D01*
X149604787Y-110056610D01*
X149697720Y-109874219D01*
X149760977Y-109679534D01*
X149793000Y-109477352D01*
X149793000Y-109272648D01*
X152272000Y-109272648D01*
X152272000Y-109477351D01*
X152304022Y-109679534D01*
X152367281Y-109874223D01*
X152460215Y-110056613D01*
X152580528Y-110222213D01*
X152725286Y-110366971D01*
X152880249Y-110479556D01*
X152890890Y-110487287D01*
X153007107Y-110546503D01*
X153073276Y-110580218D01*
X153073278Y-110580218D01*
X153073281Y-110580220D01*
X153163396Y-110609500D01*
X153267965Y-110643477D01*
X153359836Y-110658028D01*
X153470148Y-110675500D01*
X153470149Y-110675500D01*
X153674851Y-110675500D01*
X153674852Y-110675500D01*
X153877034Y-110643477D01*
X154071719Y-110580220D01*
X154254110Y-110487287D01*
X154347090Y-110419732D01*
X154419713Y-110366971D01*
X154419715Y-110366968D01*
X154419719Y-110366966D01*
X154564466Y-110222219D01*
X154564468Y-110222215D01*
X154564471Y-110222213D01*
X154684784Y-110056614D01*
X154684785Y-110056613D01*
X154684787Y-110056610D01*
X154732016Y-109963917D01*
X154779989Y-109913123D01*
X154847810Y-109896328D01*
X154913945Y-109918865D01*
X154952985Y-109963919D01*
X155000215Y-110056614D01*
X155120528Y-110222213D01*
X155265286Y-110366971D01*
X155420249Y-110479556D01*
X155430890Y-110487287D01*
X155547107Y-110546503D01*
X155613276Y-110580218D01*
X155613278Y-110580218D01*
X155613281Y-110580220D01*
X155703396Y-110609500D01*
X155807965Y-110643477D01*
X155899836Y-110658028D01*
X156010148Y-110675500D01*
X156010149Y-110675500D01*
X156214851Y-110675500D01*
X156214852Y-110675500D01*
X156417034Y-110643477D01*
X156611719Y-110580220D01*
X156794110Y-110487287D01*
X156887090Y-110419732D01*
X156959713Y-110366971D01*
X156959715Y-110366968D01*
X156959719Y-110366966D01*
X157104466Y-110222219D01*
X157104468Y-110222215D01*
X157104471Y-110222213D01*
X157224784Y-110056614D01*
X157224785Y-110056613D01*
X157224787Y-110056610D01*
X157272016Y-109963917D01*
X157319989Y-109913123D01*
X157387810Y-109896328D01*
X157453945Y-109918865D01*
X157492985Y-109963919D01*
X157540215Y-110056614D01*
X157660528Y-110222213D01*
X157805286Y-110366971D01*
X157960249Y-110479556D01*
X157970890Y-110487287D01*
X158087107Y-110546503D01*
X158153276Y-110580218D01*
X158153278Y-110580218D01*
X158153281Y-110580220D01*
X158243396Y-110609500D01*
X158347965Y-110643477D01*
X158439836Y-110658028D01*
X158550148Y-110675500D01*
X158550149Y-110675500D01*
X158754851Y-110675500D01*
X158754852Y-110675500D01*
X158957034Y-110643477D01*
X159151719Y-110580220D01*
X159334110Y-110487287D01*
X159427090Y-110419732D01*
X159499713Y-110366971D01*
X159499715Y-110366968D01*
X159499719Y-110366966D01*
X159644466Y-110222219D01*
X159644468Y-110222215D01*
X159644471Y-110222213D01*
X159697232Y-110149590D01*
X159764787Y-110056610D01*
X159857720Y-109874219D01*
X159920977Y-109679534D01*
X159953000Y-109477352D01*
X159953000Y-109272648D01*
X159920977Y-109070466D01*
X159857720Y-108875781D01*
X159857718Y-108875778D01*
X159857718Y-108875776D01*
X159812015Y-108786080D01*
X159764787Y-108693390D01*
X159704769Y-108610781D01*
X159644471Y-108527786D01*
X159499713Y-108383028D01*
X159334113Y-108262715D01*
X159334112Y-108262714D01*
X159334110Y-108262713D01*
X159277153Y-108233691D01*
X159151723Y-108169781D01*
X158957034Y-108106522D01*
X158782495Y-108078878D01*
X158754852Y-108074500D01*
X158550148Y-108074500D01*
X158525829Y-108078351D01*
X158347965Y-108106522D01*
X158153276Y-108169781D01*
X157970886Y-108262715D01*
X157805286Y-108383028D01*
X157660528Y-108527786D01*
X157540215Y-108693386D01*
X157492985Y-108786080D01*
X157445010Y-108836876D01*
X157377189Y-108853671D01*
X157311054Y-108831134D01*
X157272015Y-108786080D01*
X157271383Y-108784840D01*
X157224787Y-108693390D01*
X157164769Y-108610781D01*
X157104471Y-108527786D01*
X156959713Y-108383028D01*
X156794113Y-108262715D01*
X156794112Y-108262714D01*
X156794110Y-108262713D01*
X156737153Y-108233691D01*
X156611723Y-108169781D01*
X156417034Y-108106522D01*
X156242495Y-108078878D01*
X156214852Y-108074500D01*
X156010148Y-108074500D01*
X155985829Y-108078351D01*
X155807965Y-108106522D01*
X155613276Y-108169781D01*
X155430886Y-108262715D01*
X155265286Y-108383028D01*
X155120528Y-108527786D01*
X155000215Y-108693386D01*
X154952985Y-108786080D01*
X154905010Y-108836876D01*
X154837189Y-108853671D01*
X154771054Y-108831134D01*
X154732015Y-108786080D01*
X154731383Y-108784840D01*
X154684787Y-108693390D01*
X154624769Y-108610781D01*
X154564471Y-108527786D01*
X154419713Y-108383028D01*
X154254113Y-108262715D01*
X154254112Y-108262714D01*
X154254110Y-108262713D01*
X154197153Y-108233691D01*
X154071723Y-108169781D01*
X153877034Y-108106522D01*
X153702495Y-108078878D01*
X153674852Y-108074500D01*
X153470148Y-108074500D01*
X153445829Y-108078351D01*
X153267965Y-108106522D01*
X153073276Y-108169781D01*
X152890886Y-108262715D01*
X152725286Y-108383028D01*
X152580528Y-108527786D01*
X152460215Y-108693386D01*
X152367281Y-108875776D01*
X152304022Y-109070465D01*
X152272000Y-109272648D01*
X149793000Y-109272648D01*
X149760977Y-109070466D01*
X149697720Y-108875781D01*
X149697718Y-108875778D01*
X149697718Y-108875776D01*
X149652015Y-108786080D01*
X149604787Y-108693390D01*
X149544769Y-108610781D01*
X149484471Y-108527786D01*
X149339713Y-108383028D01*
X149174113Y-108262715D01*
X149174112Y-108262714D01*
X149174110Y-108262713D01*
X149117153Y-108233691D01*
X148991723Y-108169781D01*
X148797034Y-108106522D01*
X148622495Y-108078878D01*
X148594852Y-108074500D01*
X148390148Y-108074500D01*
X148365829Y-108078351D01*
X148187965Y-108106522D01*
X147993276Y-108169781D01*
X147810886Y-108262715D01*
X147645286Y-108383028D01*
X147500528Y-108527786D01*
X147380215Y-108693386D01*
X147332985Y-108786080D01*
X147285010Y-108836876D01*
X147217189Y-108853671D01*
X147151054Y-108831134D01*
X147112015Y-108786080D01*
X147111383Y-108784840D01*
X147064787Y-108693390D01*
X147004769Y-108610781D01*
X146944471Y-108527786D01*
X146799713Y-108383028D01*
X146634113Y-108262715D01*
X146634112Y-108262714D01*
X146634110Y-108262713D01*
X146577153Y-108233691D01*
X146451723Y-108169781D01*
X146257034Y-108106522D01*
X146082495Y-108078878D01*
X146054852Y-108074500D01*
X145850148Y-108074500D01*
X145825829Y-108078351D01*
X145647965Y-108106522D01*
X145453276Y-108169781D01*
X145270886Y-108262715D01*
X145105286Y-108383028D01*
X144960528Y-108527786D01*
X144840215Y-108693386D01*
X144792985Y-108786080D01*
X144745010Y-108836876D01*
X144677189Y-108853671D01*
X144611054Y-108831134D01*
X144572015Y-108786080D01*
X144571383Y-108784840D01*
X144524787Y-108693390D01*
X144464769Y-108610781D01*
X144404471Y-108527786D01*
X144259713Y-108383028D01*
X144094113Y-108262715D01*
X144094112Y-108262714D01*
X144094110Y-108262713D01*
X144037153Y-108233691D01*
X143911723Y-108169781D01*
X143717034Y-108106522D01*
X143542495Y-108078878D01*
X143514852Y-108074500D01*
X143310148Y-108074500D01*
X143285829Y-108078351D01*
X143107965Y-108106522D01*
X142913276Y-108169781D01*
X142730886Y-108262715D01*
X142565286Y-108383028D01*
X142420528Y-108527786D01*
X142300215Y-108693386D01*
X142207281Y-108875776D01*
X142144022Y-109070465D01*
X142112000Y-109272648D01*
X130029249Y-109272648D01*
X130029250Y-109267747D01*
X130032104Y-96938766D01*
X131499500Y-96938766D01*
X131499500Y-103561233D01*
X131533143Y-103730366D01*
X131533146Y-103730378D01*
X131599138Y-103889698D01*
X131599145Y-103889711D01*
X131694954Y-104033098D01*
X131694957Y-104033102D01*
X133504955Y-105843099D01*
X133626901Y-105965045D01*
X133626902Y-105965046D01*
X133770288Y-106060854D01*
X133770301Y-106060861D01*
X133929621Y-106126853D01*
X133929626Y-106126855D01*
X134098766Y-106160499D01*
X134098769Y-106160500D01*
X134098771Y-106160500D01*
X134271229Y-106160500D01*
X134889242Y-106160500D01*
X134956281Y-106180185D01*
X134976923Y-106196819D01*
X135095213Y-106315109D01*
X135267179Y-106440048D01*
X135267181Y-106440049D01*
X135267184Y-106440051D01*
X135456588Y-106536557D01*
X135658757Y-106602246D01*
X135868713Y-106635500D01*
X135868714Y-106635500D01*
X136081286Y-106635500D01*
X136081287Y-106635500D01*
X136291243Y-106602246D01*
X136493412Y-106536557D01*
X136682816Y-106440051D01*
X136741135Y-106397680D01*
X136854786Y-106315109D01*
X136854788Y-106315106D01*
X136854792Y-106315104D01*
X137005104Y-106164792D01*
X137005106Y-106164788D01*
X137005109Y-106164786D01*
X137130048Y-105992820D01*
X137130047Y-105992820D01*
X137130051Y-105992816D01*
X137226557Y-105803412D01*
X137292246Y-105601243D01*
X137325500Y-105391287D01*
X137325500Y-105178713D01*
X137292246Y-104968757D01*
X137226557Y-104766588D01*
X137130051Y-104577184D01*
X137130049Y-104577181D01*
X137130048Y-104577179D01*
X137005109Y-104405213D01*
X136854786Y-104254890D01*
X136682820Y-104129951D01*
X136682115Y-104129591D01*
X136674054Y-104125485D01*
X136623259Y-104077512D01*
X136606463Y-104009692D01*
X136628999Y-103943556D01*
X136674054Y-103904515D01*
X136682816Y-103900051D01*
X136720116Y-103872951D01*
X136854786Y-103775109D01*
X136854788Y-103775106D01*
X136854792Y-103775104D01*
X137005104Y-103624792D01*
X137005106Y-103624788D01*
X137005109Y-103624786D01*
X137128190Y-103455378D01*
X137130051Y-103452816D01*
X137226557Y-103263412D01*
X137292246Y-103061243D01*
X137325500Y-102851287D01*
X137325500Y-102638713D01*
X137292246Y-102428757D01*
X137226557Y-102226588D01*
X137130051Y-102037184D01*
X137130049Y-102037181D01*
X137130048Y-102037179D01*
X137005109Y-101865213D01*
X136854786Y-101714890D01*
X136682820Y-101589951D01*
X136682115Y-101589591D01*
X136674054Y-101585485D01*
X136623259Y-101537512D01*
X136606463Y-101469692D01*
X136628999Y-101403556D01*
X136674054Y-101364515D01*
X136682816Y-101360051D01*
X136704789Y-101344086D01*
X136854786Y-101235109D01*
X136854788Y-101235106D01*
X136854792Y-101235104D01*
X136973077Y-101116819D01*
X137034400Y-101083334D01*
X137060758Y-101080500D01*
X139540994Y-101080500D01*
X139570434Y-101089144D01*
X139600421Y-101095668D01*
X139605436Y-101099422D01*
X139608033Y-101100185D01*
X139628675Y-101116819D01*
X139638181Y-101126325D01*
X139671666Y-101187648D01*
X139674500Y-101214006D01*
X139674500Y-103286233D01*
X139708143Y-103455366D01*
X139708146Y-103455378D01*
X139774138Y-103614698D01*
X139774145Y-103614711D01*
X139869954Y-103758098D01*
X139869957Y-103758102D01*
X141519955Y-105408099D01*
X141641901Y-105530045D01*
X141641902Y-105530046D01*
X141785288Y-105625854D01*
X141785301Y-105625861D01*
X141944621Y-105691853D01*
X141944626Y-105691855D01*
X142100102Y-105722781D01*
X142113766Y-105725499D01*
X142113769Y-105725500D01*
X142113771Y-105725500D01*
X150563132Y-105725500D01*
X150630171Y-105745185D01*
X150651346Y-105764383D01*
X150652181Y-105763549D01*
X150657288Y-105768656D01*
X150781344Y-105892712D01*
X150930666Y-105984814D01*
X151097203Y-106039999D01*
X151199991Y-106050500D01*
X152000008Y-106050499D01*
X152000016Y-106050498D01*
X152000019Y-106050498D01*
X152056302Y-106044748D01*
X152102797Y-106039999D01*
X152269334Y-105984814D01*
X152418656Y-105892712D01*
X152512319Y-105799049D01*
X152573642Y-105765564D01*
X152643334Y-105770548D01*
X152687681Y-105799049D01*
X152781344Y-105892712D01*
X152930666Y-105984814D01*
X153097203Y-106039999D01*
X153199991Y-106050500D01*
X154000008Y-106050499D01*
X154000016Y-106050498D01*
X154000019Y-106050498D01*
X154056302Y-106044748D01*
X154102797Y-106039999D01*
X154269334Y-105984814D01*
X154418656Y-105892712D01*
X154542712Y-105768656D01*
X154634814Y-105619334D01*
X154689999Y-105452797D01*
X154700500Y-105350009D01*
X154700499Y-104349992D01*
X154689999Y-104247203D01*
X154634814Y-104080666D01*
X154542712Y-103931344D01*
X154484319Y-103872951D01*
X154450834Y-103811628D01*
X154448000Y-103785270D01*
X154448000Y-102770047D01*
X154467685Y-102703008D01*
X154484319Y-102682366D01*
X154564466Y-102602219D01*
X154564468Y-102602215D01*
X154564471Y-102602213D01*
X154684784Y-102436614D01*
X154684785Y-102436613D01*
X154684787Y-102436610D01*
X154732016Y-102343917D01*
X154779989Y-102293123D01*
X154847810Y-102276328D01*
X154913945Y-102298865D01*
X154952983Y-102343917D01*
X154958639Y-102355016D01*
X155000215Y-102436614D01*
X155120528Y-102602213D01*
X155265286Y-102746971D01*
X155375190Y-102826819D01*
X155430890Y-102867287D01*
X155547107Y-102926503D01*
X155613276Y-102960218D01*
X155613278Y-102960218D01*
X155613281Y-102960220D01*
X155704356Y-102989812D01*
X155807965Y-103023477D01*
X155899836Y-103038028D01*
X156010148Y-103055500D01*
X156123494Y-103055500D01*
X156190533Y-103075185D01*
X156211175Y-103091819D01*
X159486897Y-106367542D01*
X159486901Y-106367545D01*
X159630288Y-106463354D01*
X159630301Y-106463361D01*
X159789621Y-106529353D01*
X159789626Y-106529355D01*
X159958766Y-106562999D01*
X159958769Y-106563000D01*
X159958771Y-106563000D01*
X160131229Y-106563000D01*
X161456520Y-106563000D01*
X161523559Y-106582685D01*
X161544201Y-106599319D01*
X161562594Y-106617712D01*
X161711916Y-106709814D01*
X161878453Y-106764999D01*
X161981241Y-106775500D01*
X163031258Y-106775499D01*
X163031266Y-106775498D01*
X163031269Y-106775498D01*
X163129142Y-106765500D01*
X163134047Y-106764999D01*
X163300584Y-106709814D01*
X163449906Y-106617712D01*
X163468299Y-106599319D01*
X163529622Y-106565834D01*
X163555980Y-106563000D01*
X164951520Y-106563000D01*
X165018559Y-106582685D01*
X165039201Y-106599319D01*
X165047594Y-106607712D01*
X165196916Y-106699814D01*
X165363453Y-106754999D01*
X165466241Y-106765500D01*
X166466258Y-106765499D01*
X166466266Y-106765498D01*
X166466269Y-106765498D01*
X166522552Y-106759748D01*
X166569047Y-106754999D01*
X166735584Y-106699814D01*
X166884906Y-106607712D01*
X167008962Y-106483656D01*
X167018836Y-106467648D01*
X168009500Y-106467648D01*
X168009500Y-106672351D01*
X168041522Y-106874534D01*
X168104781Y-107069223D01*
X168197715Y-107251613D01*
X168318028Y-107417213D01*
X168462786Y-107561971D01*
X168617749Y-107674556D01*
X168628390Y-107682287D01*
X168719840Y-107728883D01*
X168721080Y-107729515D01*
X168771876Y-107777490D01*
X168788671Y-107845311D01*
X168766134Y-107911446D01*
X168721080Y-107950485D01*
X168628386Y-107997715D01*
X168462786Y-108118028D01*
X168318028Y-108262786D01*
X168197715Y-108428386D01*
X168104781Y-108610776D01*
X168041522Y-108805465D01*
X168009500Y-109007648D01*
X168009500Y-109212351D01*
X168041522Y-109414534D01*
X168104781Y-109609223D01*
X168140607Y-109679534D01*
X168195694Y-109787648D01*
X168197715Y-109791613D01*
X168318028Y-109957213D01*
X168462786Y-110101971D01*
X168617749Y-110214556D01*
X168628390Y-110222287D01*
X168719840Y-110268883D01*
X168721080Y-110269515D01*
X168771876Y-110317490D01*
X168788671Y-110385311D01*
X168766134Y-110451446D01*
X168721080Y-110490485D01*
X168628386Y-110537715D01*
X168462786Y-110658028D01*
X168318028Y-110802786D01*
X168197715Y-110968386D01*
X168104781Y-111150776D01*
X168041522Y-111345465D01*
X168009500Y-111547648D01*
X168009500Y-111752351D01*
X168041522Y-111954534D01*
X168104781Y-112149223D01*
X168197715Y-112331613D01*
X168318028Y-112497213D01*
X168462786Y-112641971D01*
X168617749Y-112754556D01*
X168628390Y-112762287D01*
X168719840Y-112808883D01*
X168721080Y-112809515D01*
X168771876Y-112857490D01*
X168788671Y-112925311D01*
X168766134Y-112991446D01*
X168721080Y-113030485D01*
X168628386Y-113077715D01*
X168462786Y-113198028D01*
X168318028Y-113342786D01*
X168197715Y-113508386D01*
X168104781Y-113690776D01*
X168041522Y-113885465D01*
X168009500Y-114087648D01*
X168009500Y-114292351D01*
X168041522Y-114494534D01*
X168104781Y-114689223D01*
X168197715Y-114871613D01*
X168318028Y-115037213D01*
X168462786Y-115181971D01*
X168617749Y-115294556D01*
X168628390Y-115302287D01*
X168719840Y-115348883D01*
X168721080Y-115349515D01*
X168771876Y-115397490D01*
X168788671Y-115465311D01*
X168766134Y-115531446D01*
X168721080Y-115570485D01*
X168628386Y-115617715D01*
X168462786Y-115738028D01*
X168318028Y-115882786D01*
X168197715Y-116048386D01*
X168104781Y-116230776D01*
X168041522Y-116425465D01*
X168009500Y-116627648D01*
X168009500Y-116832351D01*
X168041522Y-117034534D01*
X168104781Y-117229223D01*
X168197715Y-117411613D01*
X168318028Y-117577213D01*
X168462786Y-117721971D01*
X168566306Y-117797181D01*
X168628390Y-117842287D01*
X168719840Y-117888883D01*
X168721080Y-117889515D01*
X168771876Y-117937490D01*
X168788671Y-118005311D01*
X168766134Y-118071446D01*
X168721080Y-118110485D01*
X168628386Y-118157715D01*
X168462786Y-118278028D01*
X168318028Y-118422786D01*
X168197715Y-118588386D01*
X168104781Y-118770776D01*
X168041522Y-118965465D01*
X168009500Y-119167648D01*
X168009500Y-119372351D01*
X168041522Y-119574534D01*
X168104781Y-119769223D01*
X168156140Y-119870018D01*
X168196913Y-119950040D01*
X168197715Y-119951613D01*
X168318028Y-120117213D01*
X168462786Y-120261971D01*
X168617749Y-120374556D01*
X168628390Y-120382287D01*
X168744607Y-120441503D01*
X168810776Y-120475218D01*
X168810778Y-120475218D01*
X168810781Y-120475220D01*
X168891832Y-120501555D01*
X169005465Y-120538477D01*
X169106557Y-120554488D01*
X169207648Y-120570500D01*
X169207649Y-120570500D01*
X169412351Y-120570500D01*
X169412352Y-120570500D01*
X169614534Y-120538477D01*
X169809219Y-120475220D01*
X169991610Y-120382287D01*
X170120482Y-120288657D01*
X170157213Y-120261971D01*
X170157215Y-120261968D01*
X170157219Y-120261966D01*
X170301966Y-120117219D01*
X170301968Y-120117215D01*
X170301971Y-120117213D01*
X170369447Y-120024339D01*
X170422287Y-119951610D01*
X170515220Y-119769219D01*
X170578477Y-119574534D01*
X170610500Y-119372352D01*
X170610500Y-119167648D01*
X170578477Y-118965466D01*
X170572707Y-118947709D01*
X170549127Y-118875137D01*
X170515220Y-118770781D01*
X170515218Y-118770778D01*
X170515218Y-118770776D01*
X170463865Y-118669991D01*
X170422287Y-118588390D01*
X170388713Y-118542179D01*
X170301971Y-118422786D01*
X170157213Y-118278028D01*
X169991614Y-118157715D01*
X169985006Y-118154348D01*
X169898917Y-118110483D01*
X169848123Y-118062511D01*
X169831328Y-117994690D01*
X169853865Y-117928555D01*
X169898917Y-117889516D01*
X169991610Y-117842287D01*
X170063550Y-117790020D01*
X170157213Y-117721971D01*
X170157215Y-117721968D01*
X170157219Y-117721966D01*
X170301966Y-117577219D01*
X170301968Y-117577215D01*
X170301971Y-117577213D01*
X170354732Y-117504590D01*
X170422287Y-117411610D01*
X170515220Y-117229219D01*
X170578477Y-117034534D01*
X170610500Y-116832352D01*
X170610500Y-116627648D01*
X170578477Y-116425466D01*
X170571887Y-116405185D01*
X170515218Y-116230776D01*
X170481503Y-116164607D01*
X170422287Y-116048390D01*
X170388713Y-116002179D01*
X170301971Y-115882786D01*
X170157213Y-115738028D01*
X169991614Y-115617715D01*
X169985006Y-115614348D01*
X169898917Y-115570483D01*
X169848123Y-115522511D01*
X169831328Y-115454690D01*
X169853865Y-115388555D01*
X169898917Y-115349516D01*
X169991610Y-115302287D01*
X170012770Y-115286913D01*
X170157213Y-115181971D01*
X170157215Y-115181968D01*
X170157219Y-115181966D01*
X170301966Y-115037219D01*
X170301968Y-115037215D01*
X170301971Y-115037213D01*
X170368346Y-114945854D01*
X170422287Y-114871610D01*
X170515220Y-114689219D01*
X170578477Y-114494534D01*
X170610500Y-114292352D01*
X170610500Y-114087648D01*
X170578477Y-113885466D01*
X170565076Y-113844223D01*
X170515218Y-113690776D01*
X170452353Y-113567398D01*
X170422287Y-113508390D01*
X170414556Y-113497749D01*
X170301971Y-113342786D01*
X170157213Y-113198028D01*
X169991614Y-113077715D01*
X169985006Y-113074348D01*
X169898917Y-113030483D01*
X169848123Y-112982511D01*
X169831328Y-112914690D01*
X169853865Y-112848555D01*
X169898917Y-112809516D01*
X169991610Y-112762287D01*
X170035295Y-112730548D01*
X170157213Y-112641971D01*
X170157215Y-112641968D01*
X170157219Y-112641966D01*
X170301966Y-112497219D01*
X170301968Y-112497215D01*
X170301971Y-112497213D01*
X170354732Y-112424590D01*
X170422287Y-112331610D01*
X170515220Y-112149219D01*
X170578477Y-111954534D01*
X170610500Y-111752352D01*
X170610500Y-111547648D01*
X170578477Y-111345466D01*
X170515220Y-111150781D01*
X170515218Y-111150778D01*
X170515218Y-111150776D01*
X170481503Y-111084607D01*
X170422287Y-110968390D01*
X170370021Y-110896451D01*
X170301971Y-110802786D01*
X170157213Y-110658028D01*
X169991614Y-110537715D01*
X169985006Y-110534348D01*
X169898917Y-110490483D01*
X169848123Y-110442511D01*
X169831328Y-110374690D01*
X169853865Y-110308555D01*
X169898917Y-110269516D01*
X169991610Y-110222287D01*
X170012770Y-110206913D01*
X170157213Y-110101971D01*
X170157215Y-110101968D01*
X170157219Y-110101966D01*
X170301966Y-109957219D01*
X170301968Y-109957215D01*
X170301971Y-109957213D01*
X170362266Y-109874223D01*
X170422287Y-109791610D01*
X170515220Y-109609219D01*
X170578477Y-109414534D01*
X170610500Y-109212352D01*
X170610500Y-109007648D01*
X170583452Y-108836876D01*
X170578477Y-108805465D01*
X170515218Y-108610776D01*
X170472929Y-108527781D01*
X170422287Y-108428390D01*
X170414556Y-108417749D01*
X170301971Y-108262786D01*
X170157213Y-108118028D01*
X169991614Y-107997715D01*
X169985006Y-107994348D01*
X169898917Y-107950483D01*
X169848123Y-107902511D01*
X169831328Y-107834690D01*
X169853865Y-107768555D01*
X169898917Y-107729516D01*
X169991610Y-107682287D01*
X170012770Y-107666913D01*
X170157213Y-107561971D01*
X170157215Y-107561968D01*
X170157219Y-107561966D01*
X170301966Y-107417219D01*
X170301968Y-107417215D01*
X170301971Y-107417213D01*
X170354732Y-107344590D01*
X170422287Y-107251610D01*
X170515220Y-107069219D01*
X170578477Y-106874534D01*
X170610500Y-106672352D01*
X170610500Y-106467648D01*
X170578477Y-106265466D01*
X170515220Y-106070781D01*
X170515218Y-106070778D01*
X170515218Y-106070776D01*
X170475495Y-105992816D01*
X170422287Y-105888390D01*
X170414556Y-105877749D01*
X170301971Y-105722786D01*
X170157213Y-105578028D01*
X169991613Y-105457715D01*
X169991612Y-105457714D01*
X169991610Y-105457713D01*
X169934653Y-105428691D01*
X169809223Y-105364781D01*
X169614534Y-105301522D01*
X169439995Y-105273878D01*
X169412352Y-105269500D01*
X169207648Y-105269500D01*
X169183329Y-105273351D01*
X169005465Y-105301522D01*
X168810776Y-105364781D01*
X168628386Y-105457715D01*
X168462786Y-105578028D01*
X168318028Y-105722786D01*
X168197715Y-105888386D01*
X168104781Y-106070776D01*
X168041522Y-106265465D01*
X168009500Y-106467648D01*
X167018836Y-106467648D01*
X167101064Y-106334334D01*
X167156249Y-106167797D01*
X167166750Y-106065009D01*
X167166749Y-105264992D01*
X167156249Y-105162203D01*
X167101064Y-104995666D01*
X167008962Y-104846344D01*
X166884906Y-104722288D01*
X166879799Y-104717181D01*
X166880864Y-104716115D01*
X166867101Y-104694699D01*
X166848462Y-104668375D01*
X166847858Y-104664755D01*
X166846773Y-104663067D01*
X166841750Y-104628132D01*
X166841750Y-104412230D01*
X166861435Y-104345191D01*
X166878069Y-104324549D01*
X166978962Y-104223656D01*
X167071064Y-104074334D01*
X167126249Y-103907797D01*
X167136750Y-103805009D01*
X167136749Y-103004992D01*
X167135198Y-102989812D01*
X167126249Y-102902203D01*
X167126248Y-102902200D01*
X167100594Y-102824781D01*
X167071064Y-102735666D01*
X166978962Y-102586344D01*
X166885299Y-102492681D01*
X166880960Y-102484735D01*
X166873713Y-102479310D01*
X166864478Y-102454550D01*
X166851814Y-102431358D01*
X166852459Y-102422328D01*
X166849296Y-102413846D01*
X166854912Y-102388025D01*
X166856798Y-102361666D01*
X166862616Y-102352612D01*
X166864148Y-102345573D01*
X166885299Y-102317319D01*
X166885799Y-102316819D01*
X166947122Y-102283334D01*
X166973480Y-102280500D01*
X168213644Y-102280500D01*
X168280683Y-102300185D01*
X168313961Y-102331614D01*
X168318028Y-102337212D01*
X168318035Y-102337220D01*
X168462786Y-102481971D01*
X168606443Y-102586342D01*
X168628390Y-102602287D01*
X168744607Y-102661503D01*
X168810776Y-102695218D01*
X168810778Y-102695218D01*
X168810781Y-102695220D01*
X168882999Y-102718685D01*
X169005465Y-102758477D01*
X169024697Y-102761523D01*
X169207648Y-102790500D01*
X169320994Y-102790500D01*
X169388033Y-102810185D01*
X169408675Y-102826819D01*
X171291897Y-104710042D01*
X171291901Y-104710045D01*
X171435288Y-104805854D01*
X171435301Y-104805861D01*
X171594621Y-104871853D01*
X171594626Y-104871855D01*
X171763766Y-104905499D01*
X171763769Y-104905500D01*
X171763771Y-104905500D01*
X171936229Y-104905500D01*
X175914953Y-104905500D01*
X175981992Y-104925185D01*
X176002634Y-104941819D01*
X176082786Y-105021971D01*
X176237749Y-105134556D01*
X176248390Y-105142287D01*
X176319880Y-105178713D01*
X176341080Y-105189515D01*
X176391876Y-105237490D01*
X176408671Y-105305311D01*
X176386134Y-105371446D01*
X176341080Y-105410485D01*
X176248386Y-105457715D01*
X176082786Y-105578028D01*
X175938028Y-105722786D01*
X175817715Y-105888386D01*
X175724781Y-106070776D01*
X175661522Y-106265465D01*
X175629500Y-106467648D01*
X175629500Y-106672351D01*
X175661522Y-106874534D01*
X175724781Y-107069223D01*
X175817715Y-107251613D01*
X175938028Y-107417213D01*
X176082786Y-107561971D01*
X176237749Y-107674556D01*
X176248390Y-107682287D01*
X176339840Y-107728883D01*
X176341080Y-107729515D01*
X176391876Y-107777490D01*
X176408671Y-107845311D01*
X176386134Y-107911446D01*
X176341080Y-107950485D01*
X176248386Y-107997715D01*
X176082786Y-108118028D01*
X175938028Y-108262786D01*
X175817715Y-108428386D01*
X175724781Y-108610776D01*
X175661522Y-108805465D01*
X175629500Y-109007648D01*
X175629500Y-109212351D01*
X175661522Y-109414534D01*
X175724781Y-109609223D01*
X175760607Y-109679534D01*
X175815694Y-109787648D01*
X175817715Y-109791613D01*
X175938028Y-109957213D01*
X176082786Y-110101971D01*
X176237749Y-110214556D01*
X176248390Y-110222287D01*
X176339840Y-110268883D01*
X176341080Y-110269515D01*
X176391876Y-110317490D01*
X176408671Y-110385311D01*
X176386134Y-110451446D01*
X176341080Y-110490485D01*
X176248386Y-110537715D01*
X176082786Y-110658028D01*
X175938028Y-110802786D01*
X175817715Y-110968386D01*
X175724781Y-111150776D01*
X175661522Y-111345465D01*
X175629500Y-111547648D01*
X175629500Y-111752351D01*
X175661522Y-111954534D01*
X175724781Y-112149223D01*
X175817715Y-112331613D01*
X175938028Y-112497213D01*
X176082786Y-112641971D01*
X176237749Y-112754556D01*
X176248390Y-112762287D01*
X176339840Y-112808883D01*
X176341080Y-112809515D01*
X176391876Y-112857490D01*
X176408671Y-112925311D01*
X176386134Y-112991446D01*
X176341080Y-113030485D01*
X176248386Y-113077715D01*
X176082786Y-113198028D01*
X175938028Y-113342786D01*
X175817715Y-113508386D01*
X175724781Y-113690776D01*
X175661522Y-113885465D01*
X175629500Y-114087648D01*
X175629500Y-114292351D01*
X175661522Y-114494534D01*
X175724781Y-114689223D01*
X175817715Y-114871613D01*
X175938028Y-115037213D01*
X176082786Y-115181971D01*
X176237749Y-115294556D01*
X176248390Y-115302287D01*
X176339840Y-115348883D01*
X176341080Y-115349515D01*
X176391876Y-115397490D01*
X176408671Y-115465311D01*
X176386134Y-115531446D01*
X176341080Y-115570485D01*
X176248386Y-115617715D01*
X176082786Y-115738028D01*
X175938028Y-115882786D01*
X175817715Y-116048386D01*
X175724781Y-116230776D01*
X175661522Y-116425465D01*
X175629500Y-116627648D01*
X175629500Y-116832351D01*
X175661522Y-117034534D01*
X175724781Y-117229223D01*
X175817715Y-117411613D01*
X175938028Y-117577213D01*
X175938034Y-117577219D01*
X176082781Y-117721966D01*
X176176452Y-117790021D01*
X176219117Y-117845350D01*
X176225096Y-117914963D01*
X176192491Y-117976759D01*
X176142571Y-118008045D01*
X176060666Y-118035186D01*
X176060663Y-118035187D01*
X175911342Y-118127289D01*
X175787289Y-118251342D01*
X175695187Y-118400663D01*
X175695185Y-118400668D01*
X175677662Y-118453549D01*
X175640001Y-118567203D01*
X175640001Y-118567204D01*
X175640000Y-118567204D01*
X175629500Y-118669983D01*
X175629500Y-119870001D01*
X175629501Y-119870018D01*
X175640000Y-119972796D01*
X175640001Y-119972799D01*
X175695185Y-120139331D01*
X175695187Y-120139336D01*
X175709055Y-120161819D01*
X175787288Y-120288656D01*
X175911344Y-120412712D01*
X176060666Y-120504814D01*
X176227203Y-120559999D01*
X176329991Y-120570500D01*
X177530008Y-120570499D01*
X177632797Y-120559999D01*
X177799334Y-120504814D01*
X177948656Y-120412712D01*
X178072712Y-120288656D01*
X178164814Y-120139334D01*
X178204027Y-120020995D01*
X178243798Y-119963552D01*
X178252824Y-119956910D01*
X178263099Y-119950045D01*
X179761325Y-118451819D01*
X179788252Y-118437115D01*
X179814071Y-118420523D01*
X179820271Y-118419631D01*
X179822648Y-118418334D01*
X179849006Y-118415500D01*
X179893132Y-118415500D01*
X179960171Y-118435185D01*
X179981346Y-118454383D01*
X179982181Y-118453549D01*
X179987288Y-118458656D01*
X180111344Y-118582712D01*
X180260666Y-118674814D01*
X180427203Y-118729999D01*
X180440802Y-118731388D01*
X180444019Y-118731717D01*
X180458812Y-118737753D01*
X180474751Y-118738893D01*
X180490498Y-118750681D01*
X180508711Y-118758113D01*
X180517893Y-118771189D01*
X180530684Y-118780765D01*
X180537557Y-118799193D01*
X180548863Y-118815294D01*
X180549517Y-118831259D01*
X180555101Y-118846229D01*
X180550919Y-118865449D01*
X180551726Y-118885105D01*
X180543470Y-118899690D01*
X180540249Y-118914502D01*
X180519098Y-118942756D01*
X180350073Y-119111781D01*
X180301397Y-119141805D01*
X180200670Y-119175183D01*
X180200669Y-119175184D01*
X180051342Y-119267289D01*
X179927289Y-119391342D01*
X179835187Y-119540663D01*
X179835185Y-119540668D01*
X179823963Y-119574534D01*
X179780001Y-119707203D01*
X179780001Y-119707204D01*
X179780000Y-119707204D01*
X179769500Y-119809983D01*
X179769500Y-120120993D01*
X179749815Y-120188032D01*
X179733180Y-120208674D01*
X178369401Y-121572455D01*
X178334384Y-121607472D01*
X178247453Y-121694402D01*
X178151645Y-121837788D01*
X178151638Y-121837801D01*
X178085646Y-121997121D01*
X178085643Y-121997133D01*
X178052000Y-122166266D01*
X178052000Y-122320270D01*
X178032315Y-122387309D01*
X178015681Y-122407951D01*
X177997289Y-122426342D01*
X177905187Y-122575663D01*
X177905186Y-122575666D01*
X177850001Y-122742203D01*
X177850001Y-122742204D01*
X177850000Y-122742204D01*
X177839500Y-122844983D01*
X177839500Y-123895001D01*
X177839501Y-123895019D01*
X177850000Y-123997796D01*
X177850001Y-123997799D01*
X177905185Y-124164331D01*
X177905186Y-124164334D01*
X177997288Y-124313656D01*
X178121344Y-124437712D01*
X178270666Y-124529814D01*
X178437203Y-124584999D01*
X178539991Y-124595500D01*
X179315008Y-124595499D01*
X179315016Y-124595498D01*
X179315019Y-124595498D01*
X179371302Y-124589748D01*
X179417797Y-124584999D01*
X179584334Y-124529814D01*
X179733656Y-124437712D01*
X179857712Y-124313656D01*
X179949814Y-124164334D01*
X180004999Y-123997797D01*
X180015500Y-123895009D01*
X180015499Y-122844992D01*
X180004999Y-122742203D01*
X179949814Y-122575666D01*
X179949813Y-122575665D01*
X179947542Y-122568810D01*
X179950357Y-122567876D01*
X179948977Y-122558792D01*
X179941071Y-122537595D01*
X179943829Y-122524915D01*
X179941880Y-122512087D01*
X179951113Y-122491432D01*
X179955923Y-122469322D01*
X179968518Y-122452496D01*
X179970394Y-122448301D01*
X179977061Y-122441081D01*
X179987022Y-122431120D01*
X180048343Y-122397637D01*
X180118035Y-122402621D01*
X180173968Y-122444493D01*
X180177804Y-122449914D01*
X180189953Y-122468097D01*
X180189957Y-122468102D01*
X181223017Y-123501161D01*
X181256502Y-123562484D01*
X181253042Y-123627845D01*
X181240001Y-123667199D01*
X181229500Y-123769983D01*
X181229500Y-125070001D01*
X181229501Y-125070018D01*
X181240000Y-125172796D01*
X181240001Y-125172799D01*
X181295184Y-125339329D01*
X181295186Y-125339334D01*
X181387288Y-125488656D01*
X181511344Y-125612712D01*
X181660666Y-125704814D01*
X181827203Y-125759999D01*
X181929991Y-125770500D01*
X184830008Y-125770499D01*
X184932797Y-125759999D01*
X185099334Y-125704814D01*
X185248656Y-125612712D01*
X185372712Y-125488656D01*
X185464814Y-125339334D01*
X185519999Y-125172797D01*
X185530500Y-125070009D01*
X185530499Y-123769992D01*
X185519999Y-123667203D01*
X185464814Y-123500666D01*
X185372712Y-123351344D01*
X185248656Y-123227288D01*
X185099334Y-123135186D01*
X184932797Y-123080001D01*
X184932795Y-123080000D01*
X184830016Y-123069500D01*
X184830009Y-123069500D01*
X183319006Y-123069500D01*
X183251967Y-123049815D01*
X183231325Y-123033181D01*
X181781819Y-121583675D01*
X181767115Y-121556747D01*
X181750523Y-121530929D01*
X181749631Y-121524728D01*
X181748334Y-121522352D01*
X181745500Y-121495994D01*
X181745500Y-121347230D01*
X181765185Y-121280191D01*
X181781819Y-121259549D01*
X181782319Y-121259049D01*
X181801963Y-121248322D01*
X181817989Y-121234436D01*
X181830756Y-121232600D01*
X181843642Y-121225564D01*
X181867717Y-121227285D01*
X181887147Y-121224492D01*
X181898007Y-121229451D01*
X181913334Y-121230548D01*
X181945071Y-121250945D01*
X181950703Y-121253517D01*
X181951849Y-121255301D01*
X181957681Y-121259049D01*
X182051344Y-121352712D01*
X182200666Y-121444814D01*
X182367203Y-121499999D01*
X182469991Y-121510500D01*
X183270008Y-121510499D01*
X183270016Y-121510498D01*
X183270019Y-121510498D01*
X183326302Y-121504748D01*
X183372797Y-121499999D01*
X183539334Y-121444814D01*
X183688656Y-121352712D01*
X183812712Y-121228656D01*
X183812712Y-121228655D01*
X183817819Y-121223549D01*
X183819705Y-121225435D01*
X183866625Y-121192212D01*
X183906868Y-121185500D01*
X184420994Y-121185500D01*
X184488033Y-121205185D01*
X184508675Y-121221819D01*
X185694383Y-122407527D01*
X185721261Y-122447751D01*
X185724140Y-122454702D01*
X185724143Y-122454707D01*
X185819951Y-122598094D01*
X185819957Y-122598102D01*
X186723017Y-123501161D01*
X186756502Y-123562484D01*
X186753042Y-123627845D01*
X186740001Y-123667199D01*
X186729500Y-123769983D01*
X186729500Y-125070001D01*
X186729501Y-125070018D01*
X186740000Y-125172796D01*
X186740001Y-125172799D01*
X186795184Y-125339329D01*
X186795186Y-125339334D01*
X186887288Y-125488656D01*
X187011344Y-125612712D01*
X187160666Y-125704814D01*
X187327203Y-125759999D01*
X187429991Y-125770500D01*
X190330008Y-125770499D01*
X190432797Y-125759999D01*
X190599334Y-125704814D01*
X190748656Y-125612712D01*
X190872712Y-125488656D01*
X190964814Y-125339334D01*
X190996869Y-125242595D01*
X191036640Y-125185153D01*
X191045664Y-125178512D01*
X191163099Y-125100045D01*
X191847424Y-124415718D01*
X191887650Y-124388841D01*
X192039698Y-124325861D01*
X192039698Y-124325860D01*
X192039705Y-124325858D01*
X192183099Y-124230045D01*
X192305045Y-124108099D01*
X192400858Y-123964705D01*
X192466855Y-123805374D01*
X192500500Y-123636229D01*
X192500500Y-109313771D01*
X192500500Y-109313768D01*
X192500499Y-109313766D01*
X192491345Y-109267747D01*
X192466855Y-109144626D01*
X192410117Y-109007648D01*
X192400861Y-108985301D01*
X192400854Y-108985288D01*
X192305046Y-108841902D01*
X192249224Y-108786080D01*
X192183099Y-108719955D01*
X189503142Y-106039998D01*
X186813102Y-103349957D01*
X186813098Y-103349954D01*
X186669711Y-103254145D01*
X186669698Y-103254138D01*
X186510378Y-103188146D01*
X186510366Y-103188143D01*
X186341232Y-103154500D01*
X186341229Y-103154500D01*
X177945047Y-103154500D01*
X177878008Y-103134815D01*
X177857366Y-103118181D01*
X177777213Y-103038028D01*
X177611613Y-102917715D01*
X177611612Y-102917714D01*
X177611610Y-102917713D01*
X177512638Y-102867284D01*
X177429223Y-102824781D01*
X177234534Y-102761522D01*
X177059995Y-102733878D01*
X177032352Y-102729500D01*
X176827648Y-102729500D01*
X176803329Y-102733351D01*
X176625465Y-102761522D01*
X176430776Y-102824781D01*
X176248386Y-102917715D01*
X176082786Y-103038028D01*
X176082782Y-103038032D01*
X176002634Y-103118181D01*
X175941311Y-103151666D01*
X175914953Y-103154500D01*
X172264006Y-103154500D01*
X172196967Y-103134815D01*
X172176325Y-103118181D01*
X170646819Y-101588675D01*
X170613334Y-101527352D01*
X170610500Y-101500994D01*
X170610500Y-101387648D01*
X170578477Y-101185465D01*
X170519837Y-101004991D01*
X170515220Y-100990781D01*
X170515218Y-100990778D01*
X170515218Y-100990776D01*
X170461661Y-100885666D01*
X170422287Y-100808390D01*
X170414556Y-100797749D01*
X170301971Y-100642786D01*
X170157213Y-100498028D01*
X169991614Y-100377715D01*
X169949659Y-100356338D01*
X169898917Y-100330483D01*
X169848123Y-100282511D01*
X169831328Y-100214690D01*
X169853865Y-100148555D01*
X169898917Y-100109516D01*
X169991610Y-100062287D01*
X170016318Y-100044336D01*
X170157213Y-99941971D01*
X170157215Y-99941968D01*
X170157219Y-99941966D01*
X170301966Y-99797219D01*
X170301968Y-99797215D01*
X170301971Y-99797213D01*
X170382343Y-99686588D01*
X170422287Y-99631610D01*
X170515220Y-99449219D01*
X170578477Y-99254534D01*
X170610500Y-99052352D01*
X170610500Y-98847648D01*
X170578477Y-98645466D01*
X170570194Y-98619975D01*
X170515218Y-98450776D01*
X170480757Y-98383143D01*
X170422287Y-98268390D01*
X170414556Y-98257749D01*
X170301971Y-98102786D01*
X170157213Y-97958028D01*
X169991614Y-97837715D01*
X169985006Y-97834348D01*
X169898917Y-97790483D01*
X169848123Y-97742511D01*
X169831328Y-97674690D01*
X169853865Y-97608555D01*
X169898917Y-97569516D01*
X169991610Y-97522287D01*
X170031018Y-97493656D01*
X170157213Y-97401971D01*
X170157215Y-97401968D01*
X170157219Y-97401966D01*
X170301966Y-97257219D01*
X170326816Y-97223016D01*
X170335100Y-97211615D01*
X170390429Y-97168949D01*
X170435418Y-97160500D01*
X171117281Y-97160500D01*
X171184320Y-97180185D01*
X171186121Y-97181364D01*
X171248453Y-97223013D01*
X171412334Y-97290894D01*
X171412336Y-97290894D01*
X171412341Y-97290896D01*
X171586304Y-97325499D01*
X171586307Y-97325500D01*
X171586309Y-97325500D01*
X171763693Y-97325500D01*
X171763694Y-97325499D01*
X171821682Y-97313964D01*
X171937658Y-97290896D01*
X171937661Y-97290894D01*
X171937666Y-97290894D01*
X172101547Y-97223013D01*
X172249035Y-97124464D01*
X172374464Y-96999035D01*
X172473013Y-96851547D01*
X172540894Y-96687666D01*
X172575500Y-96513691D01*
X172575500Y-96336309D01*
X172575500Y-96336306D01*
X172575499Y-96336304D01*
X172540896Y-96162341D01*
X172540893Y-96162332D01*
X172473016Y-95998459D01*
X172473009Y-95998446D01*
X172374464Y-95850965D01*
X172374461Y-95850961D01*
X172249038Y-95725538D01*
X172249034Y-95725535D01*
X172101553Y-95626990D01*
X172101540Y-95626983D01*
X171937667Y-95559106D01*
X171937658Y-95559103D01*
X171763694Y-95524500D01*
X171763691Y-95524500D01*
X171586309Y-95524500D01*
X171586306Y-95524500D01*
X171412341Y-95559103D01*
X171412332Y-95559106D01*
X171248452Y-95626987D01*
X171248449Y-95626988D01*
X171231069Y-95638602D01*
X171164391Y-95659480D01*
X171162178Y-95659500D01*
X170435418Y-95659500D01*
X170368379Y-95639815D01*
X170335100Y-95608385D01*
X170301971Y-95562787D01*
X170301967Y-95562782D01*
X170157213Y-95418028D01*
X169991614Y-95297715D01*
X169985006Y-95294348D01*
X169898917Y-95250483D01*
X169848123Y-95202511D01*
X169831328Y-95134690D01*
X169853865Y-95068555D01*
X169898917Y-95029516D01*
X169991610Y-94982287D01*
X170012770Y-94966913D01*
X170157213Y-94861971D01*
X170157215Y-94861968D01*
X170157219Y-94861966D01*
X170301966Y-94717219D01*
X170301968Y-94717215D01*
X170301971Y-94717213D01*
X170372236Y-94620500D01*
X170422287Y-94551610D01*
X170515220Y-94369219D01*
X170578477Y-94174534D01*
X170610500Y-93972352D01*
X170610500Y-93767648D01*
X170601681Y-93711971D01*
X170610635Y-93642679D01*
X170636470Y-93604895D01*
X174432952Y-89808415D01*
X174477296Y-89742049D01*
X174515084Y-89685495D01*
X174549113Y-89603341D01*
X174571659Y-89548912D01*
X174590228Y-89455560D01*
X174600500Y-89403919D01*
X174600500Y-85281229D01*
X174620185Y-85214190D01*
X174672989Y-85168435D01*
X174742147Y-85158491D01*
X174805703Y-85187516D01*
X174812181Y-85193548D01*
X175603526Y-85984893D01*
X175637011Y-86046216D01*
X175638318Y-86091971D01*
X175629500Y-86147647D01*
X175629500Y-86352351D01*
X175661522Y-86554534D01*
X175724781Y-86749223D01*
X175788691Y-86874653D01*
X175816916Y-86930046D01*
X175817715Y-86931613D01*
X175938028Y-87097213D01*
X176082786Y-87241971D01*
X176214042Y-87337332D01*
X176248390Y-87362287D01*
X176339840Y-87408883D01*
X176341080Y-87409515D01*
X176391876Y-87457490D01*
X176408671Y-87525311D01*
X176386134Y-87591446D01*
X176341080Y-87630485D01*
X176248386Y-87677715D01*
X176082786Y-87798028D01*
X175938028Y-87942786D01*
X175817715Y-88108386D01*
X175724781Y-88290776D01*
X175661522Y-88485465D01*
X175629500Y-88687648D01*
X175629500Y-88892351D01*
X175661522Y-89094534D01*
X175724781Y-89289223D01*
X175817715Y-89471613D01*
X175938028Y-89637213D01*
X176082786Y-89781971D01*
X176237749Y-89894556D01*
X176248390Y-89902287D01*
X176339840Y-89948883D01*
X176341080Y-89949515D01*
X176391876Y-89997490D01*
X176408671Y-90065311D01*
X176386134Y-90131446D01*
X176341080Y-90170485D01*
X176248386Y-90217715D01*
X176082786Y-90338028D01*
X175938028Y-90482786D01*
X175817715Y-90648386D01*
X175724781Y-90830776D01*
X175661522Y-91025465D01*
X175629500Y-91227648D01*
X175629500Y-91432351D01*
X175661522Y-91634534D01*
X175724781Y-91829223D01*
X175817715Y-92011613D01*
X175938028Y-92177213D01*
X176082786Y-92321971D01*
X176237749Y-92434556D01*
X176248390Y-92442287D01*
X176337547Y-92487715D01*
X176341080Y-92489515D01*
X176391876Y-92537490D01*
X176408671Y-92605311D01*
X176386134Y-92671446D01*
X176341080Y-92710485D01*
X176248386Y-92757715D01*
X176082786Y-92878028D01*
X175938028Y-93022786D01*
X175817715Y-93188386D01*
X175724781Y-93370776D01*
X175661522Y-93565465D01*
X175629500Y-93767648D01*
X175629500Y-93972351D01*
X175661522Y-94174534D01*
X175724781Y-94369223D01*
X175817715Y-94551613D01*
X175938028Y-94717213D01*
X176082786Y-94861971D01*
X176237749Y-94974556D01*
X176248390Y-94982287D01*
X176339840Y-95028883D01*
X176341080Y-95029515D01*
X176391876Y-95077490D01*
X176408671Y-95145311D01*
X176386134Y-95211446D01*
X176341080Y-95250485D01*
X176248386Y-95297715D01*
X176082786Y-95418028D01*
X175938028Y-95562786D01*
X175817715Y-95728386D01*
X175724781Y-95910776D01*
X175661522Y-96105465D01*
X175629500Y-96307648D01*
X175629500Y-96512352D01*
X175629713Y-96513695D01*
X175661522Y-96714534D01*
X175724781Y-96909223D01*
X175770545Y-96999038D01*
X175816914Y-97090042D01*
X175817715Y-97091613D01*
X175938028Y-97257213D01*
X176082786Y-97401971D01*
X176208982Y-97493656D01*
X176248390Y-97522287D01*
X176339840Y-97568883D01*
X176341080Y-97569515D01*
X176391876Y-97617490D01*
X176408671Y-97685311D01*
X176386134Y-97751446D01*
X176341080Y-97790485D01*
X176248386Y-97837715D01*
X176082786Y-97958028D01*
X175938028Y-98102786D01*
X175817715Y-98268386D01*
X175724781Y-98450776D01*
X175661522Y-98645465D01*
X175629500Y-98847648D01*
X175629500Y-99052351D01*
X175661522Y-99254534D01*
X175724781Y-99449223D01*
X175817715Y-99631613D01*
X175938028Y-99797213D01*
X176082786Y-99941971D01*
X176223682Y-100044336D01*
X176248390Y-100062287D01*
X176341080Y-100109515D01*
X176430776Y-100155218D01*
X176430778Y-100155218D01*
X176430781Y-100155220D01*
X176535137Y-100189127D01*
X176625465Y-100218477D01*
X176644697Y-100221523D01*
X176827648Y-100250500D01*
X176827649Y-100250500D01*
X177032351Y-100250500D01*
X177032352Y-100250500D01*
X177234534Y-100218477D01*
X177429219Y-100155220D01*
X177611610Y-100062287D01*
X177668615Y-100020871D01*
X177698468Y-99999182D01*
X177764274Y-99975702D01*
X177771353Y-99975500D01*
X183160500Y-99975500D01*
X183169185Y-99978050D01*
X183178147Y-99976762D01*
X183202187Y-99987740D01*
X183227539Y-99995185D01*
X183233466Y-100002025D01*
X183241703Y-100005787D01*
X183255992Y-100028021D01*
X183273294Y-100047989D01*
X183275581Y-100058503D01*
X183279477Y-100064565D01*
X183284500Y-100099500D01*
X183284500Y-100278828D01*
X183264815Y-100345867D01*
X183257769Y-100355735D01*
X183257292Y-100356338D01*
X183257290Y-100356342D01*
X183257288Y-100356344D01*
X183244108Y-100377713D01*
X183165187Y-100505663D01*
X183165185Y-100505668D01*
X183150568Y-100549780D01*
X183110001Y-100672203D01*
X183110001Y-100672204D01*
X183110000Y-100672204D01*
X183099500Y-100774983D01*
X183099500Y-101825001D01*
X183099501Y-101825019D01*
X183110000Y-101927796D01*
X183110001Y-101927799D01*
X183146248Y-102037184D01*
X183165186Y-102094334D01*
X183257288Y-102243656D01*
X183381344Y-102367712D01*
X183530666Y-102459814D01*
X183697203Y-102514999D01*
X183799991Y-102525500D01*
X184575008Y-102525499D01*
X184575016Y-102525498D01*
X184575019Y-102525498D01*
X184631302Y-102519748D01*
X184677797Y-102514999D01*
X184844334Y-102459814D01*
X184993656Y-102367712D01*
X185117712Y-102243656D01*
X185209814Y-102094334D01*
X185264999Y-101927797D01*
X185275500Y-101825009D01*
X185275499Y-100774992D01*
X185274277Y-100763034D01*
X185264999Y-100672203D01*
X185264998Y-100672200D01*
X185224432Y-100549781D01*
X185209814Y-100505666D01*
X185117712Y-100356344D01*
X185071819Y-100310451D01*
X185057115Y-100283523D01*
X185040523Y-100257705D01*
X185039631Y-100251504D01*
X185038334Y-100249128D01*
X185035500Y-100222770D01*
X185035500Y-100044336D01*
X185055185Y-99977297D01*
X185071819Y-99956655D01*
X185086508Y-99941966D01*
X185113828Y-99914646D01*
X185229524Y-99755405D01*
X185318884Y-99580025D01*
X185379709Y-99392826D01*
X185390419Y-99325208D01*
X185410500Y-99198422D01*
X185410500Y-99001577D01*
X185379709Y-98807173D01*
X185351487Y-98720317D01*
X185318884Y-98619975D01*
X185318882Y-98619972D01*
X185318882Y-98619970D01*
X185271743Y-98527455D01*
X185229524Y-98444595D01*
X185113828Y-98285354D01*
X184974646Y-98146172D01*
X184815405Y-98030476D01*
X184692290Y-97967746D01*
X184641494Y-97919772D01*
X184624699Y-97851951D01*
X184647236Y-97785816D01*
X184701951Y-97742364D01*
X184709574Y-97739557D01*
X184799334Y-97709814D01*
X184948656Y-97617712D01*
X185072712Y-97493656D01*
X185164814Y-97344334D01*
X185219999Y-97177797D01*
X185230500Y-97075009D01*
X185230499Y-96024992D01*
X185219999Y-95922203D01*
X185164814Y-95755666D01*
X185072712Y-95606344D01*
X185054319Y-95587951D01*
X185020834Y-95526628D01*
X185018000Y-95500270D01*
X185018000Y-95181836D01*
X185037685Y-95114797D01*
X185054319Y-95094155D01*
X185079919Y-95068555D01*
X185113828Y-95034646D01*
X185229524Y-94875405D01*
X185318884Y-94700025D01*
X185379709Y-94512826D01*
X185394240Y-94421080D01*
X185410500Y-94318422D01*
X185410500Y-94121577D01*
X185379709Y-93927173D01*
X185327876Y-93767649D01*
X185318884Y-93739975D01*
X185318882Y-93739972D01*
X185318882Y-93739970D01*
X185250056Y-93604892D01*
X185229524Y-93564595D01*
X185113828Y-93405354D01*
X184974646Y-93266172D01*
X184815405Y-93150476D01*
X184640029Y-93061117D01*
X184452826Y-93000290D01*
X184258422Y-92969500D01*
X184258417Y-92969500D01*
X184061583Y-92969500D01*
X184061578Y-92969500D01*
X183867173Y-93000290D01*
X183679970Y-93061117D01*
X183504594Y-93150476D01*
X183452411Y-93188390D01*
X183345354Y-93266172D01*
X183345352Y-93266174D01*
X183345351Y-93266174D01*
X183303345Y-93308181D01*
X183242022Y-93341666D01*
X183215664Y-93344500D01*
X180993768Y-93344500D01*
X180824633Y-93378143D01*
X180824621Y-93378146D01*
X180665301Y-93444138D01*
X180665288Y-93444145D01*
X180536240Y-93530374D01*
X180536238Y-93530375D01*
X180521902Y-93539953D01*
X180521897Y-93539957D01*
X178563675Y-95498181D01*
X178502352Y-95531666D01*
X178475994Y-95534500D01*
X177945047Y-95534500D01*
X177878008Y-95514815D01*
X177857366Y-95498181D01*
X177777213Y-95418028D01*
X177611614Y-95297715D01*
X177605006Y-95294348D01*
X177518917Y-95250483D01*
X177468123Y-95202511D01*
X177451328Y-95134690D01*
X177473865Y-95068555D01*
X177518917Y-95029516D01*
X177611610Y-94982287D01*
X177632770Y-94966913D01*
X177777213Y-94861971D01*
X177777215Y-94861968D01*
X177777219Y-94861966D01*
X177921966Y-94717219D01*
X177921968Y-94717215D01*
X177921971Y-94717213D01*
X177992236Y-94620500D01*
X178042287Y-94551610D01*
X178135220Y-94369219D01*
X178198477Y-94174534D01*
X178230500Y-93972352D01*
X178230500Y-93767648D01*
X178198477Y-93565466D01*
X178190187Y-93539953D01*
X178137613Y-93378146D01*
X178135220Y-93370781D01*
X178135218Y-93370778D01*
X178135218Y-93370776D01*
X178081919Y-93266172D01*
X178042287Y-93188390D01*
X178014741Y-93150476D01*
X177921971Y-93022786D01*
X177777213Y-92878028D01*
X177611614Y-92757715D01*
X177605006Y-92754348D01*
X177518917Y-92710483D01*
X177468123Y-92662511D01*
X177451328Y-92594690D01*
X177473865Y-92528555D01*
X177518917Y-92489516D01*
X177611610Y-92442287D01*
X177632770Y-92426913D01*
X177777213Y-92321971D01*
X177777215Y-92321968D01*
X177777219Y-92321966D01*
X177921966Y-92177219D01*
X177921968Y-92177215D01*
X177921971Y-92177213D01*
X178021906Y-92039662D01*
X178042287Y-92011610D01*
X178135220Y-91829219D01*
X178198477Y-91634534D01*
X178230500Y-91432352D01*
X178230500Y-91227648D01*
X178198477Y-91025466D01*
X178184612Y-90982795D01*
X178138021Y-90839402D01*
X178135220Y-90830781D01*
X178135218Y-90830778D01*
X178135218Y-90830776D01*
X178077477Y-90717455D01*
X178042287Y-90648390D01*
X178034556Y-90637749D01*
X177921971Y-90482786D01*
X177777213Y-90338028D01*
X177611614Y-90217715D01*
X177605006Y-90214348D01*
X177518917Y-90170483D01*
X177468123Y-90122511D01*
X177451328Y-90054690D01*
X177473865Y-89988555D01*
X177518917Y-89949516D01*
X177611610Y-89902287D01*
X177740818Y-89808413D01*
X177777213Y-89781971D01*
X177777215Y-89781968D01*
X177777219Y-89781966D01*
X177921966Y-89637219D01*
X177921968Y-89637215D01*
X177921971Y-89637213D01*
X177974732Y-89564590D01*
X178042287Y-89471610D01*
X178135220Y-89289219D01*
X178198477Y-89094534D01*
X178230500Y-88892352D01*
X178230500Y-88687648D01*
X178198477Y-88485466D01*
X178192118Y-88465896D01*
X178135218Y-88290776D01*
X178075736Y-88174038D01*
X178042287Y-88108390D01*
X178034556Y-88097749D01*
X177921971Y-87942786D01*
X177777213Y-87798028D01*
X177611614Y-87677715D01*
X177605006Y-87674348D01*
X177518917Y-87630483D01*
X177468123Y-87582511D01*
X177451328Y-87514690D01*
X177473865Y-87448555D01*
X177518917Y-87409516D01*
X177611610Y-87362287D01*
X177645958Y-87337332D01*
X177777213Y-87241971D01*
X177777215Y-87241968D01*
X177777219Y-87241966D01*
X177921966Y-87097219D01*
X177921968Y-87097215D01*
X177921971Y-87097213D01*
X177974732Y-87024590D01*
X178042287Y-86931610D01*
X178135220Y-86749219D01*
X178198477Y-86554534D01*
X178230500Y-86352352D01*
X178230500Y-86147648D01*
X178230500Y-86147647D01*
X178198477Y-85945465D01*
X178135218Y-85750776D01*
X178101503Y-85684607D01*
X178042287Y-85568390D01*
X178034556Y-85557749D01*
X177921971Y-85402786D01*
X177777213Y-85258028D01*
X177611613Y-85137715D01*
X177611612Y-85137714D01*
X177611610Y-85137713D01*
X177554653Y-85108691D01*
X177429223Y-85044781D01*
X177234534Y-84981522D01*
X177059995Y-84953878D01*
X177032352Y-84949500D01*
X176827648Y-84949500D01*
X176771971Y-84958318D01*
X176702678Y-84949363D01*
X176664893Y-84923526D01*
X175786819Y-84045451D01*
X175753334Y-83984128D01*
X175750500Y-83957770D01*
X175750500Y-70351079D01*
X175721659Y-70206092D01*
X175721658Y-70206091D01*
X175721658Y-70206087D01*
X175698138Y-70149304D01*
X175665086Y-70069509D01*
X175665085Y-70069507D01*
X175664142Y-70068096D01*
X175632186Y-70020270D01*
X175632185Y-70020268D01*
X175582956Y-69946589D01*
X175582952Y-69946584D01*
X172103421Y-66467052D01*
X172103414Y-66467046D01*
X172010023Y-66404645D01*
X172010022Y-66404645D01*
X171980500Y-66384919D01*
X171980488Y-66384912D01*
X171843917Y-66328343D01*
X171843907Y-66328340D01*
X171698920Y-66299500D01*
X171698918Y-66299500D01*
X170270200Y-66299500D01*
X170203161Y-66279815D01*
X170157406Y-66227011D01*
X170147462Y-66157853D01*
X170151124Y-66140905D01*
X170182597Y-66032573D01*
X170182598Y-66032567D01*
X170185499Y-65995701D01*
X170185500Y-65995694D01*
X170185500Y-65564306D01*
X170182598Y-65527431D01*
X170182597Y-65527426D01*
X170151124Y-65419095D01*
X170151323Y-65349225D01*
X170189265Y-65290555D01*
X170252904Y-65261712D01*
X170270200Y-65260500D01*
X170988920Y-65260500D01*
X171086462Y-65241096D01*
X171133913Y-65231658D01*
X171270495Y-65175084D01*
X171325374Y-65138415D01*
X171393416Y-65092952D01*
X172815451Y-63670916D01*
X172897584Y-63547995D01*
X172954158Y-63411413D01*
X172976419Y-63299501D01*
X172983000Y-63266420D01*
X172983000Y-62539751D01*
X173002685Y-62472712D01*
X173041906Y-62434211D01*
X173068656Y-62417712D01*
X173192712Y-62293656D01*
X173284814Y-62144334D01*
X173339999Y-61977797D01*
X173350500Y-61875009D01*
X173350499Y-60824992D01*
X173348075Y-60801266D01*
X173339999Y-60722203D01*
X173339998Y-60722200D01*
X173320143Y-60662283D01*
X173284814Y-60555666D01*
X173192712Y-60406344D01*
X173068656Y-60282288D01*
X173068652Y-60282285D01*
X173041901Y-60265784D01*
X172995177Y-60213835D01*
X172983000Y-60160247D01*
X172983000Y-59654729D01*
X173002685Y-59587690D01*
X173019314Y-59567053D01*
X174127819Y-58458547D01*
X174189142Y-58425063D01*
X174258834Y-58430047D01*
X174314767Y-58471919D01*
X174339184Y-58537383D01*
X174339500Y-58546229D01*
X174339500Y-58820701D01*
X174342401Y-58857567D01*
X174342402Y-58857573D01*
X174388254Y-59015393D01*
X174388255Y-59015396D01*
X174388256Y-59015398D01*
X174414929Y-59060500D01*
X174471917Y-59156862D01*
X174471923Y-59156870D01*
X174588129Y-59273076D01*
X174588133Y-59273079D01*
X174588135Y-59273081D01*
X174729602Y-59356744D01*
X174771224Y-59368836D01*
X174887426Y-59402597D01*
X174887429Y-59402597D01*
X174887431Y-59402598D01*
X174924306Y-59405500D01*
X174940500Y-59405500D01*
X175007539Y-59425185D01*
X175053294Y-59477989D01*
X175064500Y-59529500D01*
X175064500Y-64733917D01*
X175064500Y-64733919D01*
X175064499Y-64733919D01*
X175093340Y-64878906D01*
X175093343Y-64878916D01*
X175149913Y-65015489D01*
X175149914Y-65015490D01*
X175149916Y-65015494D01*
X175163251Y-65035451D01*
X175232045Y-65138411D01*
X175232051Y-65138419D01*
X175232052Y-65138420D01*
X176089320Y-65995686D01*
X176352050Y-66258416D01*
X176456585Y-66362951D01*
X176502811Y-66393838D01*
X176509439Y-66399802D01*
X176523281Y-66422255D01*
X176540192Y-66442489D01*
X176541327Y-66451523D01*
X176546107Y-66459277D01*
X176545613Y-66485646D01*
X176548901Y-66511814D01*
X176544918Y-66522815D01*
X176544800Y-66529134D01*
X176540075Y-66536192D01*
X176533230Y-66555100D01*
X176483254Y-66639605D01*
X176483254Y-66639606D01*
X176437402Y-66797426D01*
X176437401Y-66797432D01*
X176434500Y-66834298D01*
X176434500Y-67265701D01*
X176437401Y-67302567D01*
X176437402Y-67302573D01*
X176483254Y-67460393D01*
X176483255Y-67460396D01*
X176566917Y-67601862D01*
X176571702Y-67608031D01*
X176569256Y-67609927D01*
X176595857Y-67658642D01*
X176590873Y-67728334D01*
X176570069Y-67760703D01*
X176571702Y-67761969D01*
X176566917Y-67768137D01*
X176483255Y-67909603D01*
X176483254Y-67909606D01*
X176437402Y-68067426D01*
X176437401Y-68067432D01*
X176434500Y-68104298D01*
X176434500Y-68535701D01*
X176437401Y-68572567D01*
X176437402Y-68572573D01*
X176483254Y-68730393D01*
X176483255Y-68730396D01*
X176566917Y-68871862D01*
X176571702Y-68878031D01*
X176569256Y-68879927D01*
X176595857Y-68928642D01*
X176590873Y-68998334D01*
X176570069Y-69030703D01*
X176571702Y-69031969D01*
X176566917Y-69038137D01*
X176483255Y-69179603D01*
X176483254Y-69179606D01*
X176437402Y-69337426D01*
X176437401Y-69337432D01*
X176434500Y-69374298D01*
X176434500Y-69805701D01*
X176437401Y-69842567D01*
X176437402Y-69842573D01*
X176483254Y-70000393D01*
X176483255Y-70000396D01*
X176566917Y-70141862D01*
X176571702Y-70148031D01*
X176569256Y-70149927D01*
X176595857Y-70198642D01*
X176590873Y-70268334D01*
X176570069Y-70300703D01*
X176571702Y-70301969D01*
X176566917Y-70308137D01*
X176483255Y-70449603D01*
X176483254Y-70449606D01*
X176437402Y-70607426D01*
X176437401Y-70607432D01*
X176434500Y-70644298D01*
X176434500Y-71075701D01*
X176437401Y-71112567D01*
X176437402Y-71112573D01*
X176483254Y-71270393D01*
X176483255Y-71270396D01*
X176483256Y-71270398D01*
X176504909Y-71307011D01*
X176566917Y-71411862D01*
X176571702Y-71418031D01*
X176569256Y-71419927D01*
X176595857Y-71468642D01*
X176590873Y-71538334D01*
X176570069Y-71570703D01*
X176571702Y-71571969D01*
X176566917Y-71578137D01*
X176483255Y-71719603D01*
X176483254Y-71719606D01*
X176437402Y-71877426D01*
X176437401Y-71877432D01*
X176434500Y-71914298D01*
X176434500Y-72345701D01*
X176437401Y-72382567D01*
X176437402Y-72382573D01*
X176483254Y-72540393D01*
X176483255Y-72540396D01*
X176483256Y-72540398D01*
X176491920Y-72555048D01*
X176566917Y-72681862D01*
X176571702Y-72688031D01*
X176569256Y-72689927D01*
X176595857Y-72738642D01*
X176590873Y-72808334D01*
X176570069Y-72840703D01*
X176571702Y-72841969D01*
X176566917Y-72848137D01*
X176483255Y-72989603D01*
X176483254Y-72989606D01*
X176437402Y-73147426D01*
X176437401Y-73147432D01*
X176434500Y-73184298D01*
X176434500Y-73615701D01*
X176437401Y-73652567D01*
X176437402Y-73652573D01*
X176483254Y-73810393D01*
X176483255Y-73810396D01*
X176566917Y-73951862D01*
X176566923Y-73951870D01*
X176683129Y-74068076D01*
X176683133Y-74068079D01*
X176683135Y-74068081D01*
X176824602Y-74151744D01*
X176837269Y-74155424D01*
X176982426Y-74197597D01*
X176982429Y-74197597D01*
X176982431Y-74197598D01*
X177019306Y-74200500D01*
X177019314Y-74200500D01*
X178900686Y-74200500D01*
X178900694Y-74200500D01*
X178937569Y-74197598D01*
X178937571Y-74197597D01*
X178937573Y-74197597D01*
X179082733Y-74155424D01*
X179117328Y-74150500D01*
X179410994Y-74150500D01*
X179478033Y-74170185D01*
X179498675Y-74186819D01*
X180785681Y-75473825D01*
X180819166Y-75535148D01*
X180822000Y-75561506D01*
X180822000Y-76390270D01*
X180802315Y-76457309D01*
X180785681Y-76477951D01*
X180767289Y-76496342D01*
X180675187Y-76645663D01*
X180675186Y-76645666D01*
X180620001Y-76812203D01*
X180620001Y-76812204D01*
X180620000Y-76812204D01*
X180609500Y-76914983D01*
X180609500Y-77965001D01*
X180609501Y-77965019D01*
X180620000Y-78067796D01*
X180620001Y-78067799D01*
X180675185Y-78234331D01*
X180675187Y-78234336D01*
X180697212Y-78270044D01*
X180767288Y-78383656D01*
X180891344Y-78507712D01*
X181040666Y-78599814D01*
X181207203Y-78654999D01*
X181309991Y-78665500D01*
X182085008Y-78665499D01*
X182085016Y-78665498D01*
X182085019Y-78665498D01*
X182141302Y-78659748D01*
X182187797Y-78654999D01*
X182354334Y-78599814D01*
X182503656Y-78507712D01*
X182627712Y-78383656D01*
X182633420Y-78374402D01*
X182685368Y-78327678D01*
X182738958Y-78315500D01*
X183305664Y-78315500D01*
X183372703Y-78335185D01*
X183393345Y-78351819D01*
X183415354Y-78373828D01*
X183574595Y-78489524D01*
X183657455Y-78531743D01*
X183749970Y-78578882D01*
X183749972Y-78578882D01*
X183749975Y-78578884D01*
X183814391Y-78599814D01*
X183937173Y-78639709D01*
X184131578Y-78670500D01*
X184131583Y-78670500D01*
X184328422Y-78670500D01*
X184522826Y-78639709D01*
X184545428Y-78632365D01*
X184710025Y-78578884D01*
X184885405Y-78489524D01*
X185044646Y-78373828D01*
X185183828Y-78234646D01*
X185299524Y-78075405D01*
X185388884Y-77900025D01*
X185449709Y-77712826D01*
X185451430Y-77701958D01*
X185480500Y-77518422D01*
X185480500Y-77321577D01*
X185449709Y-77127173D01*
X185388882Y-76939970D01*
X185299523Y-76764594D01*
X185183828Y-76605354D01*
X185044646Y-76466172D01*
X184957857Y-76403116D01*
X184885403Y-76350474D01*
X184767216Y-76290256D01*
X184716419Y-76242282D01*
X184699624Y-76174461D01*
X184722161Y-76108326D01*
X184776876Y-76064874D01*
X184784496Y-76062068D01*
X184881834Y-76029814D01*
X185031156Y-75937712D01*
X185155212Y-75813656D01*
X185247314Y-75664334D01*
X185302499Y-75497797D01*
X185313000Y-75395009D01*
X185312999Y-74344992D01*
X185311464Y-74329970D01*
X185302499Y-74242203D01*
X185302498Y-74242200D01*
X185288680Y-74200500D01*
X185247314Y-74075666D01*
X185155212Y-73926344D01*
X185136819Y-73907951D01*
X185103334Y-73846628D01*
X185100500Y-73820270D01*
X185100500Y-73489336D01*
X185120185Y-73422297D01*
X185136819Y-73401655D01*
X185146819Y-73391655D01*
X185183828Y-73354646D01*
X185299524Y-73195405D01*
X185388884Y-73020025D01*
X185449709Y-72832826D01*
X185456267Y-72791421D01*
X185480500Y-72638422D01*
X185480500Y-72441577D01*
X185449709Y-72247173D01*
X185412789Y-72133548D01*
X185388884Y-72059975D01*
X185388882Y-72059972D01*
X185388882Y-72059970D01*
X185299523Y-71884594D01*
X185183828Y-71725354D01*
X185044646Y-71586172D01*
X184885405Y-71470476D01*
X184868083Y-71461650D01*
X184710029Y-71381117D01*
X184522826Y-71320290D01*
X184328422Y-71289500D01*
X184328417Y-71289500D01*
X184131583Y-71289500D01*
X184131579Y-71289500D01*
X184125718Y-71290428D01*
X184081732Y-71287403D01*
X184081349Y-71289333D01*
X183906232Y-71254500D01*
X183906229Y-71254500D01*
X183733771Y-71254500D01*
X183733768Y-71254500D01*
X183564633Y-71288143D01*
X183564621Y-71288146D01*
X183405301Y-71354138D01*
X183405290Y-71354144D01*
X183398618Y-71358603D01*
X183331941Y-71379480D01*
X183329728Y-71379500D01*
X179570200Y-71379500D01*
X179503161Y-71359815D01*
X179457406Y-71307011D01*
X179447462Y-71237853D01*
X179451124Y-71220905D01*
X179482597Y-71112573D01*
X179482598Y-71112567D01*
X179485500Y-71075694D01*
X179485500Y-70644306D01*
X179482598Y-70607431D01*
X179436744Y-70449602D01*
X179353081Y-70308135D01*
X179353078Y-70308132D01*
X179348298Y-70301969D01*
X179350750Y-70300066D01*
X179324155Y-70251421D01*
X179329104Y-70181726D01*
X179349940Y-70149304D01*
X179348298Y-70148031D01*
X179353075Y-70141870D01*
X179353081Y-70141865D01*
X179436744Y-70000398D01*
X179482598Y-69842569D01*
X179485500Y-69805694D01*
X179485500Y-69374306D01*
X179482598Y-69337431D01*
X179436744Y-69179602D01*
X179353081Y-69038135D01*
X179353078Y-69038132D01*
X179348298Y-69031969D01*
X179350750Y-69030066D01*
X179324155Y-68981421D01*
X179329104Y-68911726D01*
X179349940Y-68879304D01*
X179348298Y-68878031D01*
X179353075Y-68871870D01*
X179353081Y-68871865D01*
X179436744Y-68730398D01*
X179482598Y-68572569D01*
X179485500Y-68535694D01*
X179485500Y-68104306D01*
X179482598Y-68067431D01*
X179480385Y-68059815D01*
X179436745Y-67909606D01*
X179436744Y-67909603D01*
X179436744Y-67909602D01*
X179353081Y-67768135D01*
X179353078Y-67768132D01*
X179348298Y-67761969D01*
X179350750Y-67760066D01*
X179324155Y-67711421D01*
X179329104Y-67641726D01*
X179349940Y-67609304D01*
X179348298Y-67608031D01*
X179353075Y-67601870D01*
X179353081Y-67601865D01*
X179436744Y-67460398D01*
X179482598Y-67302569D01*
X179485500Y-67265694D01*
X179485500Y-66834306D01*
X179482598Y-66797431D01*
X179468494Y-66748884D01*
X179451124Y-66689095D01*
X179451323Y-66619225D01*
X179489265Y-66560555D01*
X179552904Y-66531712D01*
X179570200Y-66530500D01*
X181523920Y-66530500D01*
X181621462Y-66511096D01*
X181668913Y-66501658D01*
X181737204Y-66473371D01*
X181805491Y-66445086D01*
X181805492Y-66445085D01*
X181805495Y-66445084D01*
X181866015Y-66404646D01*
X181928416Y-66362952D01*
X182698596Y-65592770D01*
X182759917Y-65559287D01*
X182805673Y-65557980D01*
X182821583Y-65560500D01*
X182821584Y-65560500D01*
X183018422Y-65560500D01*
X183212826Y-65529709D01*
X183219852Y-65527426D01*
X183400025Y-65468884D01*
X183575405Y-65379524D01*
X183734646Y-65263828D01*
X183873828Y-65124646D01*
X183989524Y-64965405D01*
X184078884Y-64790025D01*
X184139709Y-64602826D01*
X184166905Y-64431117D01*
X184170500Y-64408422D01*
X184170500Y-64211577D01*
X184139709Y-64017173D01*
X184082169Y-63840086D01*
X184078884Y-63829975D01*
X184078882Y-63829972D01*
X184078882Y-63829970D01*
X183989523Y-63654594D01*
X183974794Y-63634321D01*
X183873828Y-63495354D01*
X183734646Y-63356172D01*
X183575405Y-63240476D01*
X183400029Y-63151117D01*
X183212826Y-63090290D01*
X183018422Y-63059500D01*
X183018417Y-63059500D01*
X182821583Y-63059500D01*
X182821578Y-63059500D01*
X182627173Y-63090290D01*
X182439970Y-63151117D01*
X182264594Y-63240476D01*
X182173741Y-63306485D01*
X182105354Y-63356172D01*
X182105352Y-63356174D01*
X182105351Y-63356174D01*
X181966174Y-63495351D01*
X181966174Y-63495352D01*
X181966172Y-63495354D01*
X181948187Y-63520108D01*
X181850476Y-63654594D01*
X181761117Y-63829970D01*
X181700290Y-64017173D01*
X181669500Y-64211577D01*
X181669500Y-64408421D01*
X181672019Y-64424329D01*
X181663062Y-64493622D01*
X181637226Y-64531404D01*
X181175451Y-64993181D01*
X181114128Y-65026666D01*
X181087770Y-65029500D01*
X179570200Y-65029500D01*
X179503161Y-65009815D01*
X179457406Y-64957011D01*
X179447462Y-64887853D01*
X179451124Y-64870905D01*
X179482597Y-64762573D01*
X179482598Y-64762567D01*
X179485500Y-64725694D01*
X179485500Y-64294306D01*
X179482598Y-64257431D01*
X179456082Y-64166163D01*
X179456119Y-64152870D01*
X179451474Y-64140414D01*
X179456217Y-64118610D01*
X179456281Y-64096296D01*
X179463831Y-64083611D01*
X179466327Y-64072141D01*
X179487474Y-64043892D01*
X179569549Y-63961818D01*
X179630872Y-63928333D01*
X179657229Y-63925500D01*
X180698920Y-63925500D01*
X180796462Y-63906096D01*
X180843913Y-63896658D01*
X180980495Y-63840084D01*
X181057933Y-63788342D01*
X181072958Y-63778302D01*
X181103414Y-63757954D01*
X181103418Y-63757950D01*
X181356368Y-63505000D01*
X182658596Y-62202769D01*
X182719917Y-62169286D01*
X182765673Y-62167980D01*
X182781583Y-62170500D01*
X182781584Y-62170500D01*
X182978422Y-62170500D01*
X183172826Y-62139709D01*
X183360025Y-62078884D01*
X183535405Y-61989524D01*
X183694646Y-61873828D01*
X183833828Y-61734646D01*
X183949524Y-61575405D01*
X184038884Y-61400025D01*
X184099709Y-61212826D01*
X184130500Y-61018422D01*
X184130500Y-60821577D01*
X184099709Y-60627173D01*
X184049548Y-60472795D01*
X184038884Y-60439975D01*
X184038882Y-60439972D01*
X184038882Y-60439970D01*
X183991743Y-60347455D01*
X183949524Y-60264595D01*
X183833828Y-60105354D01*
X183694646Y-59966172D01*
X183535405Y-59850476D01*
X183360029Y-59761117D01*
X183172826Y-59700290D01*
X182978422Y-59669500D01*
X182978417Y-59669500D01*
X182781583Y-59669500D01*
X182781578Y-59669500D01*
X182587173Y-59700290D01*
X182399970Y-59761117D01*
X182224594Y-59850476D01*
X182133741Y-59916485D01*
X182065354Y-59966172D01*
X182065352Y-59966174D01*
X182065351Y-59966174D01*
X181926174Y-60105351D01*
X181926174Y-60105352D01*
X181926172Y-60105354D01*
X181886290Y-60160247D01*
X181810476Y-60264594D01*
X181721117Y-60439970D01*
X181660290Y-60627173D01*
X181629500Y-60821577D01*
X181629500Y-61018420D01*
X181632019Y-61034324D01*
X181623065Y-61103618D01*
X181597232Y-61141400D01*
X181587183Y-61151448D01*
X181525864Y-61184935D01*
X181456172Y-61179954D01*
X181400237Y-61138085D01*
X181375816Y-61072622D01*
X181375500Y-61063770D01*
X181375500Y-57626079D01*
X181346659Y-57481092D01*
X181346658Y-57481091D01*
X181346658Y-57481087D01*
X181304096Y-57378332D01*
X181290087Y-57344511D01*
X181290080Y-57344498D01*
X181207952Y-57221585D01*
X181207951Y-57221584D01*
X181103416Y-57117049D01*
X180420509Y-56434142D01*
X178198421Y-54212052D01*
X178198414Y-54212046D01*
X178124729Y-54162812D01*
X178124729Y-54162813D01*
X178075491Y-54129913D01*
X177938917Y-54073343D01*
X177938907Y-54073340D01*
X177793920Y-54044500D01*
X177793918Y-54044500D01*
X176922328Y-54044500D01*
X176887733Y-54039576D01*
X176742573Y-53997402D01*
X176742567Y-53997401D01*
X176705701Y-53994500D01*
X176705694Y-53994500D01*
X174924306Y-53994500D01*
X174924298Y-53994500D01*
X174887432Y-53997401D01*
X174887426Y-53997402D01*
X174729606Y-54043254D01*
X174729603Y-54043255D01*
X174588137Y-54126917D01*
X174588129Y-54126923D01*
X174471923Y-54243129D01*
X174471917Y-54243137D01*
X174388255Y-54384603D01*
X174388254Y-54384606D01*
X174342402Y-54542426D01*
X174342401Y-54542432D01*
X174339500Y-54579298D01*
X174339500Y-55010701D01*
X174342401Y-55047567D01*
X174342402Y-55047573D01*
X174388254Y-55205393D01*
X174388255Y-55205396D01*
X174471917Y-55346862D01*
X174471923Y-55346870D01*
X174588129Y-55463076D01*
X174588133Y-55463079D01*
X174588135Y-55463081D01*
X174729602Y-55546744D01*
X174742269Y-55550424D01*
X174887426Y-55592597D01*
X174887429Y-55592597D01*
X174887431Y-55592598D01*
X174924306Y-55595500D01*
X174924314Y-55595500D01*
X176705686Y-55595500D01*
X176705694Y-55595500D01*
X176742569Y-55592598D01*
X176742571Y-55592597D01*
X176742573Y-55592597D01*
X176887733Y-55550424D01*
X176922328Y-55545500D01*
X177357770Y-55545500D01*
X177424809Y-55565185D01*
X177445451Y-55581819D01*
X179838181Y-57974548D01*
X179871666Y-58035871D01*
X179874500Y-58062229D01*
X179874500Y-62300500D01*
X179854815Y-62367539D01*
X179802011Y-62413294D01*
X179750500Y-62424500D01*
X179221080Y-62424500D01*
X179076092Y-62453340D01*
X179076082Y-62453343D01*
X178939511Y-62509912D01*
X178939498Y-62509919D01*
X178816584Y-62592048D01*
X178816580Y-62592051D01*
X177735451Y-63673181D01*
X177674128Y-63706666D01*
X177647770Y-63709500D01*
X177019298Y-63709500D01*
X176982432Y-63712401D01*
X176982426Y-63712402D01*
X176824606Y-63758254D01*
X176824599Y-63758257D01*
X176752620Y-63800825D01*
X176684896Y-63818008D01*
X176618634Y-63795848D01*
X176574871Y-63741381D01*
X176565500Y-63694093D01*
X176565500Y-59529500D01*
X176585185Y-59462461D01*
X176637989Y-59416706D01*
X176689500Y-59405500D01*
X176705686Y-59405500D01*
X176705694Y-59405500D01*
X176742569Y-59402598D01*
X176742571Y-59402597D01*
X176742573Y-59402597D01*
X176784191Y-59390505D01*
X176900398Y-59356744D01*
X177041865Y-59273081D01*
X177158081Y-59156865D01*
X177241744Y-59015398D01*
X177281220Y-58879523D01*
X177287597Y-58857573D01*
X177287598Y-58857567D01*
X177290499Y-58820701D01*
X177290500Y-58820694D01*
X177290500Y-58389306D01*
X177287598Y-58352431D01*
X177269468Y-58290029D01*
X177249499Y-58221296D01*
X177241744Y-58194602D01*
X177158081Y-58053135D01*
X177158078Y-58053132D01*
X177153298Y-58046969D01*
X177155750Y-58045066D01*
X177129155Y-57996421D01*
X177134104Y-57926726D01*
X177154940Y-57894304D01*
X177153298Y-57893031D01*
X177158075Y-57886870D01*
X177158081Y-57886865D01*
X177241744Y-57745398D01*
X177287598Y-57587569D01*
X177290500Y-57550694D01*
X177290500Y-57119306D01*
X177287598Y-57082431D01*
X177241744Y-56924602D01*
X177158081Y-56783135D01*
X177158079Y-56783133D01*
X177158076Y-56783129D01*
X177041870Y-56666923D01*
X177041862Y-56666917D01*
X176927464Y-56599263D01*
X176900398Y-56583256D01*
X176900397Y-56583255D01*
X176900396Y-56583255D01*
X176900393Y-56583254D01*
X176742573Y-56537402D01*
X176742567Y-56537401D01*
X176705701Y-56534500D01*
X176705694Y-56534500D01*
X174924306Y-56534500D01*
X174924298Y-56534500D01*
X174887432Y-56537401D01*
X174887426Y-56537402D01*
X174742267Y-56579576D01*
X174707672Y-56584500D01*
X174552229Y-56584500D01*
X174485190Y-56564815D01*
X174464548Y-56548181D01*
X173911819Y-55995451D01*
X173878334Y-55934128D01*
X173875500Y-55907770D01*
X173875500Y-53026079D01*
X173846659Y-52881092D01*
X173846658Y-52881091D01*
X173846658Y-52881087D01*
X173833902Y-52850291D01*
X173790087Y-52744511D01*
X173790080Y-52744498D01*
X173707952Y-52621585D01*
X173707951Y-52621584D01*
X173603416Y-52517049D01*
X173316818Y-52230451D01*
X173283333Y-52169128D01*
X173280499Y-52142770D01*
X173280499Y-51314998D01*
X173280498Y-51314981D01*
X173269999Y-51212203D01*
X173269998Y-51212200D01*
X173235844Y-51109131D01*
X173214814Y-51045666D01*
X173122712Y-50896344D01*
X173046549Y-50820181D01*
X173013064Y-50758858D01*
X173018048Y-50689166D01*
X173046549Y-50644819D01*
X173142712Y-50548656D01*
X173234814Y-50399334D01*
X173289999Y-50232797D01*
X173300500Y-50130009D01*
X173300499Y-49129992D01*
X173292026Y-49047051D01*
X173289999Y-49027203D01*
X173289998Y-49027200D01*
X173261593Y-48941480D01*
X173234814Y-48860666D01*
X173142712Y-48711344D01*
X173018656Y-48587288D01*
X172869334Y-48495186D01*
X172702797Y-48440001D01*
X172702795Y-48440000D01*
X172600010Y-48429500D01*
X171799998Y-48429500D01*
X171799980Y-48429501D01*
X171697203Y-48440000D01*
X171697200Y-48440001D01*
X171530668Y-48495185D01*
X171530663Y-48495187D01*
X171381342Y-48587289D01*
X171257289Y-48711342D01*
X171189901Y-48820597D01*
X171137953Y-48867321D01*
X171084362Y-48879500D01*
X170921076Y-48879500D01*
X170892242Y-48885234D01*
X170892243Y-48885235D01*
X170776093Y-48908339D01*
X170776083Y-48908342D01*
X170696081Y-48941479D01*
X170696082Y-48941480D01*
X170639509Y-48964914D01*
X170639498Y-48964920D01*
X170621996Y-48976615D01*
X170621995Y-48976616D01*
X170516579Y-49047051D01*
X169917052Y-49646578D01*
X169917052Y-49646579D01*
X169917049Y-49646582D01*
X169917048Y-49646584D01*
X169889337Y-49688058D01*
X169834918Y-49769502D01*
X169834914Y-49769509D01*
X169778342Y-49906087D01*
X169778340Y-49906093D01*
X169749500Y-50051080D01*
X169749500Y-50051083D01*
X169749500Y-50198917D01*
X169749500Y-50198919D01*
X169749499Y-50198919D01*
X169778340Y-50343906D01*
X169778343Y-50343916D01*
X169790061Y-50372205D01*
X169799500Y-50419657D01*
X169799500Y-53960760D01*
X169779815Y-54027799D01*
X169738621Y-54067492D01*
X169638137Y-54126917D01*
X169638129Y-54126923D01*
X169521923Y-54243129D01*
X169521917Y-54243137D01*
X169438255Y-54384603D01*
X169438254Y-54384606D01*
X169392402Y-54542426D01*
X169392401Y-54542432D01*
X169389500Y-54579298D01*
X169389500Y-55010701D01*
X169392401Y-55047567D01*
X169392402Y-55047573D01*
X169423876Y-55155905D01*
X169423801Y-55182158D01*
X169427538Y-55208147D01*
X169423703Y-55216543D01*
X169423677Y-55225775D01*
X169409418Y-55247822D01*
X169398513Y-55271703D01*
X169390748Y-55276693D01*
X169385735Y-55284445D01*
X169361819Y-55295283D01*
X169339735Y-55309477D01*
X169326215Y-55311420D01*
X169322096Y-55313288D01*
X169304800Y-55314500D01*
X169297230Y-55314500D01*
X169230191Y-55294815D01*
X169209549Y-55278181D01*
X168222772Y-54291404D01*
X168189287Y-54230081D01*
X168187980Y-54184326D01*
X168190500Y-54168417D01*
X168190500Y-53971583D01*
X168190500Y-53971577D01*
X168159709Y-53777173D01*
X168098882Y-53589970D01*
X168051743Y-53497455D01*
X168009524Y-53414595D01*
X167893828Y-53255354D01*
X167754646Y-53116172D01*
X167595405Y-53000476D01*
X167594102Y-52999812D01*
X167420029Y-52911117D01*
X167232826Y-52850290D01*
X167038422Y-52819500D01*
X167038417Y-52819500D01*
X166841583Y-52819500D01*
X166839729Y-52819500D01*
X166772690Y-52799815D01*
X166752048Y-52783181D01*
X165114318Y-51145450D01*
X165080833Y-51084127D01*
X165077999Y-51057769D01*
X165077999Y-50569998D01*
X165077998Y-50569981D01*
X165067499Y-50467203D01*
X165067498Y-50467200D01*
X165045008Y-50399331D01*
X165012314Y-50300666D01*
X164920212Y-50151344D01*
X164796156Y-50027288D01*
X164796155Y-50027287D01*
X164786902Y-50021580D01*
X164740178Y-49969632D01*
X164728000Y-49916042D01*
X164728000Y-48576081D01*
X164722263Y-48547242D01*
X164722263Y-48547240D01*
X164711909Y-48495186D01*
X164699159Y-48431088D01*
X164644908Y-48300117D01*
X164643264Y-48295522D01*
X164560454Y-48171588D01*
X164560453Y-48171587D01*
X164560451Y-48171584D01*
X164455916Y-48067049D01*
X164455912Y-48067045D01*
X164434317Y-48045449D01*
X164400833Y-47984125D01*
X164398000Y-47957770D01*
X164398000Y-47464729D01*
X164417685Y-47397690D01*
X164434319Y-47377048D01*
X165332948Y-46478419D01*
X165332951Y-46478416D01*
X165415084Y-46355495D01*
X165471658Y-46218913D01*
X165500500Y-46073918D01*
X165500500Y-44749500D01*
X165520185Y-44682461D01*
X165572989Y-44636706D01*
X165624500Y-44625500D01*
X175423920Y-44625500D01*
X175521462Y-44606096D01*
X175568913Y-44596658D01*
X175705495Y-44540084D01*
X175754729Y-44507186D01*
X175828416Y-44457952D01*
X180032952Y-40253415D01*
X180072317Y-40194500D01*
X180115084Y-40130495D01*
X180138518Y-40073920D01*
X180171659Y-39993912D01*
X180200500Y-39848917D01*
X180200500Y-39701082D01*
X180200500Y-35926082D01*
X180200500Y-35926079D01*
X180171659Y-35781092D01*
X180171658Y-35781091D01*
X180171658Y-35781087D01*
X180171656Y-35781082D01*
X180115087Y-35644511D01*
X180115080Y-35644498D01*
X180032952Y-35521585D01*
X180032951Y-35521584D01*
X179928416Y-35417049D01*
X179468421Y-34957052D01*
X179468414Y-34957046D01*
X179394729Y-34907812D01*
X179394727Y-34907811D01*
X179375607Y-34895035D01*
X179330802Y-34841422D01*
X179320499Y-34791934D01*
X179320499Y-34742129D01*
X179320498Y-34742123D01*
X179320497Y-34742116D01*
X179314091Y-34682517D01*
X179313414Y-34680703D01*
X179263797Y-34547671D01*
X179263793Y-34547664D01*
X179177547Y-34432455D01*
X179177544Y-34432452D01*
X179062335Y-34346206D01*
X179062328Y-34346202D01*
X178927482Y-34295908D01*
X178927483Y-34295908D01*
X178867883Y-34289501D01*
X178867881Y-34289500D01*
X178867873Y-34289500D01*
X178867864Y-34289500D01*
X177272129Y-34289500D01*
X177272123Y-34289501D01*
X177212516Y-34295908D01*
X177077671Y-34346202D01*
X177077664Y-34346206D01*
X176962455Y-34432452D01*
X176962452Y-34432455D01*
X176876206Y-34547664D01*
X176876202Y-34547671D01*
X176825908Y-34682517D01*
X176821303Y-34725354D01*
X176819501Y-34742123D01*
X176819500Y-34742135D01*
X176819500Y-36337870D01*
X176819501Y-36337876D01*
X176825908Y-36397483D01*
X176876202Y-36532328D01*
X176876204Y-36532331D01*
X176950209Y-36631189D01*
X176974627Y-36696653D01*
X176959776Y-36764926D01*
X176910371Y-36814332D01*
X176850943Y-36829500D01*
X176701578Y-36829500D01*
X176507173Y-36860290D01*
X176319970Y-36921117D01*
X176144594Y-37010476D01*
X176119213Y-37028917D01*
X175985354Y-37126172D01*
X175985352Y-37126174D01*
X175985351Y-37126174D01*
X175846174Y-37265351D01*
X175846174Y-37265352D01*
X175846172Y-37265354D01*
X175829413Y-37288421D01*
X175730476Y-37424594D01*
X175640485Y-37601213D01*
X175592511Y-37652009D01*
X175524690Y-37668804D01*
X175458555Y-37646267D01*
X175419515Y-37601213D01*
X175338695Y-37442595D01*
X175329524Y-37424595D01*
X175213828Y-37265354D01*
X175074646Y-37126172D01*
X174915405Y-37010476D01*
X174740029Y-36921117D01*
X174552826Y-36860290D01*
X174358422Y-36829500D01*
X174358417Y-36829500D01*
X174161583Y-36829500D01*
X174145672Y-36832020D01*
X174076378Y-36823064D01*
X174038594Y-36797227D01*
X173938020Y-36696653D01*
X173857600Y-36616232D01*
X173824116Y-36554911D01*
X173829100Y-36485219D01*
X173857597Y-36440876D01*
X173943828Y-36354646D01*
X174059524Y-36195405D01*
X174148884Y-36020025D01*
X174209709Y-35832826D01*
X174217904Y-35781087D01*
X174240500Y-35638422D01*
X174240500Y-35441577D01*
X174209709Y-35247173D01*
X174181487Y-35160317D01*
X174148884Y-35059975D01*
X174148882Y-35059972D01*
X174148882Y-35059970D01*
X174071354Y-34907813D01*
X174059524Y-34884595D01*
X173943828Y-34725354D01*
X173911819Y-34693345D01*
X173878334Y-34632022D01*
X173875500Y-34605664D01*
X173875500Y-29037585D01*
X177014500Y-29037585D01*
X177014500Y-29342414D01*
X177014501Y-29342430D01*
X177054289Y-29644654D01*
X177133189Y-29939113D01*
X177249844Y-30220742D01*
X177249848Y-30220752D01*
X177402267Y-30484750D01*
X177587843Y-30726597D01*
X177587849Y-30726604D01*
X177803395Y-30942150D01*
X177803402Y-30942156D01*
X178045249Y-31127732D01*
X178309247Y-31280151D01*
X178309248Y-31280151D01*
X178309251Y-31280153D01*
X178497009Y-31357925D01*
X178590886Y-31396810D01*
X178590887Y-31396810D01*
X178590889Y-31396811D01*
X178885344Y-31475710D01*
X179187579Y-31515500D01*
X179187586Y-31515500D01*
X179492414Y-31515500D01*
X179492421Y-31515500D01*
X179584040Y-31503438D01*
X179653076Y-31514203D01*
X179705332Y-31560583D01*
X179724217Y-31627852D01*
X179715113Y-31672247D01*
X179715150Y-31672260D01*
X179715050Y-31672552D01*
X179714790Y-31673824D01*
X179713844Y-31676107D01*
X179713842Y-31676113D01*
X179654453Y-31897759D01*
X179654451Y-31897770D01*
X179624500Y-32125258D01*
X179624500Y-32354741D01*
X179649446Y-32544215D01*
X179654452Y-32582238D01*
X179654453Y-32582240D01*
X179713842Y-32803887D01*
X179801650Y-33015876D01*
X179801657Y-33015890D01*
X179916392Y-33214617D01*
X180056081Y-33396661D01*
X180056089Y-33396670D01*
X180218330Y-33558911D01*
X180218338Y-33558918D01*
X180218339Y-33558919D01*
X180241796Y-33576918D01*
X180400382Y-33698607D01*
X180400385Y-33698608D01*
X180400388Y-33698611D01*
X180599112Y-33813344D01*
X180599117Y-33813346D01*
X180599123Y-33813349D01*
X180690480Y-33851190D01*
X180811113Y-33901158D01*
X181032762Y-33960548D01*
X181260266Y-33990500D01*
X181260273Y-33990500D01*
X181489727Y-33990500D01*
X181489734Y-33990500D01*
X181717238Y-33960548D01*
X181938887Y-33901158D01*
X182150888Y-33813344D01*
X182349612Y-33698611D01*
X182531661Y-33558919D01*
X182531665Y-33558914D01*
X182531670Y-33558911D01*
X182693911Y-33396670D01*
X182693914Y-33396665D01*
X182693919Y-33396661D01*
X182833611Y-33214612D01*
X182948344Y-33015888D01*
X183036158Y-32803887D01*
X183095548Y-32582238D01*
X183125500Y-32354734D01*
X183125500Y-32125266D01*
X183095548Y-31897762D01*
X183036158Y-31676113D01*
X182969629Y-31515498D01*
X182948349Y-31464123D01*
X182948346Y-31464117D01*
X182948344Y-31464112D01*
X182833611Y-31265388D01*
X182833608Y-31265385D01*
X182833607Y-31265382D01*
X182693918Y-31083338D01*
X182693911Y-31083330D01*
X182531670Y-30921089D01*
X182531661Y-30921081D01*
X182349617Y-30781392D01*
X182150890Y-30666657D01*
X182150876Y-30666650D01*
X181938887Y-30578842D01*
X181717238Y-30519452D01*
X181679215Y-30514446D01*
X181489741Y-30489500D01*
X181485684Y-30489235D01*
X181485743Y-30488319D01*
X181422725Y-30469815D01*
X181376970Y-30417011D01*
X181367026Y-30347853D01*
X181382377Y-30303500D01*
X181430151Y-30220752D01*
X181430153Y-30220749D01*
X181546811Y-29939111D01*
X181625710Y-29644656D01*
X181665500Y-29342421D01*
X181665500Y-29037579D01*
X181625710Y-28735344D01*
X181546811Y-28440889D01*
X181430153Y-28159251D01*
X181277732Y-27895249D01*
X181105967Y-27671401D01*
X181092156Y-27653402D01*
X181092150Y-27653395D01*
X180876604Y-27437849D01*
X180876597Y-27437843D01*
X180634750Y-27252267D01*
X180370752Y-27099848D01*
X180370742Y-27099844D01*
X180089113Y-26983189D01*
X179794654Y-26904289D01*
X179492430Y-26864501D01*
X179492427Y-26864500D01*
X179492421Y-26864500D01*
X179187579Y-26864500D01*
X179187573Y-26864500D01*
X179187569Y-26864501D01*
X178885345Y-26904289D01*
X178590886Y-26983189D01*
X178309257Y-27099844D01*
X178309247Y-27099848D01*
X178045249Y-27252267D01*
X177803402Y-27437843D01*
X177803395Y-27437849D01*
X177587849Y-27653395D01*
X177587843Y-27653402D01*
X177402267Y-27895249D01*
X177249848Y-28159247D01*
X177249844Y-28159257D01*
X177133189Y-28440886D01*
X177054289Y-28735345D01*
X177014501Y-29037569D01*
X177014500Y-29037585D01*
X173875500Y-29037585D01*
X173875500Y-27038768D01*
X173875499Y-27038766D01*
X173856117Y-26941325D01*
X173841855Y-26869626D01*
X173839732Y-26864500D01*
X173775861Y-26710301D01*
X173775854Y-26710288D01*
X173680046Y-26566902D01*
X173636910Y-26523766D01*
X173558099Y-26444955D01*
X173024394Y-25911250D01*
X170008102Y-22894957D01*
X170008098Y-22894954D01*
X169864711Y-22799145D01*
X169864698Y-22799138D01*
X169705378Y-22733146D01*
X169705366Y-22733143D01*
X169536232Y-22699500D01*
X169536229Y-22699500D01*
X154538771Y-22699500D01*
X154538768Y-22699500D01*
X154369633Y-22733143D01*
X154369621Y-22733146D01*
X154210301Y-22799138D01*
X154210288Y-22799145D01*
X154066901Y-22894954D01*
X154066897Y-22894957D01*
X151050604Y-25911250D01*
X151031820Y-25926667D01*
X151026904Y-25929951D01*
X151026896Y-25929958D01*
X150904957Y-26051897D01*
X150904954Y-26051901D01*
X150809145Y-26195288D01*
X150809138Y-26195301D01*
X150743146Y-26354621D01*
X150743143Y-26354633D01*
X150709500Y-26523766D01*
X150709500Y-34613664D01*
X150689815Y-34680703D01*
X150673181Y-34701345D01*
X150631174Y-34743351D01*
X150631174Y-34743352D01*
X150631172Y-34743354D01*
X150581485Y-34811741D01*
X150515476Y-34902594D01*
X150426117Y-35077970D01*
X150365290Y-35265173D01*
X150334500Y-35459577D01*
X150334500Y-35656422D01*
X150365290Y-35850826D01*
X150426117Y-36038029D01*
X150515476Y-36213405D01*
X150631172Y-36372646D01*
X150631174Y-36372648D01*
X150673181Y-36414655D01*
X150706666Y-36475978D01*
X150709500Y-36502336D01*
X150709500Y-36914233D01*
X150743143Y-37083366D01*
X150743146Y-37083378D01*
X150809138Y-37242698D01*
X150809145Y-37242711D01*
X150904954Y-37386098D01*
X150904957Y-37386102D01*
X151568181Y-38049325D01*
X151601666Y-38110648D01*
X151604500Y-38137006D01*
X151604500Y-38196422D01*
X151635290Y-38390826D01*
X151696117Y-38578029D01*
X151785475Y-38753403D01*
X151785476Y-38753405D01*
X151901172Y-38912646D01*
X152040354Y-39051828D01*
X152199595Y-39167524D01*
X152282455Y-39209743D01*
X152374970Y-39256882D01*
X152374972Y-39256882D01*
X152374975Y-39256884D01*
X152475317Y-39289487D01*
X152562173Y-39317709D01*
X152756578Y-39348500D01*
X152756583Y-39348500D01*
X152953422Y-39348500D01*
X153147826Y-39317709D01*
X153335025Y-39256884D01*
X153510405Y-39167524D01*
X153669646Y-39051828D01*
X153808828Y-38912646D01*
X153924524Y-38753405D01*
X154013884Y-38578025D01*
X154014515Y-38576787D01*
X154062489Y-38525990D01*
X154130310Y-38509195D01*
X154196445Y-38531732D01*
X154235485Y-38576787D01*
X154325474Y-38753403D01*
X154360234Y-38801246D01*
X154441172Y-38912646D01*
X154580354Y-39051828D01*
X154593385Y-39061295D01*
X154636050Y-39116622D01*
X154644500Y-39161613D01*
X154644500Y-41018918D01*
X154644500Y-41018920D01*
X154644499Y-41018920D01*
X154673340Y-41163907D01*
X154673343Y-41163917D01*
X154729914Y-41300492D01*
X154762812Y-41349727D01*
X154762813Y-41349730D01*
X154812046Y-41423414D01*
X154812052Y-41423421D01*
X160660717Y-47272084D01*
X160694202Y-47333407D01*
X160696513Y-47360574D01*
X160697000Y-47360574D01*
X160697000Y-48976613D01*
X160703413Y-49047192D01*
X160703413Y-49047194D01*
X160703414Y-49047196D01*
X160754022Y-49209606D01*
X160827999Y-49331979D01*
X160842030Y-49355188D01*
X160962311Y-49475469D01*
X160962313Y-49475470D01*
X160962315Y-49475472D01*
X161107894Y-49563478D01*
X161139889Y-49573447D01*
X161161059Y-49587550D01*
X161184203Y-49598120D01*
X161189651Y-49606597D01*
X161198037Y-49612184D01*
X161208223Y-49635496D01*
X161221977Y-49656898D01*
X161224136Y-49671914D01*
X161226012Y-49676208D01*
X161227000Y-49691833D01*
X161227000Y-49916042D01*
X161207315Y-49983081D01*
X161168098Y-50021580D01*
X161158844Y-50027287D01*
X161034789Y-50151342D01*
X160942687Y-50300663D01*
X160942685Y-50300668D01*
X160928356Y-50343912D01*
X160887501Y-50467203D01*
X160887501Y-50467204D01*
X160887500Y-50467204D01*
X160877000Y-50569983D01*
X160877000Y-51570001D01*
X160877001Y-51570019D01*
X160887500Y-51672796D01*
X160887501Y-51672799D01*
X160942685Y-51839331D01*
X160942686Y-51839334D01*
X161034788Y-51988656D01*
X161158844Y-52112712D01*
X161168091Y-52118416D01*
X161214818Y-52170360D01*
X161227000Y-52223957D01*
X161227000Y-53126418D01*
X161227000Y-53126420D01*
X161226999Y-53126420D01*
X161255840Y-53271407D01*
X161255843Y-53271417D01*
X161312412Y-53407988D01*
X161312420Y-53408003D01*
X161344153Y-53455493D01*
X161344155Y-53455496D01*
X161394543Y-53530910D01*
X161394547Y-53530915D01*
X162863181Y-54999548D01*
X162896666Y-55060871D01*
X162899500Y-55087229D01*
X162899500Y-55333918D01*
X162899500Y-55333920D01*
X162899499Y-55333920D01*
X162928340Y-55478907D01*
X162928343Y-55478917D01*
X162984914Y-55615492D01*
X162984915Y-55615494D01*
X162984916Y-55615495D01*
X163011046Y-55654602D01*
X163017812Y-55664727D01*
X163017813Y-55664730D01*
X163067046Y-55738414D01*
X163067052Y-55738421D01*
X164917227Y-57588594D01*
X164950712Y-57649917D01*
X164952020Y-57695672D01*
X164949500Y-57711583D01*
X164949500Y-57908422D01*
X164980290Y-58102826D01*
X165041117Y-58290029D01*
X165091705Y-58389313D01*
X165130476Y-58465405D01*
X165246172Y-58624646D01*
X165385354Y-58763828D01*
X165544595Y-58879524D01*
X165627455Y-58921743D01*
X165719970Y-58968882D01*
X165719972Y-58968882D01*
X165719975Y-58968884D01*
X165820317Y-59001487D01*
X165907173Y-59029709D01*
X166101578Y-59060500D01*
X166101583Y-59060500D01*
X166298422Y-59060500D01*
X166492826Y-59029709D01*
X166522839Y-59019957D01*
X166680025Y-58968884D01*
X166855405Y-58879524D01*
X167014646Y-58763828D01*
X167153828Y-58624646D01*
X167269524Y-58465405D01*
X167358884Y-58290025D01*
X167397499Y-58171181D01*
X167436937Y-58113506D01*
X167501296Y-58086308D01*
X167515430Y-58085500D01*
X169304800Y-58085500D01*
X169371839Y-58105185D01*
X169417594Y-58157989D01*
X169427538Y-58227147D01*
X169423876Y-58244095D01*
X169392402Y-58352426D01*
X169392401Y-58352432D01*
X169389500Y-58389298D01*
X169389500Y-58820701D01*
X169392401Y-58857567D01*
X169392402Y-58857573D01*
X169438254Y-59015393D01*
X169438255Y-59015396D01*
X169438256Y-59015398D01*
X169464929Y-59060500D01*
X169521917Y-59156862D01*
X169521923Y-59156870D01*
X169638129Y-59273076D01*
X169638133Y-59273079D01*
X169638135Y-59273081D01*
X169779602Y-59356744D01*
X169821224Y-59368836D01*
X169937426Y-59402597D01*
X169937429Y-59402597D01*
X169937431Y-59402598D01*
X169974306Y-59405500D01*
X171358000Y-59405500D01*
X171425039Y-59425185D01*
X171470794Y-59477989D01*
X171482000Y-59529500D01*
X171482000Y-60205270D01*
X171462315Y-60272309D01*
X171445681Y-60292951D01*
X171332289Y-60406342D01*
X171240187Y-60555663D01*
X171240185Y-60555668D01*
X171221579Y-60611819D01*
X171185001Y-60722203D01*
X171185001Y-60722204D01*
X171185000Y-60722204D01*
X171174500Y-60824983D01*
X171174500Y-61875001D01*
X171174501Y-61875019D01*
X171185000Y-61977796D01*
X171185001Y-61977799D01*
X171240185Y-62144331D01*
X171240187Y-62144336D01*
X171332289Y-62293657D01*
X171445681Y-62407049D01*
X171479166Y-62468372D01*
X171482000Y-62494730D01*
X171482000Y-62830270D01*
X171462315Y-62897309D01*
X171445681Y-62917951D01*
X170640451Y-63723181D01*
X170579128Y-63756666D01*
X170552770Y-63759500D01*
X169817328Y-63759500D01*
X169782733Y-63754576D01*
X169637573Y-63712402D01*
X169637567Y-63712401D01*
X169600701Y-63709500D01*
X169600694Y-63709500D01*
X169039879Y-63709500D01*
X168992426Y-63700061D01*
X168915374Y-63668145D01*
X168915366Y-63668143D01*
X168746232Y-63634500D01*
X168746229Y-63634500D01*
X166734706Y-63634500D01*
X166731396Y-63633528D01*
X166728037Y-63634321D01*
X166698103Y-63623752D01*
X166667667Y-63614815D01*
X166664445Y-63611868D01*
X166662153Y-63611059D01*
X166654095Y-63602401D01*
X166637246Y-63586989D01*
X166637203Y-63587024D01*
X166636989Y-63586753D01*
X166636761Y-63586545D01*
X166633056Y-63581773D01*
X166631708Y-63578345D01*
X166629200Y-63575650D01*
X166628953Y-63575250D01*
X166630190Y-63574485D01*
X166620472Y-63549764D01*
X166607596Y-63517860D01*
X166607704Y-63517288D01*
X166607492Y-63516748D01*
X166614213Y-63482999D01*
X166620627Y-63449216D01*
X166621061Y-63448619D01*
X166621140Y-63448224D01*
X166621990Y-63447342D01*
X166643315Y-63418052D01*
X166667712Y-63393656D01*
X166759814Y-63244334D01*
X166814999Y-63077797D01*
X166825500Y-62975009D01*
X166825499Y-61924992D01*
X166814999Y-61822203D01*
X166759814Y-61655666D01*
X166667712Y-61506344D01*
X166649319Y-61487951D01*
X166615834Y-61426628D01*
X166613000Y-61400270D01*
X166613000Y-60801268D01*
X166612999Y-60801266D01*
X166612094Y-60796714D01*
X166579355Y-60632126D01*
X166555900Y-60575500D01*
X166513361Y-60472801D01*
X166513354Y-60472788D01*
X166417546Y-60329402D01*
X166360453Y-60272309D01*
X166295599Y-60207455D01*
X165742873Y-59654729D01*
X165108102Y-59019957D01*
X165108098Y-59019954D01*
X164964711Y-58924145D01*
X164964698Y-58924138D01*
X164805378Y-58858146D01*
X164805366Y-58858143D01*
X164636232Y-58824500D01*
X164636229Y-58824500D01*
X160836229Y-58824500D01*
X160663771Y-58824500D01*
X160663768Y-58824500D01*
X160494633Y-58858143D01*
X160494621Y-58858146D01*
X160335301Y-58924138D01*
X160335288Y-58924145D01*
X160191901Y-59019954D01*
X160191897Y-59019957D01*
X158193439Y-61018417D01*
X157591901Y-61619955D01*
X157556193Y-61655663D01*
X157469953Y-61741902D01*
X157374145Y-61885288D01*
X157374138Y-61885301D01*
X157308146Y-62044621D01*
X157308143Y-62044633D01*
X157274500Y-62213766D01*
X157274500Y-63210993D01*
X157254815Y-63278032D01*
X157238181Y-63298674D01*
X139867228Y-80669626D01*
X139805905Y-80703111D01*
X139736213Y-80698127D01*
X139729765Y-80695293D01*
X139729756Y-80695315D01*
X139725256Y-80693451D01*
X139507747Y-80622778D01*
X139357151Y-80598926D01*
X139281854Y-80587000D01*
X138958146Y-80587000D01*
X138882849Y-80598926D01*
X138732253Y-80622778D01*
X138732250Y-80622778D01*
X138514744Y-80693450D01*
X138310961Y-80797283D01*
X138205396Y-80873980D01*
X138125934Y-80931714D01*
X138125932Y-80931716D01*
X138125931Y-80931716D01*
X137964216Y-81093431D01*
X137964216Y-81093432D01*
X137964214Y-81093434D01*
X137910820Y-81166924D01*
X137829783Y-81278461D01*
X137725950Y-81482244D01*
X137655278Y-81699750D01*
X137655278Y-81699753D01*
X137619500Y-81925646D01*
X137619500Y-82154353D01*
X137655278Y-82380246D01*
X137655278Y-82380249D01*
X137725950Y-82597755D01*
X137781702Y-82707174D01*
X137829783Y-82801538D01*
X137964214Y-82986566D01*
X138125934Y-83148286D01*
X138310962Y-83282717D01*
X138514742Y-83386548D01*
X138514744Y-83386549D01*
X138732251Y-83457221D01*
X138732252Y-83457221D01*
X138732255Y-83457222D01*
X138958146Y-83493000D01*
X138958147Y-83493000D01*
X139281853Y-83493000D01*
X139281854Y-83493000D01*
X139507745Y-83457222D01*
X139507748Y-83457221D01*
X139507749Y-83457221D01*
X139725255Y-83386549D01*
X139725255Y-83386548D01*
X139725258Y-83386548D01*
X139929038Y-83282717D01*
X140114066Y-83148286D01*
X140275786Y-82986566D01*
X140410217Y-82801538D01*
X140514048Y-82597758D01*
X140552335Y-82479920D01*
X140582583Y-82430559D01*
X158830045Y-64183099D01*
X158925858Y-64039705D01*
X158991855Y-63880374D01*
X159025500Y-63711229D01*
X159025500Y-63538771D01*
X159025500Y-62714006D01*
X159045185Y-62646967D01*
X159061819Y-62626325D01*
X161076325Y-60611819D01*
X161137648Y-60578334D01*
X161164006Y-60575500D01*
X164135994Y-60575500D01*
X164203033Y-60595185D01*
X164223675Y-60611819D01*
X164825681Y-61213825D01*
X164840384Y-61240752D01*
X164856977Y-61266571D01*
X164857868Y-61272771D01*
X164859166Y-61275148D01*
X164862000Y-61301506D01*
X164862000Y-61400270D01*
X164842315Y-61467309D01*
X164825681Y-61487951D01*
X164807289Y-61506342D01*
X164715187Y-61655663D01*
X164715186Y-61655666D01*
X164660001Y-61822203D01*
X164660001Y-61822204D01*
X164660000Y-61822204D01*
X164649500Y-61924983D01*
X164649500Y-62975001D01*
X164649501Y-62975019D01*
X164660000Y-63077796D01*
X164660001Y-63077799D01*
X164715185Y-63244331D01*
X164715187Y-63244336D01*
X164719636Y-63251549D01*
X164804529Y-63389183D01*
X164812335Y-63417712D01*
X164822674Y-63445426D01*
X164821453Y-63451036D01*
X164822969Y-63456575D01*
X164814111Y-63484797D01*
X164807825Y-63513700D01*
X164803028Y-63520108D01*
X164802046Y-63523238D01*
X164786676Y-63541955D01*
X164777686Y-63550946D01*
X164716365Y-63584435D01*
X164646673Y-63579454D01*
X164602319Y-63550951D01*
X164508657Y-63457289D01*
X164508656Y-63457288D01*
X164415888Y-63400069D01*
X164359336Y-63365187D01*
X164359331Y-63365185D01*
X164337648Y-63358000D01*
X164192797Y-63310001D01*
X164192795Y-63310000D01*
X164090010Y-63299500D01*
X163289998Y-63299500D01*
X163289980Y-63299501D01*
X163187203Y-63310000D01*
X163187200Y-63310001D01*
X163020668Y-63365185D01*
X163020663Y-63365187D01*
X162871342Y-63457289D01*
X162747289Y-63581342D01*
X162655187Y-63730663D01*
X162655185Y-63730668D01*
X162646043Y-63758257D01*
X162600001Y-63897203D01*
X162600001Y-63897204D01*
X162600000Y-63897204D01*
X162589500Y-63999983D01*
X162589500Y-65000001D01*
X162589501Y-65000019D01*
X162600000Y-65102796D01*
X162600001Y-65102799D01*
X162642701Y-65231656D01*
X162655186Y-65269334D01*
X162747288Y-65418656D01*
X162871344Y-65542712D01*
X163020666Y-65634814D01*
X163187203Y-65689999D01*
X163289991Y-65700500D01*
X163310990Y-65700499D01*
X163378028Y-65720181D01*
X163398674Y-65736818D01*
X163749675Y-66087819D01*
X163783160Y-66149142D01*
X163778176Y-66218834D01*
X163736304Y-66274767D01*
X163670840Y-66299184D01*
X163661994Y-66299500D01*
X162792230Y-66299500D01*
X162725191Y-66279815D01*
X162704549Y-66263181D01*
X162252772Y-65811404D01*
X162219287Y-65750081D01*
X162217980Y-65704326D01*
X162220500Y-65688417D01*
X162220500Y-65491583D01*
X162220500Y-65491577D01*
X162189709Y-65297173D01*
X162138123Y-65138411D01*
X162128884Y-65109975D01*
X162128882Y-65109972D01*
X162128882Y-65109970D01*
X162039523Y-64934594D01*
X162029209Y-64920398D01*
X161923828Y-64775354D01*
X161784646Y-64636172D01*
X161625405Y-64520476D01*
X161572701Y-64493622D01*
X161450029Y-64431117D01*
X161262826Y-64370290D01*
X161068422Y-64339500D01*
X161068417Y-64339500D01*
X160871583Y-64339500D01*
X160871578Y-64339500D01*
X160677173Y-64370290D01*
X160489970Y-64431117D01*
X160314594Y-64520476D01*
X160223741Y-64586485D01*
X160155354Y-64636172D01*
X160155352Y-64636174D01*
X160155351Y-64636174D01*
X160016174Y-64775351D01*
X160016174Y-64775352D01*
X160016172Y-64775354D01*
X160005513Y-64790025D01*
X159900476Y-64934594D01*
X159811117Y-65109970D01*
X159750290Y-65297173D01*
X159719500Y-65491577D01*
X159719500Y-65688422D01*
X159750290Y-65882826D01*
X159811117Y-66070029D01*
X159886937Y-66218834D01*
X159900476Y-66245405D01*
X160016172Y-66404646D01*
X160155354Y-66543828D01*
X160314595Y-66659524D01*
X160372632Y-66689095D01*
X160489970Y-66748882D01*
X160489972Y-66748882D01*
X160489975Y-66748884D01*
X160590317Y-66781487D01*
X160677173Y-66809709D01*
X160871578Y-66840500D01*
X160871583Y-66840500D01*
X161068414Y-66840500D01*
X161068417Y-66840500D01*
X161084325Y-66837980D01*
X161153616Y-66846934D01*
X161191404Y-66872772D01*
X161951586Y-67632954D01*
X161974431Y-67648217D01*
X162008702Y-67671116D01*
X162074505Y-67715084D01*
X162074506Y-67715084D01*
X162074507Y-67715085D01*
X162211082Y-67771656D01*
X162211087Y-67771658D01*
X162211091Y-67771658D01*
X162211092Y-67771659D01*
X162356079Y-67800500D01*
X162356082Y-67800500D01*
X162356083Y-67800500D01*
X162503918Y-67800500D01*
X162638770Y-67800500D01*
X162705809Y-67820185D01*
X162751564Y-67872989D01*
X162761508Y-67942147D01*
X162732483Y-68005703D01*
X162726451Y-68012181D01*
X162695451Y-68043181D01*
X162634128Y-68076666D01*
X162607770Y-68079500D01*
X162053614Y-68079500D01*
X162044294Y-68076763D01*
X162034665Y-68078044D01*
X162011316Y-68067079D01*
X161986575Y-68059815D01*
X161977407Y-68051157D01*
X161971421Y-68048346D01*
X161959310Y-68034066D01*
X161953297Y-68028387D01*
X161943828Y-68015354D01*
X161804648Y-67876174D01*
X161804646Y-67876172D01*
X161645405Y-67760476D01*
X161644600Y-67760066D01*
X161470029Y-67671117D01*
X161282826Y-67610290D01*
X161088422Y-67579500D01*
X161088417Y-67579500D01*
X160891583Y-67579500D01*
X160891578Y-67579500D01*
X160697173Y-67610290D01*
X160509970Y-67671117D01*
X160334594Y-67760476D01*
X160279507Y-67800500D01*
X160175354Y-67876172D01*
X160175352Y-67876174D01*
X160175351Y-67876174D01*
X160036174Y-68015351D01*
X160036174Y-68015352D01*
X160036172Y-68015354D01*
X159998339Y-68067426D01*
X159920476Y-68174594D01*
X159831117Y-68349970D01*
X159770290Y-68537173D01*
X159739500Y-68731577D01*
X159739500Y-68928421D01*
X159742019Y-68944329D01*
X159733062Y-69013622D01*
X159707226Y-69051404D01*
X157992049Y-70766582D01*
X157965653Y-70806088D01*
X157965652Y-70806089D01*
X157909919Y-70889498D01*
X157909912Y-70889511D01*
X157853343Y-71026082D01*
X157853340Y-71026092D01*
X157824500Y-71171079D01*
X157824500Y-78584911D01*
X157804815Y-78651950D01*
X157752011Y-78697705D01*
X157682853Y-78707649D01*
X157619297Y-78678624D01*
X157585940Y-78632365D01*
X157578050Y-78613317D01*
X157578041Y-78613299D01*
X157446924Y-78386196D01*
X157287281Y-78178148D01*
X157287274Y-78178140D01*
X157101860Y-77992726D01*
X157101851Y-77992718D01*
X156893803Y-77833075D01*
X156666700Y-77701958D01*
X156666690Y-77701953D01*
X156424428Y-77601605D01*
X156424421Y-77601603D01*
X156424419Y-77601602D01*
X156171116Y-77533730D01*
X156113339Y-77526123D01*
X155911127Y-77499500D01*
X155911120Y-77499500D01*
X155648880Y-77499500D01*
X155648872Y-77499500D01*
X155417772Y-77529926D01*
X155388884Y-77533730D01*
X155135581Y-77601602D01*
X155135571Y-77601605D01*
X154893309Y-77701953D01*
X154893299Y-77701958D01*
X154666196Y-77833075D01*
X154458148Y-77992718D01*
X154272718Y-78178148D01*
X154113075Y-78386196D01*
X153981958Y-78613299D01*
X153981953Y-78613309D01*
X153881605Y-78855571D01*
X153881602Y-78855581D01*
X153813730Y-79108885D01*
X153779500Y-79368872D01*
X153779500Y-79631127D01*
X153806123Y-79833339D01*
X153813730Y-79891116D01*
X153881602Y-80144418D01*
X153881605Y-80144428D01*
X153981953Y-80386690D01*
X153981958Y-80386700D01*
X154113075Y-80613803D01*
X154272718Y-80821851D01*
X154272726Y-80821860D01*
X154458140Y-81007274D01*
X154458148Y-81007281D01*
X154666196Y-81166924D01*
X154893299Y-81298041D01*
X154893309Y-81298046D01*
X155135571Y-81398394D01*
X155135581Y-81398398D01*
X155388884Y-81466270D01*
X155648880Y-81500500D01*
X155648887Y-81500500D01*
X155911113Y-81500500D01*
X155911120Y-81500500D01*
X156171116Y-81466270D01*
X156424419Y-81398398D01*
X156666697Y-81298043D01*
X156893803Y-81166924D01*
X157101851Y-81007282D01*
X157101855Y-81007277D01*
X157101860Y-81007274D01*
X157287274Y-80821860D01*
X157287277Y-80821855D01*
X157287282Y-80821851D01*
X157446924Y-80613803D01*
X157578043Y-80386697D01*
X157585939Y-80367635D01*
X157629780Y-80313232D01*
X157696074Y-80291167D01*
X157763773Y-80308446D01*
X157811384Y-80359583D01*
X157824500Y-80415088D01*
X157824500Y-84323918D01*
X157824500Y-84323920D01*
X157824499Y-84323920D01*
X157853340Y-84468907D01*
X157853343Y-84468917D01*
X157909914Y-84605492D01*
X157942812Y-84654727D01*
X157942813Y-84654730D01*
X157992046Y-84728414D01*
X157992052Y-84728421D01*
X164995336Y-91731704D01*
X165028821Y-91793027D01*
X165023837Y-91862719D01*
X164981965Y-91918652D01*
X164916501Y-91943069D01*
X164848228Y-91928217D01*
X164834775Y-91919707D01*
X164733419Y-91846067D01*
X164540509Y-91747774D01*
X164413890Y-91706633D01*
X164364527Y-91676383D01*
X160307102Y-87618957D01*
X160307098Y-87618954D01*
X160163711Y-87523145D01*
X160163698Y-87523138D01*
X160004378Y-87457146D01*
X160004366Y-87457143D01*
X159835232Y-87423500D01*
X159835229Y-87423500D01*
X141014771Y-87423500D01*
X141014768Y-87423500D01*
X140845633Y-87457143D01*
X140845621Y-87457146D01*
X140686301Y-87523138D01*
X140686288Y-87523145D01*
X140542901Y-87618954D01*
X140542897Y-87618957D01*
X133987322Y-94174534D01*
X131816901Y-96344955D01*
X131755927Y-96405929D01*
X131694953Y-96466902D01*
X131599145Y-96610288D01*
X131599138Y-96610301D01*
X131533146Y-96769621D01*
X131533143Y-96769633D01*
X131499500Y-96938766D01*
X130032104Y-96938766D01*
X130032105Y-96932650D01*
X130034854Y-85054698D01*
X130036959Y-75959635D01*
X137619500Y-75959635D01*
X137619500Y-77960370D01*
X137619501Y-77960376D01*
X137625908Y-78019983D01*
X137676202Y-78154828D01*
X137676206Y-78154835D01*
X137762452Y-78270044D01*
X137762455Y-78270047D01*
X137877664Y-78356293D01*
X137877671Y-78356297D01*
X138012517Y-78406591D01*
X138012516Y-78406591D01*
X138019444Y-78407335D01*
X138072127Y-78413000D01*
X140167872Y-78412999D01*
X140227483Y-78406591D01*
X140362331Y-78356296D01*
X140477546Y-78270046D01*
X140563796Y-78154831D01*
X140614091Y-78019983D01*
X140620500Y-77960373D01*
X140620499Y-75959628D01*
X140614091Y-75900017D01*
X140606447Y-75879523D01*
X140563797Y-75765171D01*
X140563793Y-75765164D01*
X140477547Y-75649955D01*
X140477544Y-75649952D01*
X140362335Y-75563706D01*
X140362328Y-75563702D01*
X140227482Y-75513408D01*
X140227483Y-75513408D01*
X140167883Y-75507001D01*
X140167881Y-75507000D01*
X140167873Y-75507000D01*
X140167864Y-75507000D01*
X138072129Y-75507000D01*
X138072123Y-75507001D01*
X138012516Y-75513408D01*
X137877671Y-75563702D01*
X137877664Y-75563706D01*
X137762455Y-75649952D01*
X137762452Y-75649955D01*
X137676206Y-75765164D01*
X137676202Y-75765171D01*
X137625908Y-75900017D01*
X137621856Y-75937710D01*
X137619501Y-75959623D01*
X137619500Y-75959635D01*
X130036959Y-75959635D01*
X130040239Y-61790646D01*
X137619500Y-61790646D01*
X137619500Y-62019353D01*
X137655278Y-62245246D01*
X137655278Y-62245249D01*
X137725950Y-62462755D01*
X137765182Y-62539751D01*
X137829783Y-62666538D01*
X137964214Y-62851566D01*
X138125934Y-63013286D01*
X138310962Y-63147717D01*
X138493012Y-63240476D01*
X138514744Y-63251549D01*
X138732251Y-63322221D01*
X138732252Y-63322221D01*
X138732255Y-63322222D01*
X138958146Y-63358000D01*
X138958147Y-63358000D01*
X139281853Y-63358000D01*
X139281854Y-63358000D01*
X139507745Y-63322222D01*
X139507748Y-63322221D01*
X139507749Y-63322221D01*
X139725255Y-63251549D01*
X139725255Y-63251548D01*
X139725258Y-63251548D01*
X139929038Y-63147717D01*
X140114066Y-63013286D01*
X140275786Y-62851566D01*
X140410217Y-62666538D01*
X140514048Y-62462758D01*
X140517108Y-62453340D01*
X140584721Y-62245249D01*
X140584721Y-62245248D01*
X140584722Y-62245245D01*
X140620500Y-62019354D01*
X140620500Y-61790646D01*
X140584722Y-61564755D01*
X140584721Y-61564751D01*
X140584721Y-61564750D01*
X140514049Y-61347244D01*
X140464574Y-61250144D01*
X140410217Y-61143462D01*
X140275786Y-60958434D01*
X140114066Y-60796714D01*
X139929038Y-60662283D01*
X139725255Y-60558450D01*
X139507748Y-60487778D01*
X139338326Y-60460944D01*
X139281854Y-60452000D01*
X138958146Y-60452000D01*
X138882849Y-60463926D01*
X138732253Y-60487778D01*
X138732250Y-60487778D01*
X138514744Y-60558450D01*
X138310961Y-60662283D01*
X138228489Y-60722203D01*
X138125934Y-60796714D01*
X138125932Y-60796716D01*
X138125931Y-60796716D01*
X137964216Y-60958431D01*
X137964216Y-60958432D01*
X137964214Y-60958434D01*
X137920634Y-61018417D01*
X137829783Y-61143461D01*
X137725950Y-61347244D01*
X137655278Y-61564750D01*
X137655278Y-61564753D01*
X137619500Y-61790646D01*
X130040239Y-61790646D01*
X130040831Y-59233872D01*
X153779500Y-59233872D01*
X153779500Y-59496127D01*
X153800382Y-59654729D01*
X153813730Y-59756116D01*
X153839014Y-59850476D01*
X153881602Y-60009418D01*
X153881605Y-60009428D01*
X153981953Y-60251690D01*
X153981958Y-60251700D01*
X154113075Y-60478803D01*
X154272718Y-60686851D01*
X154272726Y-60686860D01*
X154458140Y-60872274D01*
X154458148Y-60872281D01*
X154666196Y-61031924D01*
X154893299Y-61163041D01*
X154893309Y-61163046D01*
X155103583Y-61250144D01*
X155135581Y-61263398D01*
X155388884Y-61331270D01*
X155648880Y-61365500D01*
X155648887Y-61365500D01*
X155911113Y-61365500D01*
X155911120Y-61365500D01*
X156171116Y-61331270D01*
X156424419Y-61263398D01*
X156666697Y-61163043D01*
X156893803Y-61031924D01*
X157101851Y-60872282D01*
X157101855Y-60872277D01*
X157101860Y-60872274D01*
X157287274Y-60686860D01*
X157287277Y-60686855D01*
X157287282Y-60686851D01*
X157446924Y-60478803D01*
X157578043Y-60251697D01*
X157678398Y-60009419D01*
X157746270Y-59756116D01*
X157780500Y-59496120D01*
X157780500Y-59233880D01*
X157746270Y-58973884D01*
X157678398Y-58720581D01*
X157638661Y-58624647D01*
X157578046Y-58478309D01*
X157578041Y-58478299D01*
X157446924Y-58251196D01*
X157301923Y-58062229D01*
X157287282Y-58043149D01*
X157287281Y-58043148D01*
X157287274Y-58043140D01*
X157101860Y-57857726D01*
X157101851Y-57857718D01*
X156893803Y-57698075D01*
X156666700Y-57566958D01*
X156666690Y-57566953D01*
X156424428Y-57466605D01*
X156424421Y-57466603D01*
X156424419Y-57466602D01*
X156171116Y-57398730D01*
X156113339Y-57391123D01*
X155911127Y-57364500D01*
X155911120Y-57364500D01*
X155648880Y-57364500D01*
X155648872Y-57364500D01*
X155417772Y-57394926D01*
X155388884Y-57398730D01*
X155135581Y-57466602D01*
X155135571Y-57466605D01*
X154893309Y-57566953D01*
X154893299Y-57566958D01*
X154666196Y-57698075D01*
X154458148Y-57857718D01*
X154272718Y-58043148D01*
X154113075Y-58251196D01*
X153981958Y-58478299D01*
X153981953Y-58478309D01*
X153881605Y-58720571D01*
X153881602Y-58720581D01*
X153815071Y-58968882D01*
X153813730Y-58973885D01*
X153779500Y-59233872D01*
X130040831Y-59233872D01*
X130041620Y-55824635D01*
X137619500Y-55824635D01*
X137619500Y-57825370D01*
X137619501Y-57825376D01*
X137625908Y-57884983D01*
X137676202Y-58019828D01*
X137676206Y-58019835D01*
X137762452Y-58135044D01*
X137762455Y-58135047D01*
X137877664Y-58221293D01*
X137877671Y-58221297D01*
X138012517Y-58271591D01*
X138012516Y-58271591D01*
X138019444Y-58272335D01*
X138072127Y-58278000D01*
X140167872Y-58277999D01*
X140227483Y-58271591D01*
X140362331Y-58221296D01*
X140477546Y-58135046D01*
X140563796Y-58019831D01*
X140614091Y-57884983D01*
X140620500Y-57825373D01*
X140620499Y-55824628D01*
X140614091Y-55765017D01*
X140604171Y-55738421D01*
X140563797Y-55630171D01*
X140563793Y-55630164D01*
X140477547Y-55514955D01*
X140477544Y-55514952D01*
X140362335Y-55428706D01*
X140362328Y-55428702D01*
X140227482Y-55378408D01*
X140227483Y-55378408D01*
X140167883Y-55372001D01*
X140167881Y-55372000D01*
X140167873Y-55372000D01*
X140167864Y-55372000D01*
X138072129Y-55372000D01*
X138072123Y-55372001D01*
X138012516Y-55378408D01*
X137877671Y-55428702D01*
X137877664Y-55428706D01*
X137762455Y-55514952D01*
X137762452Y-55514955D01*
X137676206Y-55630164D01*
X137676202Y-55630171D01*
X137625908Y-55765017D01*
X137620811Y-55812431D01*
X137619501Y-55824623D01*
X137619500Y-55824635D01*
X130041620Y-55824635D01*
X130047102Y-32143258D01*
X142719500Y-32143258D01*
X142719500Y-32372741D01*
X142744446Y-32562215D01*
X142749452Y-32600238D01*
X142749453Y-32600240D01*
X142808842Y-32821887D01*
X142896650Y-33033876D01*
X142896657Y-33033890D01*
X143011392Y-33232617D01*
X143151081Y-33414661D01*
X143151089Y-33414670D01*
X143313330Y-33576911D01*
X143313338Y-33576918D01*
X143495382Y-33716607D01*
X143495385Y-33716608D01*
X143495388Y-33716611D01*
X143694112Y-33831344D01*
X143694117Y-33831346D01*
X143694123Y-33831349D01*
X143785480Y-33869190D01*
X143906113Y-33919158D01*
X144127762Y-33978548D01*
X144355266Y-34008500D01*
X144355273Y-34008500D01*
X144584727Y-34008500D01*
X144584734Y-34008500D01*
X144812238Y-33978548D01*
X145033887Y-33919158D01*
X145245888Y-33831344D01*
X145444612Y-33716611D01*
X145626661Y-33576919D01*
X145626665Y-33576914D01*
X145626670Y-33576911D01*
X145788911Y-33414670D01*
X145788914Y-33414665D01*
X145788919Y-33414661D01*
X145928611Y-33232612D01*
X146043344Y-33033888D01*
X146131158Y-32821887D01*
X146190548Y-32600238D01*
X146220500Y-32372734D01*
X146220500Y-32143266D01*
X146190548Y-31915762D01*
X146131158Y-31694113D01*
X146130208Y-31691821D01*
X146130129Y-31691086D01*
X146129852Y-31690268D01*
X146130035Y-31690205D01*
X146122744Y-31622353D01*
X146154022Y-31559875D01*
X146214113Y-31524226D01*
X146260954Y-31521437D01*
X146352579Y-31533500D01*
X146352586Y-31533500D01*
X146657414Y-31533500D01*
X146657421Y-31533500D01*
X146959656Y-31493710D01*
X147254111Y-31414811D01*
X147535749Y-31298153D01*
X147799751Y-31145732D01*
X148041599Y-30960155D01*
X148257155Y-30744599D01*
X148442732Y-30502751D01*
X148595153Y-30238749D01*
X148711811Y-29957111D01*
X148790710Y-29662656D01*
X148830500Y-29360421D01*
X148830500Y-29055579D01*
X148790710Y-28753344D01*
X148711811Y-28458889D01*
X148595153Y-28177251D01*
X148584758Y-28159247D01*
X148442732Y-27913249D01*
X148257156Y-27671402D01*
X148257150Y-27671395D01*
X148041604Y-27455849D01*
X148041597Y-27455843D01*
X147799750Y-27270267D01*
X147535752Y-27117848D01*
X147535742Y-27117844D01*
X147254113Y-27001189D01*
X146959654Y-26922289D01*
X146657430Y-26882501D01*
X146657427Y-26882500D01*
X146657421Y-26882500D01*
X146352579Y-26882500D01*
X146352573Y-26882500D01*
X146352569Y-26882501D01*
X146050345Y-26922289D01*
X145755886Y-27001189D01*
X145474257Y-27117844D01*
X145474247Y-27117848D01*
X145210249Y-27270267D01*
X144968402Y-27455843D01*
X144968395Y-27455849D01*
X144752849Y-27671395D01*
X144752843Y-27671402D01*
X144567267Y-27913249D01*
X144414848Y-28177247D01*
X144414844Y-28177257D01*
X144298189Y-28458886D01*
X144219289Y-28753345D01*
X144179501Y-29055569D01*
X144179500Y-29055585D01*
X144179500Y-29360414D01*
X144179501Y-29360430D01*
X144219289Y-29662654D01*
X144298189Y-29957113D01*
X144414844Y-30238742D01*
X144414848Y-30238752D01*
X144462623Y-30321500D01*
X144479096Y-30389400D01*
X144456243Y-30455427D01*
X144401322Y-30498618D01*
X144359282Y-30506720D01*
X144359316Y-30507235D01*
X144355258Y-30507500D01*
X144138715Y-30536009D01*
X144127762Y-30537452D01*
X144034076Y-30562554D01*
X143906112Y-30596842D01*
X143694123Y-30684650D01*
X143694109Y-30684657D01*
X143495382Y-30799392D01*
X143313338Y-30939081D01*
X143151081Y-31101338D01*
X143011392Y-31283382D01*
X142896657Y-31482109D01*
X142896650Y-31482123D01*
X142808842Y-31694112D01*
X142749453Y-31915759D01*
X142749451Y-31915770D01*
X142719500Y-32143258D01*
X130047102Y-32143258D01*
X130049971Y-19748919D01*
X130069671Y-19681886D01*
X130122486Y-19636144D01*
X130173918Y-19624950D01*
X191741000Y-19600500D01*
X192875500Y-19600500D01*
X192942539Y-19620185D01*
G37*
%TD.AperFunction*%
%TD*%
M02*
